<svg width="644" height="337" viewBox="0 0 644 337" fill="none" xmlns="http://www.w3.org/2000/svg">
<g clip-path="url(#clip0_1868_9281)">
<path d="M443.746 3.98534H560.723L537.842 20.2329V33.8019C537.79 40.5061 535.075 46.9155 530.294 51.6205C525.512 56.3255 519.056 58.9408 512.344 58.8915H438.94C432.228 58.9408 425.772 56.3255 420.99 51.6205C416.208 46.9155 413.493 40.5061 413.442 33.8019C413.471 29.8563 414.278 25.9551 415.817 22.3211C417.356 18.6871 419.596 15.3916 422.41 12.6227C425.225 9.85385 428.557 7.66592 432.218 6.18389C435.879 4.70187 439.796 3.95479 443.746 3.98534Z" fill="white"/>
<path d="M518.106 22.1237C518.106 22.2534 498.621 22.3646 474.496 22.3646C450.371 22.3646 430.886 22.2534 430.886 22.1237C430.886 21.9939 450.371 21.8827 474.496 21.8827C498.621 21.8827 518.106 21.9846 518.106 22.1237Z" fill="#C4C4C4"/>
<path d="M518.106 31.1511C518.106 31.2808 498.621 31.3921 474.496 31.3921C450.371 31.3921 430.886 31.2808 430.886 31.1511C430.886 31.0213 450.371 30.9101 474.496 30.9101C498.621 30.9101 518.106 31.012 518.106 31.1511Z" fill="#C4C4C4"/>
<path d="M266.272 282.084H127.852L150.399 298.378V330.354C150.399 331.232 150.572 332.1 150.908 332.91C151.245 333.721 151.738 334.457 152.359 335.076C152.98 335.696 153.718 336.188 154.529 336.522C155.341 336.857 156.211 337.029 157.089 337.028H266.272C267.15 337.029 268.02 336.857 268.831 336.522C269.643 336.188 270.38 335.696 271.002 335.076C271.623 334.457 272.116 333.721 272.452 332.91C272.789 332.1 272.962 331.232 272.962 330.354V288.758C272.959 286.987 272.253 285.29 270.999 284.038C269.745 282.787 268.044 282.084 266.272 282.084Z" fill="white"/>
<path d="M260.5 304.681C260.5 304.82 239.623 304.922 213.875 304.922C188.126 304.922 167.249 304.82 167.249 304.681C167.249 304.542 188.117 304.44 213.875 304.44C239.632 304.44 260.5 304.551 260.5 304.681Z" fill="#C4C4C4"/>
<path d="M260.5 316.962C260.5 317.091 239.623 317.203 213.875 317.203C188.126 317.203 167.249 317.091 167.249 316.962C167.249 316.832 188.117 316.721 213.875 316.721C239.632 316.721 260.5 316.832 260.5 316.962Z" fill="#C4C4C4"/>
<path d="M548.893 124.503H386.895C367.017 124.503 350.903 140.599 350.903 160.455V292.159C350.903 312.015 367.017 328.111 386.895 328.111H548.893C568.771 328.111 584.885 312.015 584.885 292.159V160.455C584.885 140.599 568.771 124.503 548.893 124.503Z" fill="#DA2828"/>
<g opacity="0.4">
<path opacity="0.4" d="M548.893 124.503H386.895C367.017 124.503 350.903 140.599 350.903 160.455V292.159C350.903 312.015 367.017 328.111 386.895 328.111H548.893C568.771 328.111 584.885 312.015 584.885 292.159V160.455C584.885 140.599 568.771 124.503 548.893 124.503Z" fill="#DA2828"/>
</g>
<path d="M584.82 195.49H619.866L584.031 231.284L584.82 195.49Z" fill="#DA2828"/>
<g opacity="0.4">
<path opacity="0.4" d="M584.82 195.49H619.866L584.031 231.284L584.82 195.49Z" fill="#DA2828"/>
</g>
<path d="M345.299 217.493L330.61 200.81C326.639 196.843 325.275 194.933 326.073 194.238C327.131 193.311 326.676 193.617 334.925 199.799C334.925 199.799 323.234 190.874 327.289 190.818C328.003 190.818 329.989 191.968 332.114 193.358C329.219 190.902 328.402 189.243 328.968 188.455C329.896 187.083 337.059 192.042 340.353 194.424C337.662 192.422 332.531 188.538 331.631 187.315C330.388 185.647 332.902 185.786 334.944 186.481C337.235 187.259 349.901 193.719 353.65 195.388C353.95 195.567 354.286 195.679 354.634 195.716C354.982 195.753 355.334 195.714 355.666 195.602C355.997 195.49 356.3 195.308 356.555 195.068C356.809 194.827 357.008 194.535 357.138 194.211C358.521 188.408 362.706 184.636 364.302 184.145C365.897 183.654 367.132 185.693 365.99 187.176C364.917 188.901 364.086 190.766 363.522 192.718C363.005 194.25 362.751 195.857 362.771 197.473C362.771 199.327 362.9 200.93 363.021 202.274L376.447 220.672L353.993 233.648L345.299 217.493Z" fill="#D8B7AA"/>
<path d="M340.047 202.395C339.899 202.598 337.263 200.81 334.22 198.391C331.177 195.972 328.801 193.84 328.977 193.645C329.154 193.451 331.761 195.249 334.805 197.649C337.848 200.05 340.177 202.181 340.047 202.395Z" fill="#B9978B"/>
<path d="M342.886 199.466C342.738 199.679 339.852 197.918 336.438 195.545C333.023 193.172 330.369 191.069 330.518 190.865C330.666 190.661 333.552 192.403 336.967 194.776C340.381 197.149 343.035 199.253 342.886 199.466Z" fill="#B9978B"/>
<path d="M344.965 196.352C344.816 196.565 342.051 194.952 338.794 192.746C335.538 190.54 333.014 188.585 333.153 188.362C333.292 188.14 336.057 189.762 339.323 191.968C342.589 194.173 345.104 196.138 344.965 196.352Z" fill="#B9978B"/>
<path d="M364.274 204.767L417.794 272.556L405.536 301.057C405.536 301.057 390.857 297.813 386.404 291.64C381.95 285.467 345.299 217.493 345.299 217.493L364.274 204.767Z" fill="#B9978B"/>
<path d="M500.133 109.933C503.984 113.269 503.975 119.146 503.529 124.215C503.084 129.285 502.741 135.059 506.257 138.748C509.161 141.788 514.422 143.114 515.091 147.257C515.249 148.23 515.101 149.229 514.668 150.115C514.235 151.001 513.538 151.732 512.673 152.206C511.807 152.681 510.816 152.876 509.835 152.764C508.854 152.653 507.931 152.241 507.194 151.585C508.326 154.857 507.547 158.944 504.708 160.928C501.868 162.911 497.108 161.688 496.227 158.342C496.371 158.9 496.399 159.483 496.307 160.052C496.216 160.622 496.009 161.167 495.698 161.653C495.386 162.139 494.978 162.555 494.499 162.877C494.019 163.198 493.478 163.418 492.91 163.521C492.342 163.624 491.759 163.61 491.196 163.478C490.634 163.346 490.105 163.1 489.642 162.755C489.18 162.41 488.793 161.973 488.507 161.472C488.22 160.971 488.04 160.417 487.978 159.843" fill="#263238"/>
<path d="M444.99 144.152C444.472 145.393 443.481 146.378 442.236 146.89C440.991 147.402 439.593 147.399 438.351 146.881C437.108 146.364 436.122 145.374 435.609 144.131C435.097 142.887 435.1 141.491 435.618 140.25C436.5 138.322 438.587 136.932 438.791 134.818C439.033 132.27 436.425 130.444 434.152 129.332C431.879 128.219 429.132 126.773 428.882 124.215C428.631 121.657 430.849 119.831 432.695 118.182C434.542 116.532 436.407 113.974 435.228 111.777C434.644 110.646 433.428 110.007 432.64 108.997C430.905 106.791 431.814 103.278 434.031 101.582C436.249 99.8857 439.311 99.6169 442.076 100.108C444.841 100.599 447.439 101.749 450.13 102.555C454.591 103.851 459.272 104.208 463.878 103.605C468.484 103.002 472.914 101.452 476.89 99.0516" fill="#263238"/>
<path d="M461.422 203.924C466.216 204.89 471.198 203.935 475.293 201.265C479.388 198.594 482.268 194.423 483.311 189.65L496.477 129.35C497.299 125.868 497.413 122.257 496.814 118.73C496.214 115.203 494.913 111.832 492.986 108.816C491.06 105.801 488.547 103.201 485.598 101.172C482.648 99.1433 479.321 97.7256 475.813 97.0033L474.44 96.7994C467.732 95.8144 460.899 97.3897 455.302 101.211C449.705 105.033 445.755 110.821 444.238 117.422C441.306 130.147 438.235 144.244 437.307 151.168C435.386 165.506 449.369 169.825 449.369 169.825L446.854 181.874C446.356 184.275 446.337 186.75 446.799 189.158C447.261 191.566 448.195 193.859 449.547 195.906C450.899 197.952 452.642 199.711 454.677 201.082C456.712 202.454 458.998 203.41 461.404 203.896L461.422 203.924Z" fill="#D8B7AA"/>
<path d="M446.817 126.912C446.736 127.445 446.865 127.987 447.176 128.427C447.488 128.866 447.958 129.167 448.488 129.267C448.744 129.325 449.01 129.332 449.269 129.286C449.528 129.24 449.776 129.144 449.997 129.001C450.219 128.859 450.409 128.674 450.558 128.456C450.706 128.239 450.81 127.995 450.863 127.737C450.949 127.206 450.824 126.662 450.514 126.222C450.203 125.781 449.732 125.48 449.202 125.383C448.945 125.325 448.678 125.318 448.419 125.363C448.159 125.409 447.91 125.506 447.688 125.648C447.466 125.79 447.275 125.976 447.125 126.193C446.976 126.41 446.871 126.654 446.817 126.912Z" fill="#263238"/>
<path d="M446.289 124.873C446.502 125.179 448.219 124.252 450.427 124.586C452.635 124.92 454.073 126.245 454.352 126.013C454.491 125.911 454.296 125.392 453.674 124.781C452.818 123.982 451.736 123.467 450.575 123.307C449.431 123.134 448.261 123.329 447.235 123.863C446.483 124.289 446.186 124.734 446.289 124.873Z" fill="#263238"/>
<path d="M468.335 130.434C468.251 130.967 468.379 131.511 468.691 131.951C469.003 132.391 469.474 132.691 470.005 132.789C470.262 132.847 470.529 132.853 470.789 132.807C471.048 132.761 471.296 132.663 471.518 132.52C471.739 132.376 471.93 132.19 472.078 131.972C472.226 131.754 472.329 131.509 472.381 131.25C472.464 130.719 472.336 130.176 472.024 129.737C471.712 129.299 471.24 129 470.71 128.905C470.454 128.845 470.187 128.838 469.928 128.883C469.668 128.928 469.42 129.025 469.198 129.167C468.977 129.31 468.786 129.496 468.638 129.713C468.49 129.931 468.387 130.176 468.335 130.434Z" fill="#263238"/>
<path d="M467.871 128.451C468.084 128.748 469.801 127.83 472 128.164C474.199 128.497 475.656 129.823 475.934 129.591C476.064 129.489 475.878 128.97 475.247 128.358C474.391 127.56 473.309 127.045 472.148 126.885C471.004 126.712 469.834 126.907 468.808 127.441C468.094 127.839 467.76 128.312 467.871 128.451Z" fill="#263238"/>
<path d="M457.488 143.596C457.488 143.466 456.18 143.03 454.008 142.428C453.452 142.289 452.941 142.094 452.904 141.696C452.942 141.112 453.156 140.553 453.517 140.092C454.253 138.813 455.017 137.469 455.808 136.06C459.01 130.305 461.376 125.55 461.181 125.42C460.986 125.29 458.165 129.851 454.964 135.616L452.737 139.675C452.287 140.305 452.071 141.072 452.125 141.844C452.182 142.049 452.284 142.238 452.424 142.399C452.563 142.559 452.737 142.686 452.932 142.771C453.229 142.898 453.541 142.988 453.86 143.04C455.041 143.375 456.26 143.561 457.488 143.596Z" fill="#263238"/>
<path d="M468.558 119.748C468.687 120.378 470.933 120.415 473.466 121.101C475.999 121.787 477.985 122.797 478.412 122.315C478.597 122.084 478.319 121.463 477.567 120.767C476.547 119.892 475.341 119.261 474.04 118.923C472.74 118.584 471.378 118.546 470.061 118.812C469.022 119.053 468.511 119.498 468.558 119.748Z" fill="#263238"/>
<path d="M448.033 118.626C448.348 119.183 449.889 118.886 451.745 119.127C453.6 119.368 455.066 119.961 455.456 119.488C455.651 119.257 455.456 118.719 454.881 118.145C454.057 117.445 453.044 117.007 451.97 116.885C450.896 116.762 449.81 116.962 448.85 117.459C448.181 117.876 447.894 118.358 448.033 118.626Z" fill="#263238"/>
<path d="M483.227 111.379L483.292 111.453C485.314 113.584 486.431 116.414 486.41 119.349V119.637C486.41 123.808 485.658 127.978 485.668 132.103C485.677 136.227 486.475 140.62 489.082 143.864C490.149 145.208 492.228 146.321 493.443 145.116C493.871 144.603 494.145 143.979 494.232 143.318C496.44 133.576 500.412 125.235 501.905 114.928C502.113 113.549 501.987 112.14 501.54 110.818C501.093 109.496 500.337 108.3 499.335 107.328C497.405 105.475 495.002 103.473 492.432 104.26C489.862 105.048 486.104 109.08 483.96 110.748" fill="#263238"/>
<path d="M490.697 135.115C490.956 135.041 500.968 133.641 499.215 143.382C497.461 153.124 488.08 149.361 488.08 149.073C488.08 148.786 490.697 135.115 490.697 135.115Z" fill="#D8B7AA"/>
<path d="M491.717 145.922C491.717 145.922 491.866 146.07 492.125 146.246C492.5 146.494 492.955 146.587 493.397 146.506C494.492 146.311 495.651 144.838 496.013 143.086C496.2 142.259 496.2 141.401 496.013 140.574C495.975 140.254 495.859 139.947 495.677 139.681C495.494 139.415 495.25 139.196 494.965 139.045C494.779 138.957 494.568 138.938 494.369 138.991C494.171 139.043 493.997 139.164 493.879 139.332C493.703 139.573 493.731 139.786 493.675 139.786C493.619 139.786 493.499 139.592 493.675 139.202C493.771 138.972 493.945 138.781 494.167 138.665C494.471 138.51 494.824 138.48 495.15 138.581C495.539 138.736 495.881 138.987 496.144 139.312C496.408 139.637 496.583 140.023 496.653 140.435C496.911 141.34 496.946 142.294 496.756 143.216C496.338 145.171 495.002 146.821 493.526 146.979C493.25 147.008 492.971 146.975 492.709 146.882C492.447 146.789 492.21 146.638 492.014 146.441C491.689 146.154 491.68 145.931 491.717 145.922Z" fill="#B9978B"/>
<path d="M492.543 105.827C495.531 102.258 489.76 95.6778 485.12 93.4441C480.481 91.2105 473.8 92.6378 468.752 93.5276C465.57 94.0929 462.341 95.0568 459.168 94.4544C457.062 93.928 455.047 93.0875 453.192 91.9612C451.332 90.8551 449.268 90.1334 447.124 89.8387C446.045 89.7062 444.951 89.87 443.958 90.3126C442.966 90.7552 442.113 91.4598 441.491 92.3505C440.387 94.2042 441.157 97.1052 443.236 97.7076C442.609 97.2326 441.877 96.9165 441.102 96.7864C440.326 96.6563 439.53 96.716 438.783 96.9605C438.036 97.205 437.359 97.6269 436.81 98.1901C436.262 98.7533 435.859 99.4409 435.635 100.194C435.411 100.947 435.374 101.743 435.526 102.514C435.678 103.285 436.014 104.007 436.507 104.619C437 105.232 437.634 105.715 438.355 106.029C439.076 106.342 439.863 106.477 440.647 106.42C439.413 105.159 437.019 106.596 436.936 108.357C436.852 110.118 438.244 111.61 439.719 112.546C443.533 114.938 448.376 115.058 452.812 114.261C457.247 113.464 461.497 111.814 465.913 110.906C470.33 109.998 477.744 108.274 481.733 110.378C484.666 111.916 486.28 115.939 488.145 115.392C489.028 115.067 489.823 114.541 490.468 113.855C491.112 113.17 491.587 112.344 491.857 111.443C492.359 109.635 492.569 107.757 492.478 105.882" fill="#263238"/>
<path d="M511.629 151.01C511.812 150.969 511.985 150.893 512.14 150.788C512.599 150.494 512.965 150.076 513.198 149.583C513.557 148.794 513.667 147.915 513.513 147.062C513.272 145.941 512.657 144.934 511.769 144.207C510.714 143.34 509.527 142.649 508.252 142.159C506.819 141.637 505.442 140.972 504.141 140.176C502.779 139.219 501.74 137.871 501.163 136.311C500.529 134.63 500.236 132.841 500.3 131.046C500.393 127.339 501.423 123.863 501.673 120.591C501.924 117.32 501.506 114.252 500.115 112.129C499.068 110.422 497.409 109.179 495.475 108.654C494.957 108.523 494.422 108.47 493.888 108.496C493.703 108.499 493.519 108.527 493.341 108.58C494.045 108.575 494.747 108.662 495.429 108.839C497.267 109.42 498.827 110.657 499.808 112.315C501.098 114.372 501.543 117.357 501.219 120.554C500.894 123.752 499.901 127.228 499.79 131.037C499.731 132.897 500.046 134.751 500.718 136.487C501.338 138.135 502.449 139.555 503.9 140.556C505.232 141.354 506.64 142.019 508.104 142.539C509.344 142.999 510.506 143.649 511.546 144.467C512.394 145.137 512.994 146.069 513.253 147.118C513.423 147.916 513.345 148.747 513.031 149.5C512.744 150.144 512.251 150.676 511.629 151.01Z" fill="#455A64"/>
<path d="M442.92 97.476C442.79 97.3785 442.646 97.3004 442.494 97.2443C442.32 97.1589 442.14 97.0876 441.955 97.0311C441.699 96.9433 441.435 96.8782 441.167 96.8364C440.287 96.6978 439.387 96.7609 438.535 97.021C437.683 97.2811 436.901 97.7315 436.249 98.3379C435.588 99.1417 435.094 100.068 434.795 101.064C434.495 102.06 434.397 103.106 434.505 104.14C434.629 105.425 435.01 106.671 435.626 107.806C436.241 108.941 437.077 109.942 438.086 110.748C440.405 112.614 443.229 113.747 446.196 114.002C449.418 114.278 452.663 114.082 455.827 113.418C460.845 112.436 465.651 110.578 470.024 107.931C471.898 106.773 473.859 105.759 475.888 104.9C477.658 104.182 479.545 103.796 481.455 103.76C484.234 103.7 486.984 104.337 489.453 105.614C490.346 106.113 491.21 106.66 492.042 107.254C491.299 106.525 490.459 105.901 489.546 105.4C487.071 104.023 484.279 103.31 481.446 103.334C479.489 103.349 477.552 103.722 475.73 104.437C473.679 105.295 471.697 106.308 469.801 107.467C465.458 110.06 460.699 111.882 455.734 112.852C452.616 113.512 449.419 113.715 446.242 113.455C443.366 113.216 440.625 112.133 438.365 110.341C437.392 109.573 436.583 108.619 435.984 107.535C435.385 106.452 435.008 105.26 434.876 104.029C434.762 103.042 434.845 102.044 435.119 101.089C435.393 100.135 435.852 99.2442 436.472 98.4677C437.09 97.8778 437.832 97.4329 438.645 97.1652C439.457 96.8975 440.318 96.8137 441.167 96.9199C441.767 97.0512 442.354 97.2373 442.92 97.476Z" fill="#455A64"/>
<path d="M448.348 89.3661C448.315 90.1108 448.432 90.8547 448.692 91.5534C449.416 93.4848 450.769 95.117 452.533 96.1877C453.719 96.9593 455.037 97.506 456.421 97.8003C458.008 98.1198 459.634 98.2042 461.246 98.0506C464.651 97.8004 468.214 96.6325 471.954 95.6686C475.693 94.7047 479.432 94.1949 482.661 95.0569C485.527 95.8153 488.076 97.4682 489.936 99.7745C491.215 101.306 492.163 103.086 492.719 105.002C493.09 106.364 493.137 107.161 493.202 107.152C493.214 106.961 493.214 106.769 493.202 106.578C493.151 106.031 493.061 105.489 492.933 104.956C492.438 102.979 491.516 101.135 490.233 99.5521C488.354 97.1511 485.751 95.4187 482.81 94.612C479.469 93.6852 475.628 94.2135 471.87 95.1867C468.112 96.1598 464.577 97.3277 461.246 97.5964C459.677 97.7586 458.092 97.6931 456.542 97.4018C455.201 97.1292 453.919 96.6208 452.756 95.9003C451.035 94.887 449.688 93.3463 448.914 91.5071C448.666 90.8105 448.477 90.0943 448.348 89.3661Z" fill="#455A64"/>
<path d="M453.09 150.871C453.212 151.828 453.465 152.764 453.841 153.652C454.038 154.091 454.326 154.483 454.686 154.802C455.046 155.122 455.47 155.362 455.929 155.506C456.427 155.608 456.942 155.585 457.428 155.438C457.915 155.29 458.356 155.024 458.713 154.662C459.424 153.913 459.882 152.96 460.021 151.937C460.17 151.01 460.021 149.852 459.093 149.555C458.718 149.463 458.327 149.463 457.952 149.555L452.812 150.482" fill="#B9978B"/>
<path d="M453.99 154.764C454.807 155.078 455.675 155.242 456.551 155.246C457.457 155.193 458.311 154.803 458.945 154.152C459.319 153.755 459.604 153.282 459.781 152.766C459.959 152.25 460.025 151.702 459.975 151.159C459.947 150.88 459.885 150.606 459.789 150.343C459.668 150.093 459.706 150.111 459.492 150.084C459.279 150.056 458.945 150.084 458.666 150.13L457.803 150.195C456.69 150.278 455.688 150.343 454.843 150.389C453.918 150.518 452.979 150.499 452.06 150.334C452.928 150.017 453.838 149.83 454.76 149.778C455.595 149.657 456.616 149.537 457.701 149.407L458.555 149.314C458.862 149.269 459.172 149.241 459.483 149.231C459.729 149.237 459.966 149.322 460.16 149.472C460.333 149.625 460.464 149.819 460.541 150.037C460.667 150.371 460.748 150.72 460.782 151.075C460.843 151.743 460.756 152.415 460.526 153.045C460.297 153.674 459.931 154.246 459.455 154.718C458.663 155.47 457.606 155.88 456.514 155.858C455.8 155.861 455.099 155.665 454.491 155.292C454.175 155.033 453.962 154.801 453.99 154.764Z" fill="#263238"/>
<path d="M449.388 169.825C449.388 169.825 458.741 173.366 467.843 170.752C467.843 170.752 460.977 176.508 448.451 174.302L449.388 169.825Z" fill="#B9978B"/>
<path d="M463.658 302.707C463.207 302.412 462.779 302.083 462.378 301.724C461.979 301.4 461.45 301.001 460.884 300.575C460.318 300.149 459.631 299.648 458.843 299.138C458.054 298.629 457.237 298.072 456.282 297.544C455.326 297.016 454.315 296.46 453.229 295.904C448.469 293.564 443.351 292.035 438.086 291.381C436.871 291.251 435.72 291.103 434.634 291.075C433.549 291.047 432.537 291.001 431.619 291.01C430.7 291.019 429.856 291.066 429.123 291.093C428.39 291.121 427.759 291.177 427.267 291.232C426.736 291.313 426.199 291.351 425.662 291.344C426.184 291.21 426.714 291.111 427.249 291.047C427.863 290.942 428.482 290.868 429.104 290.825C429.837 290.769 430.672 290.667 431.61 290.667C432.547 290.667 433.558 290.611 434.653 290.667C435.748 290.723 436.917 290.815 438.142 290.927C440.797 291.257 443.422 291.796 445.992 292.539C448.542 293.322 451.025 294.311 453.415 295.496C454.5 296.071 455.549 296.599 456.467 297.192C457.386 297.785 458.258 298.313 459.019 298.851C459.78 299.389 460.448 299.908 461.032 300.353C461.617 300.797 462.099 301.224 462.48 301.576C462.904 301.919 463.298 302.298 463.658 302.707Z" fill="#FAFAFA"/>
<path d="M409.127 255.104L416.736 222.173C419.649 209.791 423.101 197.89 428.9 196.481V200.309L426.413 294.393C426.413 294.393 410.909 312.003 391.154 302.234C384.975 299.166 373.701 277.617 373.701 277.617C373.701 277.617 347.47 230.867 348.565 228.745C349.66 226.622 365.684 205.991 367.317 204.962L409.127 255.104Z" fill="#FEC32D"/>
<path d="M487.421 187.157C502.546 190.049 519.572 198.863 527.413 221.45C530.27 229.699 551.092 290.509 551.092 290.509L515.582 289.768L509.848 277.246L512.632 297.591L515.035 326.601L425.365 328.111L425.996 284.402L426.859 197.464C426.859 197.464 427.861 196.148 443.329 187.63C452.923 182.338 487.421 187.157 487.421 187.157Z" fill="#FEC32D"/>
<g opacity="0.2">
<path opacity="0.2" d="M496.366 245.307C497.841 263.659 499.53 269.331 501.005 287.683C501.04 289.42 501.354 291.141 501.933 292.78C502.243 293.595 502.74 294.326 503.385 294.914C504.03 295.501 504.804 295.929 505.645 296.163C508.261 296.692 511.657 298.582 512.39 296.024L509.913 278.349C509.38 275.778 508.559 273.275 507.463 270.888C501.961 258.682 499.929 257.968 496.329 245.307" fill="black"/>
</g>
<path d="M443.319 197.037L443.616 195.128L446.483 176.814C446.566 176.281 446.847 175.8 447.271 175.466C447.694 175.133 448.228 174.972 448.766 175.016L484.072 177.963C485.138 178.051 486.127 178.556 486.822 179.368C487.517 180.181 487.863 181.235 487.783 182.301L486.994 192.941L475.971 207.307L460.095 209.781" fill="#FEC32D"/>
<path d="M425.588 231.47C425.727 231.47 425.829 245.817 425.829 263.511C425.829 281.204 425.727 295.552 425.588 295.552C425.449 295.552 425.346 281.204 425.346 263.511C425.346 245.817 425.458 231.47 425.588 231.47Z" fill="#263238"/>
<path d="M516.343 292.715C516.343 292.715 516.343 292.65 516.232 292.511C516.12 292.372 516.055 292.141 515.935 291.881L514.859 289.444L510.989 280.444L498.379 250.683C495.93 244.862 493.601 239.32 491.485 234.269C490.416 231.903 489.649 229.411 489.203 226.854C488.811 224.619 488.606 222.356 488.59 220.088C488.472 216.801 488.95 213.52 490.001 210.402L490.288 209.633L490.613 208.984C490.766 208.639 490.952 208.31 491.17 208.002L491.559 207.427C491.604 207.362 491.654 207.3 491.708 207.242C491.098 208.267 490.585 209.347 490.177 210.467C489.206 213.578 488.785 216.833 488.934 220.088C488.949 224.921 489.957 229.7 491.894 234.13L498.825 250.525L511.305 280.342L515.016 289.397L516.009 291.872L516.26 292.521C516.293 292.583 516.321 292.648 516.343 292.715Z" fill="#263238"/>
<path d="M498.426 190.392C498.101 190.721 497.757 191.031 497.396 191.319C496.353 192.113 495.215 192.777 494.009 193.293C492.099 194.089 490.098 194.649 488.052 194.961C485.348 195.381 482.622 195.65 479.887 195.768C476.844 195.897 473.522 195.842 469.959 195.907C466.174 195.9 462.403 196.361 458.731 197.278C454.664 198.239 450.982 200.407 448.172 203.497C446.772 205.181 445.77 207.158 445.24 209.281C444.674 211.459 444.712 213.75 445.351 215.908C445.706 216.973 446.229 217.974 446.901 218.874C447.577 219.747 448.431 220.467 449.406 220.987C450.352 221.505 451.431 221.73 452.505 221.636C453.556 221.528 454.529 221.032 455.233 220.246C455.861 219.418 456.307 218.468 456.543 217.458C456.78 216.447 456.801 215.398 456.607 214.379C456.452 213.372 456.139 212.396 455.679 211.487C455.221 210.6 454.67 209.764 454.036 208.994C451.556 206.138 448.216 204.164 444.516 203.368C441.311 202.612 437.97 202.651 434.783 203.479C432.161 204.156 429.658 205.228 427.36 206.658C425.61 207.748 423.958 208.989 422.424 210.365C421.152 211.478 420.252 212.441 419.64 213.072L418.953 213.813C418.878 213.902 418.794 213.983 418.703 214.054C419.795 212.675 421.006 211.395 422.322 210.226C423.841 208.823 425.487 207.563 427.239 206.463C429.56 204.989 432.095 203.882 434.755 203.182C437.994 202.314 441.398 202.257 444.665 203.016C448.46 203.815 451.89 205.829 454.435 208.753C455.084 209.526 455.65 210.365 456.124 211.255C456.592 212.21 456.905 213.233 457.052 214.286C457.214 215.36 457.195 216.453 456.996 217.521C456.796 218.632 456.307 219.671 455.577 220.533C454.797 221.407 453.718 221.959 452.552 222.081C451.382 222.192 450.205 221.95 449.174 221.386C448.139 220.833 447.231 220.069 446.511 219.143C445.803 218.199 445.252 217.147 444.878 216.028C444.211 213.786 444.173 211.404 444.767 209.142C445.308 206.944 446.346 204.899 447.801 203.164C450.68 200.01 454.444 197.797 458.601 196.815C462.315 195.908 466.127 195.466 469.949 195.499C473.522 195.443 476.843 195.499 479.868 195.415C482.592 195.321 485.309 195.076 488.006 194.683C490.04 194.391 492.033 193.863 493.944 193.108C495.143 192.621 496.283 191.999 497.34 191.254C497.711 191.004 497.962 190.772 498.147 190.642C498.232 190.55 498.325 190.466 498.426 190.392Z" fill="#FAFAFA"/>
<path d="M529.111 228.967C528.98 229.004 528.847 229.025 528.712 229.032C528.452 229.032 528.071 229.097 527.57 229.115C526.168 229.162 524.765 229.128 523.367 229.013C521.595 228.884 519.498 228.615 517.178 228.291C514.858 227.966 512.316 227.623 509.625 227.484C507.109 227.347 504.586 227.537 502.119 228.05C500.101 228.459 498.165 229.195 496.384 230.228C494.772 231.212 493.341 232.466 492.153 233.935C492.204 233.811 492.272 233.695 492.357 233.592C492.553 233.265 492.777 232.955 493.026 232.665C493.925 231.568 495 230.629 496.208 229.885C498 228.791 499.964 228.008 502.017 227.568C504.523 227.021 507.092 226.815 509.653 226.956C512.372 227.095 514.923 227.466 517.243 227.809C519.563 228.151 521.641 228.457 523.395 228.624C525.148 228.791 526.587 228.865 527.57 228.874C528.085 228.874 528.6 228.905 529.111 228.967Z" fill="#FAFAFA"/>
<path d="M506.814 270.517C505.069 270.112 503.276 269.959 501.488 270.063C499.391 270.205 497.316 270.575 495.299 271.166C492.933 271.806 490.288 272.742 487.319 273.659C484.095 274.751 480.721 275.336 477.317 275.393C473.397 275.392 469.519 274.587 465.922 273.029C461.926 271.342 458.371 268.761 455.53 265.485C453.994 263.773 452.741 261.827 451.819 259.72C450.838 257.539 450.469 255.133 450.752 252.759C451.075 250.366 452.243 248.167 454.046 246.559C454.941 245.779 456.015 245.231 457.173 244.964C458.305 244.725 459.479 244.757 460.597 245.058C461.714 245.36 462.745 245.921 463.603 246.698C464.441 247.465 465.024 248.471 465.273 249.58C465.513 250.665 465.426 251.797 465.022 252.833C464.632 253.829 464.042 254.734 463.287 255.493C461.848 256.933 460.109 258.037 458.193 258.728C457.291 259.07 456.359 259.328 455.41 259.497C454.946 259.581 454.482 259.683 454.027 259.748L452.645 259.914C449.254 260.25 445.831 260.009 442.522 259.201C439.792 258.552 437.162 257.542 434.7 256.198C432.838 255.193 431.092 253.987 429.494 252.602L428.566 251.795L427.805 251.026C427.395 250.638 427.011 250.223 426.655 249.784L425.987 248.987C425.911 248.9 425.842 248.807 425.783 248.709C425.873 248.786 425.956 248.869 426.033 248.959L426.729 249.719C427.097 250.144 427.491 250.547 427.908 250.924L428.678 251.675L429.606 252.463C431.211 253.81 432.956 254.981 434.811 255.957C437.26 257.264 439.872 258.243 442.577 258.867C445.854 259.647 449.239 259.866 452.589 259.516L453.944 259.349C454.398 259.275 454.872 259.173 455.317 259.089C456.245 258.922 457.155 258.668 458.036 258.329C459.888 257.655 461.57 256.583 462.963 255.187C463.672 254.47 464.228 253.615 464.596 252.676C464.96 251.721 465.04 250.681 464.828 249.682C464.553 248.661 464.004 247.735 463.24 247.003C462.476 246.271 461.527 245.762 460.494 245.53C459.437 245.225 458.32 245.193 457.247 245.438C456.174 245.683 455.181 246.196 454.361 246.929C452.643 248.459 451.533 250.554 451.234 252.833C450.968 255.118 451.321 257.432 452.255 259.534C453.153 261.592 454.368 263.496 455.855 265.179C458.647 268.395 462.138 270.931 466.062 272.594C469.601 274.137 473.418 274.944 477.28 274.966C480.649 274.925 483.992 274.362 487.189 273.298C490.149 272.371 492.757 271.5 495.197 270.879C497.234 270.307 499.328 269.962 501.442 269.85C502.211 269.802 502.983 269.802 503.752 269.85C504.411 269.952 504.977 269.998 505.422 270.1L506.433 270.351C506.567 270.388 506.695 270.445 506.814 270.517Z" fill="#FAFAFA"/>
<path d="M425.281 260.628C425.198 260.628 424.771 259.701 423.871 258.144C421.516 254.193 418.081 250.994 413.971 248.922C412.393 248.125 411.354 247.773 411.382 247.689C411.643 247.712 411.899 247.771 412.143 247.865C412.818 248.066 413.478 248.314 414.119 248.607C416.245 249.575 418.2 250.88 419.909 252.472C421.621 254.062 423.06 255.922 424.168 257.977C424.519 258.593 424.829 259.231 425.096 259.887C425.19 260.124 425.253 260.374 425.281 260.628Z" fill="#FAFAFA"/>
<path d="M389.28 300.297C389.28 300.297 389.215 300.223 389.132 300.065C389.048 299.908 388.909 299.657 388.751 299.37C388.417 298.758 387.935 297.841 387.341 296.654C385.617 293.305 384.195 289.81 383.091 286.209C382.353 283.708 381.908 281.129 381.764 278.525C381.69 277.071 381.749 275.613 381.94 274.169C382.171 272.641 382.537 271.137 383.035 269.674C384.118 266.511 385.993 263.678 388.482 261.444C389.811 260.226 391.374 259.289 393.076 258.692C394.777 258.095 396.583 257.848 398.382 257.968C400.253 258.108 401.999 258.957 403.263 260.341C403.864 261.025 404.301 261.838 404.541 262.716C404.78 263.595 404.816 264.516 404.646 265.411C404.445 266.288 403.986 267.085 403.328 267.7C402.685 268.288 401.908 268.711 401.064 268.933C399.431 269.357 397.697 269.149 396.211 268.349C394.833 267.606 393.628 266.579 392.676 265.336C391.763 264.186 391.011 262.917 390.44 261.564C389.436 259.137 389.019 256.508 389.224 253.89C389.412 251.73 390.044 249.632 391.08 247.726C391.848 246.289 392.831 244.976 393.994 243.834C394.721 243.109 395.52 242.46 396.378 241.897C396.666 241.702 396.907 241.581 397.065 241.489L397.306 241.368C397.306 241.368 397.009 241.581 396.434 241.98C395.605 242.57 394.832 243.234 394.123 243.963C393.012 245.116 392.074 246.424 391.34 247.847C390.354 249.728 389.763 251.791 389.605 253.908C389.425 256.475 389.858 259.048 390.867 261.416C391.43 262.728 392.166 263.96 393.056 265.077C393.98 266.266 395.143 267.249 396.471 267.959C397.858 268.705 399.476 268.897 400.999 268.497C401.78 268.314 402.496 267.92 403.067 267.358C403.638 266.795 404.043 266.086 404.237 265.309C404.385 264.49 404.346 263.648 404.124 262.846C403.903 262.044 403.504 261.302 402.957 260.674C401.773 259.384 400.139 258.595 398.392 258.469C396.658 258.354 394.919 258.592 393.28 259.167C391.64 259.742 390.135 260.642 388.853 261.814C386.424 263.997 384.589 266.758 383.518 269.841C383.017 271.272 382.648 272.746 382.414 274.243C382.221 275.662 382.156 277.095 382.219 278.525C382.349 281.101 382.772 283.654 383.481 286.135C384.55 289.726 385.915 293.223 387.563 296.59L388.89 299.37C389.029 299.667 389.141 299.908 389.234 300.093C389.326 300.278 389.28 300.297 389.28 300.297Z" fill="#FAFAFA"/>
<path d="M377.821 218.475C377.821 218.475 377.867 218.605 377.904 218.855C377.97 219.23 378.016 219.607 378.044 219.986C378.166 221.371 378.166 222.763 378.044 224.148C377.669 228.757 376.09 233.189 373.466 236.999C370.841 240.809 367.262 243.866 363.086 245.863C361.836 246.473 360.535 246.972 359.198 247.356C358.735 247.504 358.354 247.569 358.104 247.634C357.853 247.699 357.714 247.708 357.714 247.689C358.179 247.489 358.656 247.319 359.143 247.18C360.444 246.729 361.713 246.187 362.938 245.558C367.003 243.507 370.486 240.467 373.067 236.72C375.649 232.972 377.245 228.636 377.71 224.11C377.856 222.744 377.909 221.369 377.867 219.995C377.819 219.49 377.804 218.982 377.821 218.475Z" fill="#FAFAFA"/>
<path d="M537.229 258.663C535.849 259.527 534.636 260.632 533.648 261.926C532.72 263.121 531.792 264.706 530.744 266.374C529.594 268.243 528.267 269.996 526.782 271.611C524.065 274.543 520.844 276.963 517.271 278.757C516.196 279.301 515.086 279.775 513.949 280.175C513.535 280.338 513.106 280.462 512.669 280.546C513.053 280.327 513.457 280.143 513.875 279.999C514.654 279.656 515.786 279.174 517.113 278.451C520.58 276.59 523.715 274.169 526.392 271.287C527.862 269.697 529.182 267.975 530.335 266.143C531.258 264.611 532.265 263.132 533.351 261.712C534.106 260.761 535.004 259.932 536.014 259.256C536.288 259.075 536.576 258.916 536.877 258.784C537.118 258.691 537.229 258.645 537.229 258.663Z" fill="#FAFAFA"/>
<path d="M487.087 188.269C486.951 188.328 486.807 188.365 486.66 188.381L485.426 188.603C484.35 188.779 482.791 189.011 480.87 189.27C477.011 189.789 471.666 190.401 465.737 190.837C462.961 191.09 460.173 191.189 457.386 191.133C455.087 191.077 452.808 190.687 450.622 189.975C449.146 189.497 447.753 188.793 446.493 187.889C446.149 187.647 445.82 187.384 445.509 187.102C445.305 186.898 445.203 186.796 445.212 186.777C445.222 186.759 445.695 187.148 446.595 187.704C447.877 188.527 449.266 189.17 450.724 189.613C452.891 190.272 455.14 190.621 457.405 190.651C460.192 190.681 462.979 190.57 465.755 190.318C471.666 189.882 477.011 189.335 480.87 188.9L485.445 188.381C485.989 188.305 486.538 188.268 487.087 188.269Z" fill="#263238"/>
<path d="M550.674 297.071C551.373 300.657 551.273 304.352 550.382 307.895C549.491 311.438 547.831 314.742 545.519 317.572C543.207 320.402 540.3 322.69 537.004 324.272C533.708 325.855 530.104 326.694 526.448 326.73L456.161 325.952L458.017 303.216L518.199 294.189" fill="#B9978B"/>
<path d="M462.322 304.208C461.997 304.31 457.943 302.494 454.305 300.816C450.447 299.03 446.211 298.21 441.965 298.425L425.207 299.277C425.207 299.277 426.237 302.058 427.991 302.985C429.744 303.912 440.257 304.208 440.257 304.208L439.719 304.755C437.521 307.017 434.523 308.328 431.368 308.407H429.763C428.575 308.313 427.401 308.083 426.265 307.721L422.136 306.053C420.883 305.496 419.566 305.58 419.018 306.84C418.471 308.101 418.888 309.547 422.303 311.261C424.205 312.188 431.275 314.663 431.275 314.663C431.324 315.668 431.464 316.667 431.693 317.647C431.999 318.676 434.774 319.705 434.774 319.705C435.494 321.23 436.319 322.704 437.242 324.117C437.566 324.487 440.081 325.275 442.763 326.026C447.086 327.235 451.662 327.199 455.966 325.924L462.35 324.015V304.551" fill="#D8B7AA"/>
<path d="M439.404 316.915C436.451 316.84 433.557 316.079 430.951 314.691C430.951 314.58 432.807 315.284 435.154 315.886C437.502 316.489 439.413 316.776 439.404 316.915Z" fill="#B9978B"/>
<path d="M438.81 320.817C438.023 320.98 437.207 320.919 436.453 320.641C435.666 320.496 434.934 320.137 434.338 319.603C435.096 319.754 435.841 319.968 436.565 320.243C437.327 320.376 438.077 320.568 438.81 320.817Z" fill="#B9978B"/>
<path d="M441.872 302.698C441.505 303.213 441.071 303.677 440.582 304.078C439.471 305.138 438.245 306.071 436.926 306.859C435.598 307.634 434.154 308.191 432.649 308.509C432.044 308.67 431.418 308.739 430.793 308.713C432.867 308.237 434.869 307.492 436.75 306.498C438.039 305.721 439.265 304.844 440.415 303.875C440.865 303.44 441.352 303.046 441.872 302.698Z" fill="#B9978B"/>
<path d="M464.03 301.159L462.322 326.87H528.526C533.021 326.873 537.432 325.652 541.284 323.338C545.644 320.721 549.092 316.826 551.157 312.183C553.222 307.539 553.805 302.373 552.827 297.387C551.875 292.504 550.445 287.726 548.559 283.123L515.267 288.6L516.334 292.734L464.03 301.159Z" fill="#FEC32D"/>
<path d="M531.672 290.574C531.452 290.638 531.229 290.687 531.004 290.723L529.064 291.075L521.91 292.261L498.38 295.969L474.821 299.574L467.676 300.612L465.728 300.872C465.5 300.903 465.271 300.922 465.041 300.927C465.261 300.851 465.488 300.798 465.718 300.77L467.648 300.427L474.774 299.231L498.305 295.524L521.91 291.89L529.055 290.852L531.004 290.593C531.225 290.563 531.449 290.557 531.672 290.574Z" fill="#263238"/>
<path d="M497.786 326.888C497.665 326.888 498.185 325.034 498.25 322.004C498.264 321.181 498.23 320.357 498.147 319.538C498.068 318.604 497.931 317.675 497.739 316.758C497.28 314.643 496.556 312.594 495.587 310.659C494.593 308.733 493.379 306.929 491.968 305.283L491.04 304.199C490.724 303.847 490.381 303.541 490.066 303.226C489.444 302.586 488.785 302.076 488.21 301.585C485.844 299.732 484.164 298.805 484.22 298.721C484.631 298.885 485.025 299.087 485.399 299.324C485.86 299.564 486.307 299.834 486.735 300.13C487.226 300.482 487.839 300.825 488.423 301.326C489.091 301.826 489.73 302.364 490.335 302.938C490.659 303.254 491.021 303.55 491.346 303.865L492.358 304.959C493.811 306.616 495.057 308.443 496.069 310.4C497.051 312.375 497.775 314.468 498.222 316.628C498.412 317.573 498.536 318.53 498.593 319.492C498.652 320.325 498.652 321.161 498.593 321.994C498.575 322.687 498.513 323.377 498.407 324.061C498.356 324.577 498.266 325.088 498.138 325.59C498.058 326.032 497.94 326.466 497.786 326.888Z" fill="#FAFAFA"/>
<path d="M538.093 324.951C537.059 324.945 536.028 324.824 535.021 324.589C533.834 324.317 532.682 323.91 531.588 323.375C530.138 322.655 528.827 321.682 527.719 320.502C526.374 319.056 525.397 317.307 524.87 315.404C524.577 314.347 524.412 313.258 524.379 312.161C524.311 311.001 524.405 309.837 524.657 308.703C524.905 307.496 525.37 306.343 526.03 305.302C526.719 304.197 527.676 303.285 528.814 302.651C529.99 301.966 531.343 301.643 532.702 301.724C533.4 301.773 534.082 301.962 534.705 302.28C535.329 302.599 535.881 303.04 536.33 303.578C536.793 304.108 537.142 304.729 537.352 305.4C537.563 306.072 537.632 306.78 537.554 307.48C537.44 308.159 537.176 308.804 536.782 309.368C536.387 309.933 535.871 310.402 535.272 310.742C533.026 311.917 530.44 312.271 527.96 311.743C524.441 311.196 521.224 309.435 518.866 306.768C516.509 304.1 515.16 300.693 515.053 297.136C514.994 296.104 515.082 295.068 515.313 294.059C515.228 295.08 515.203 296.104 515.239 297.127C515.412 299.917 516.325 302.61 517.883 304.931C519.045 306.635 520.543 308.084 522.285 309.188C524.028 310.293 525.978 311.03 528.016 311.354C530.385 311.863 532.857 311.535 535.012 310.427C535.55 310.123 536.014 309.704 536.371 309.199C536.727 308.694 536.966 308.116 537.072 307.508C537.127 306.873 537.055 306.235 536.862 305.628C536.669 305.021 536.358 304.458 535.947 303.972C535.536 303.485 535.033 303.085 534.466 302.793C533.9 302.501 533.281 302.324 532.646 302.271C531.388 302.186 530.132 302.472 529.036 303.096C528.005 303.711 527.119 304.542 526.439 305.53C525.758 306.519 525.299 307.642 525.093 308.824C524.842 309.924 524.745 311.053 524.805 312.179C524.831 313.241 524.984 314.296 525.26 315.321C525.749 317.174 526.679 318.881 527.969 320.298C529.03 321.461 530.286 322.43 531.681 323.162C532.75 323.708 533.877 324.133 535.04 324.432C536.988 324.868 538.102 324.886 538.093 324.951Z" fill="#FAFAFA"/>
<path d="M275.476 44.8591H109.675C99.9837 44.8591 90.6897 48.7046 83.8372 55.5495C76.9847 62.3944 73.135 71.678 73.135 81.3582V140.38H37.3655L73.135 176.109V216.232C73.135 225.912 76.9847 235.196 83.8372 242.041C90.6897 248.886 99.9837 252.731 109.675 252.731H275.476C285.167 252.731 294.461 248.886 301.314 242.041C308.166 235.196 312.016 225.912 312.016 216.232V81.3582C312.016 71.678 308.166 62.3944 301.314 55.5495C294.461 48.7046 285.167 44.8591 275.476 44.8591Z" fill="#FEC32D"/>
<path d="M207.741 51.0967C206.693 53.8124 208.493 56.769 210.525 58.8637C212.557 60.9583 214.988 62.9418 215.628 65.7779C216.157 68.1599 215.276 70.6346 215.489 73.0629C215.703 75.4912 217.048 77.7805 217.809 80.1532C219.191 84.4538 218.635 89.1529 217.401 93.4998C216.511 97.1119 214.81 100.475 212.427 103.334C211.227 104.75 209.74 105.895 208.063 106.694C206.387 107.493 204.56 107.927 202.703 107.968C202.178 108.001 201.652 107.926 201.157 107.747C200.662 107.568 200.209 107.29 199.827 106.93C199.306 106.18 199.019 105.293 199.001 104.381C196.876 85.7188 196.876 66.8763 199.001 48.2142" fill="#263238"/>
<path d="M205.784 111.24C213.856 110.887 221.316 118.608 220.676 126.653C228.851 128.646 234.594 137.627 233.026 145.876C232.497 148.601 231.282 151.196 231.115 153.958C230.929 156.979 232.042 159.917 232.59 162.883C233.64 168.289 233.079 173.883 230.975 178.973C229.704 182.041 227.329 185.211 224.007 185.304C222.882 185.256 221.785 184.933 220.814 184.362C219.843 183.792 219.028 182.991 218.44 182.032C217.283 180.089 216.52 177.938 216.194 175.701C214.756 168.454 214.339 161.011 212.334 153.902C210.33 146.793 206.433 139.786 200.003 136.181C196.449 134.179 192.181 133.234 189.351 130.295C187.927 128.692 186.978 126.724 186.61 124.613C186.241 122.502 186.467 120.329 187.263 118.339C188.097 116.367 189.338 114.592 190.905 113.131C192.472 111.67 194.329 110.555 196.356 109.859" fill="#263238"/>
<path d="M149.907 57.7422C149.814 54.2943 152.997 51.6343 156.207 50.3275C159.418 49.0206 162.99 48.585 165.848 46.6201C168.39 44.9147 170.088 42.2547 172.232 40.1322C174.878 37.4512 178.192 35.522 181.832 34.5429C185.471 33.5637 189.306 33.5698 192.943 34.5605C196.58 35.5513 199.887 37.4909 202.525 40.1803C205.163 42.8697 207.037 46.212 207.955 49.864C209.189 54.767 208.345 60.5691 204.475 63.8316C199.984 67.6131 193.341 66.7696 187.56 65.5925C181.78 64.4155 175.284 63.2569 170.478 66.6399C167.583 68.6697 165.913 71.9878 164.141 75.0556C162.368 78.1235 160.151 81.2469 156.801 82.4055C153.452 83.564 148.896 81.562 148.766 78.0308" fill="#263238"/>
<path d="M163.51 58.4466C162.073 58.6018 160.747 59.2896 159.793 60.3742C158.84 61.4588 158.328 62.8612 158.36 64.3043L161.802 142.159C161.951 151.353 175.405 156.516 185.259 156.284C195.215 156.052 195.531 151.177 195.661 142.428C195.865 127.821 195.846 122.334 195.855 122.417C195.865 122.501 208.428 120.304 210.998 103.88C212.269 95.7335 211.833 82.3684 211.119 71.4409C210.479 61.6071 203.928 49.5582 194.12 50.6148L163.51 58.4466Z" fill="#FFBE9D"/>
<path d="M208.289 81.766C208.294 82.313 208.086 82.8406 207.708 83.2368C207.331 83.6331 206.813 83.8668 206.266 83.8885C206.001 83.9112 205.735 83.8812 205.482 83.8C205.228 83.7188 204.994 83.5882 204.792 83.4157C204.59 83.2432 204.424 83.0323 204.305 82.7952C204.185 82.5581 204.114 82.2996 204.095 82.0348C204.087 81.487 204.295 80.9581 204.673 80.5614C205.051 80.1646 205.57 79.9316 206.118 79.9123C206.383 79.8895 206.649 79.9196 206.902 80.0007C207.155 80.0819 207.39 80.2125 207.592 80.385C207.794 80.5576 207.96 80.7685 208.079 81.0056C208.199 81.2426 208.27 81.5011 208.289 81.766Z" fill="#263238"/>
<path d="M208.233 78.4293C207.974 78.7074 206.378 77.5025 204.114 77.5025C201.85 77.5025 200.189 78.6518 199.938 78.3737C199.818 78.2532 200.087 77.7527 200.81 77.2244C201.787 76.545 202.951 76.1855 204.141 76.1956C205.32 76.1888 206.47 76.5555 207.426 77.243C208.122 77.7898 208.363 78.3089 208.233 78.4293Z" fill="#263238"/>
<path d="M186.53 81.766C186.536 82.313 186.327 82.8406 185.95 83.2368C185.572 83.6331 185.055 83.8668 184.508 83.8885C184.243 83.9112 183.976 83.8812 183.723 83.8C183.47 83.7188 183.236 83.5882 183.033 83.4157C182.831 83.2432 182.666 83.0323 182.546 82.7952C182.426 82.5581 182.355 82.2996 182.336 82.0348C182.329 81.487 182.536 80.9581 182.914 80.5614C183.292 80.1646 183.811 79.9316 184.359 79.9123C184.624 79.8895 184.891 79.9196 185.144 80.0007C185.397 80.0819 185.631 80.2125 185.833 80.385C186.035 80.5576 186.201 80.7685 186.321 81.0056C186.44 81.2426 186.512 81.5011 186.53 81.766Z" fill="#263238"/>
<path d="M186.02 78.902C185.76 79.1801 184.164 77.9752 181.9 77.9752C179.636 77.9752 177.975 79.1245 177.734 78.8464C177.614 78.7259 177.873 78.2254 178.597 77.6971C179.574 77.0161 180.737 76.6535 181.928 76.6591C183.107 76.6549 184.258 77.0248 185.213 77.7157C185.862 78.281 186.104 78.7815 186.02 78.902Z" fill="#263238"/>
<path d="M194.232 95.6594C194.232 95.5296 195.624 95.2886 197.943 94.992C198.519 94.9271 199.066 94.8067 199.168 94.4174C199.211 93.8199 199.075 93.2233 198.778 92.7027L197.052 88.3095C194.668 82.0533 192.933 76.9093 193.193 76.8166C193.452 76.724 195.586 81.7196 197.971 87.9388L199.623 92.3598C199.982 93.0559 200.091 93.8547 199.929 94.6213C199.847 94.8234 199.722 95.0048 199.561 95.1524C199.401 95.2999 199.209 95.4098 199.001 95.474C198.699 95.5572 198.387 95.6008 198.073 95.6037C195.661 95.7706 194.241 95.7891 194.232 95.6594Z" fill="#263238"/>
<path d="M195.856 122.427C188.128 122.56 180.516 120.548 173.865 116.615C173.865 116.615 179.219 127.867 195.642 126.291L195.856 122.427Z" fill="#EB996E"/>
<path d="M193.285 101.109C192.848 100.561 192.277 100.134 191.627 99.8714C190.977 99.6084 190.269 99.5175 189.574 99.6077C189.074 99.6524 188.589 99.7979 188.147 100.035C187.705 100.273 187.316 100.597 187.003 100.989C186.702 101.367 186.524 101.828 186.494 102.311C186.464 102.793 186.584 103.274 186.836 103.686C187.2 104.093 187.677 104.381 188.207 104.514C188.736 104.646 189.293 104.616 189.806 104.427C190.874 104.048 191.855 103.459 192.691 102.694C192.948 102.515 193.169 102.288 193.341 102.027C193.425 101.902 193.471 101.755 193.471 101.605C193.471 101.455 193.425 101.308 193.341 101.183" fill="#EB996E"/>
<path d="M187.57 97.2535C187.941 97.2535 187.95 99.6911 190.056 101.424C192.163 103.157 194.779 102.889 194.798 103.278C194.798 103.436 194.213 103.76 193.109 103.788C191.669 103.814 190.266 103.331 189.147 102.425C188.076 101.55 187.388 100.294 187.226 98.9218C187.124 97.8374 187.403 97.2535 187.57 97.2535Z" fill="#263238"/>
<path d="M186.948 74.9352C186.725 75.5561 184.461 75.2688 181.807 75.5932C179.154 75.9176 177.001 76.6498 176.648 76.0937C176.491 75.8342 176.862 75.2503 177.725 74.6571C178.877 73.9174 180.183 73.4495 181.543 73.2889C182.903 73.1283 184.282 73.2792 185.575 73.7303C186.586 74.1659 187.078 74.6478 186.948 74.9352Z" fill="#263238"/>
<path d="M207.361 71.8858C206.962 72.3956 205.403 71.8858 203.52 71.8858C201.636 71.8858 200.059 72.238 199.697 71.7004C199.53 71.4409 199.78 70.9312 200.476 70.4399C201.407 69.858 202.49 69.5642 203.588 69.5955C204.686 69.6269 205.75 69.9819 206.647 70.616C207.361 71.1073 207.556 71.6356 207.361 71.8858Z" fill="#263238"/>
<path d="M152.051 112.37C154.313 112.827 156.652 112.74 158.874 112.116C161.096 111.493 163.138 110.35 164.831 108.783C166.524 107.216 167.82 105.269 168.611 103.103C169.403 100.938 169.667 98.6147 169.383 96.3266C168.873 92.2949 166.702 88.2075 168.103 84.3889C169.959 79.3561 177.02 77.8083 178.894 72.7756C179.98 69.856 179.005 66.436 180.239 63.572C181.399 60.8842 184.239 59.3363 187.004 58.3353C189.769 57.3344 192.719 56.6485 195.039 54.8504C197.359 53.0523 198.797 49.6601 197.303 47.1298C185.049 48.5985 173.013 51.5201 161.45 55.8329C158.768 56.8339 155.957 58.0388 154.37 60.4115C152.7 62.9325 152.784 66.1764 152.923 69.1979C153.609 83.9162 151.364 97.6984 152.051 112.417" fill="#263238"/>
<path d="M148.144 107.755C148.051 107.741 147.96 107.713 147.875 107.671C147.61 107.579 147.358 107.454 147.124 107.3C146.22 106.716 145.509 105.878 145.082 104.891C144.38 103.33 144.192 101.588 144.544 99.9135C145.103 97.7386 146.118 95.7071 147.523 93.9539C148.961 91.952 150.789 89.9222 152.032 87.3363C152.695 86.0222 153.065 84.5804 153.118 83.1099C153.064 81.5489 152.75 80.0078 152.19 78.5498C151.564 76.9735 151.234 75.2959 151.215 73.6005C151.305 71.7864 151.839 70.0219 152.769 68.4611C153.699 66.9004 154.997 65.591 156.551 64.6472C158.217 63.739 160.065 63.2134 161.96 63.1086C163.794 63.0188 165.611 62.7076 167.37 62.1818C169.021 61.5571 170.379 60.3368 171.174 58.7617C171.932 57.2121 172.535 55.5915 172.974 53.9236C173.444 52.3234 174.065 50.7716 174.83 49.2894C176.225 46.4793 178.349 44.0947 180.982 42.3844C183.306 40.9248 186.025 40.2191 188.767 40.3639C191.037 40.4812 193.2 41.367 194.9 42.8756C196.167 44.0134 197.111 45.4648 197.637 47.0835C197.979 48.0967 198.108 49.1694 198.017 50.2348C197.998 50.6053 197.936 50.9724 197.832 51.3284C197.832 51.3284 197.897 50.9484 197.925 50.2255C197.969 49.1765 197.812 48.1288 197.461 47.1391C196.822 45.3177 195.649 43.7303 194.096 42.5832C192.542 41.4361 190.679 40.7823 188.748 40.7068C186.082 40.5895 183.445 41.295 181.195 42.7273C178.634 44.4087 176.57 46.7451 175.22 49.4933C174.47 50.9759 173.867 52.5279 173.419 54.1275C172.966 55.8256 172.345 57.4743 171.564 59.049C171.134 59.864 170.572 60.6029 169.903 61.2364C169.211 61.8767 168.396 62.3716 167.509 62.6915C165.701 63.2481 163.831 63.5781 161.942 63.674C160.115 63.7701 158.333 64.2737 156.727 65.1477C155.242 66.0477 154 67.2968 153.109 68.7863C152.217 70.2758 151.704 71.9603 151.614 73.6932C151.631 75.3363 151.945 76.9629 152.542 78.4942C153.133 79.9969 153.462 81.5892 153.517 83.2026C153.454 84.7326 153.062 86.2312 152.366 87.5958C151.067 90.2466 149.221 92.23 147.773 94.2413C146.376 95.9449 145.358 97.9258 144.785 100.053C144.416 101.671 144.568 103.364 145.221 104.891C145.623 105.863 146.292 106.702 147.151 107.31C147.773 107.625 148.153 107.718 148.144 107.755Z" fill="#455A64"/>
<path d="M195.828 36.2858C196.053 36.3024 196.272 36.3689 196.468 36.4805C197.025 36.7165 197.546 37.0284 198.017 37.4073C199.634 38.6602 200.705 40.4874 201.007 42.5088C201.31 44.5303 200.82 46.5903 199.641 48.2606C199.298 48.7584 198.893 49.2101 198.435 49.6046C198.101 49.8826 197.897 50.0031 197.878 49.9753C198.401 49.3831 198.894 48.7644 199.354 48.1216C200.399 46.4929 200.818 44.5408 200.534 42.627C200.249 40.7132 199.279 38.9674 197.804 37.7132C197.173 37.1998 196.513 36.7232 195.828 36.2858Z" fill="#455A64"/>
<path d="M232.182 148.777C232.377 148.207 232.535 147.625 232.655 147.034C232.872 145.416 232.591 143.771 231.848 142.317C230.703 140.182 228.882 138.487 226.67 137.497C225.376 136.885 224.024 136.404 222.634 136.06C221.186 135.69 219.655 135.384 218.124 134.883C216.584 134.464 215.163 133.689 213.977 132.622C212.914 131.559 212.227 130.18 212.019 128.692C211.768 127.311 211.685 126.004 211.379 124.836C211.104 123.756 210.594 122.749 209.885 121.889C208.847 120.628 207.469 119.692 205.914 119.192C204.809 118.858 204.151 118.858 204.151 118.803C204.308 118.787 204.467 118.787 204.624 118.803C205.078 118.834 205.528 118.905 205.969 119.016C207.597 119.464 209.051 120.391 210.145 121.676C210.909 122.564 211.464 123.613 211.768 124.744C212.103 125.958 212.205 127.283 212.464 128.618C212.655 130.025 213.308 131.329 214.32 132.325C215.458 133.334 216.814 134.067 218.282 134.466C219.776 134.948 221.307 135.263 222.764 135.643C224.172 135.987 225.541 136.478 226.846 137.108C229.132 138.153 230.996 139.94 232.135 142.178C232.878 143.698 233.119 145.415 232.822 147.081C232.734 147.525 232.593 147.957 232.404 148.369C232.344 148.512 232.27 148.649 232.182 148.777Z" fill="#455A64"/>
<path d="M160.81 119.748C152.459 117.524 145.314 109.395 142.401 101.304C139.487 93.2125 139.487 84.3796 140.239 75.8156C140.777 69.615 141.872 63.053 145.991 58.3817C152.208 51.3377 158.982 47.7416 168.335 48.0382" fill="#263238"/>
<path d="M209.338 137.821L201.59 135.875C202.434 135.295 203.05 134.439 203.331 133.455C203.612 132.47 203.541 131.419 203.13 130.481C202.64 129.279 201.828 128.234 200.784 127.461C199.74 126.688 198.504 126.216 197.21 126.097L161.895 122.111C161.278 122.029 160.651 122.156 160.114 122.472C159.578 122.788 159.162 123.275 158.935 123.854C157.37 127.833 157.318 131.108 158.778 133.678H158.611L151.8 135.032L140.257 236.743L215.86 233.212L209.338 137.821Z" fill="#F5F5F5"/>
<path d="M198.222 136.264C197.758 136.4 197.283 136.493 196.802 136.542C195.874 136.691 194.547 136.848 192.896 137.015C184.252 137.817 175.538 137.383 167.017 135.727C165.384 135.402 164.076 135.106 163.176 134.865C162.703 134.773 162.24 134.637 161.793 134.457C162.272 134.492 162.747 134.57 163.213 134.689C164.141 134.865 165.449 135.115 167.082 135.393C175.594 136.856 184.252 137.286 192.868 136.672C194.519 136.561 195.855 136.44 196.783 136.348C197.26 136.282 197.741 136.254 198.222 136.264Z" fill="#263238"/>
<path d="M164.048 152.428C164.792 150.886 165.677 149.415 166.692 148.035C167.579 146.568 168.601 145.187 169.745 143.911C169 145.455 168.111 146.926 167.091 148.304C166.21 149.772 165.191 151.153 164.048 152.428Z" fill="#E0E0E0"/>
<path d="M188.414 154.152C186.056 151.734 183.934 149.096 182.077 146.274C183.313 147.43 184.437 148.699 185.436 150.065C186.558 151.328 187.556 152.697 188.414 154.152Z" fill="#E0E0E0"/>
<path d="M177.094 167.082C176.56 165.433 176.178 163.739 175.952 162.021C175.566 160.332 175.346 158.609 175.294 156.877C175.828 158.526 176.211 160.22 176.435 161.938C176.811 163.629 177.031 165.351 177.094 167.082Z" fill="#E0E0E0"/>
<path d="M195.698 167.879C194.388 169.506 192.955 171.031 191.411 172.439C189.977 173.964 188.426 175.374 186.771 176.656C188.081 175.028 189.514 173.504 191.058 172.096C192.498 170.577 194.049 169.168 195.698 167.879Z" fill="#E0E0E0"/>
<path d="M170.747 185.211C167.328 183.17 164.543 180.221 162.703 176.693C162.833 176.61 164.252 178.834 166.488 181.179C168.725 183.524 170.84 185.09 170.747 185.211Z" fill="#E0E0E0"/>
<path d="M178.764 198.594C178.764 198.734 176.648 199.41 174.199 200.717C171.749 202.024 169.959 203.396 169.866 203.275C171.034 202.026 172.429 201.01 173.976 200.281C175.448 199.415 177.074 198.842 178.764 198.594Z" fill="#E0E0E0"/>
<path d="M191.801 199.456C191.248 198.989 190.752 198.457 190.325 197.872C189.472 196.852 188.33 195.397 187.143 193.738C185.955 192.079 184.953 190.531 184.257 189.382C183.843 188.787 183.5 188.147 183.236 187.472C183.73 188.001 184.168 188.579 184.545 189.196L187.542 193.46L190.594 197.668C191.059 198.22 191.463 198.819 191.801 199.456Z" fill="#E0E0E0"/>
<path d="M193.109 210.875C191.305 211.507 189.439 211.942 187.542 212.173C185.665 212.564 183.752 212.753 181.835 212.738C183.689 212.273 185.57 211.926 187.467 211.7C189.33 211.314 191.214 211.038 193.109 210.875Z" fill="#E0E0E0"/>
<path d="M172 134.828C171.935 134.828 172.38 134.272 172.761 133.289C173.232 132.004 173.372 130.62 173.169 129.267C172.939 127.902 172.536 126.573 171.972 125.309C171.699 124.792 171.487 124.244 171.341 123.678C171.729 124.122 172.042 124.626 172.269 125.17C172.944 126.426 173.405 127.785 173.633 129.193C173.857 130.629 173.661 132.1 173.067 133.428C172.86 133.991 172.488 134.478 172 134.828Z" fill="#E0E0E0"/>
<path d="M186.122 127.209C186.784 128.119 187.257 129.152 187.513 130.247C187.77 131.342 187.805 132.477 187.616 133.586C187.477 133.586 187.458 132.112 187.041 130.36C186.623 128.609 186.02 127.283 186.122 127.209Z" fill="#E0E0E0"/>
<path d="M249.821 199.679L284.987 137.979L289.227 127.274C289.227 127.274 300.195 103.732 300.956 101.322C301.837 98.5418 303.387 98.3194 304.389 98.7086C305.948 99.3296 306.449 101.647 305.762 104.047C305.521 104.872 301.262 117.811 301.262 117.811C302.407 116.825 303.623 115.923 304.899 115.114C307.599 113.26 312.545 113.353 317.129 114.984C321.712 116.615 322.844 117.477 322.297 119.275C322.176 119.613 321.98 119.919 321.725 120.171C321.47 120.423 321.161 120.614 320.822 120.73C319.742 121.181 318.533 121.207 317.435 120.805C310.068 118.302 306.801 121.62 306.801 121.62L306.254 123.02C306.254 123.02 311.821 121.249 314.939 123.752C315.404 124.119 315.795 124.572 316.089 125.087C317.098 125.416 318.004 126.002 318.716 126.788C319.428 127.574 319.923 128.533 320.15 129.568C320.378 130.604 320.331 131.681 320.015 132.693C319.698 133.704 319.122 134.616 318.344 135.337C318.006 135.722 317.559 135.996 317.062 136.122C316.565 136.247 316.041 136.22 315.561 136.042C315.111 135.736 314.749 135.317 314.512 134.828C314.361 134.583 314.19 134.35 314.002 134.133L311.905 137.84C311.905 137.84 306.736 145.903 304.881 149.676L280.663 214.119C279.867 216.241 278.656 218.182 277.1 219.831C275.544 221.479 273.675 222.802 271.602 223.721C269.528 224.64 267.293 225.137 265.025 225.183C262.757 225.229 260.503 224.824 258.394 223.99C256.118 223.093 254.062 221.717 252.365 219.957C250.667 218.197 249.368 216.093 248.555 213.788C247.742 211.483 247.435 209.03 247.653 206.596C247.871 204.162 248.61 201.803 249.821 199.679Z" fill="#FFBE9D"/>
<path d="M287.409 137.766C288.652 138.581 290.369 138.025 291.482 137.061C292.596 136.097 293.338 134.772 294.414 133.725C297.541 130.601 302.765 130.305 305.762 127.033C306.18 126.579 306.551 125.884 306.189 125.383C305.827 124.883 305.159 124.975 304.602 125.087L290.211 127.932" fill="#FFBE9D"/>
<path d="M290.211 127.932C290.696 127.713 291.208 127.557 291.733 127.469C292.726 127.218 294.173 126.894 295.955 126.542L302.227 125.216L304.083 124.836C304.798 124.575 305.586 124.602 306.282 124.91C306.48 125.058 306.631 125.26 306.713 125.493C306.796 125.726 306.807 125.978 306.746 126.217C306.65 126.61 306.459 126.973 306.189 127.274C305.704 127.81 305.159 128.289 304.565 128.701C302.171 130.36 299.545 131.037 297.448 132.14C296.448 132.612 295.528 133.237 294.72 133.994C293.978 134.707 293.394 135.523 292.781 136.218C292.341 136.831 291.771 137.341 291.112 137.711C290.453 138.08 289.721 138.302 288.968 138.359C287.863 138.359 287.409 137.812 287.446 137.803C287.929 137.968 288.438 138.047 288.949 138.035C289.633 137.921 290.287 137.668 290.868 137.29C291.45 136.912 291.946 136.417 292.327 135.838C292.921 135.028 293.556 134.248 294.229 133.502C295.07 132.67 296.037 131.975 297.096 131.445C299.258 130.277 301.874 129.591 304.083 128.015C304.615 127.638 305.106 127.206 305.549 126.727C305.957 126.273 306.096 125.726 305.809 125.569C305.521 125.411 304.881 125.485 304.24 125.615L302.385 125.958L296.075 127.116C294.275 127.431 292.818 127.672 291.807 127.821C291.284 127.941 290.746 127.979 290.211 127.932Z" fill="#EB996E"/>
<path d="M306.059 123.038C306.428 122.178 306.993 121.416 307.711 120.814C308.514 120.212 309.491 119.887 310.494 119.887C311.756 119.895 313.009 120.101 314.206 120.499C315.429 120.911 316.691 121.197 317.973 121.351C319.049 121.475 320.138 121.308 321.128 120.869C321.468 120.713 321.767 120.478 322.001 120.185C322.234 119.893 322.396 119.549 322.473 119.183C322.543 118.925 322.543 118.653 322.473 118.395C322.418 118.395 322.418 118.673 322.278 119.136C322.176 119.449 322.007 119.735 321.783 119.975C321.559 120.215 321.284 120.403 320.979 120.527C320.035 120.877 319.019 120.992 318.019 120.86C316.775 120.665 315.551 120.354 314.364 119.933C313.125 119.526 311.827 119.325 310.522 119.34C309.427 119.366 308.372 119.757 307.525 120.452C306.964 120.919 306.532 121.522 306.273 122.204C306.041 122.751 306.022 123.029 306.059 123.038Z" fill="#EB996E"/>
<path d="M306.013 103.12C305.649 103.95 305.357 104.809 305.14 105.688C304.593 107.467 303.943 109.581 303.22 111.916C302.496 114.252 301.781 116.346 301.206 118.117C300.87 118.956 300.613 119.825 300.436 120.712C300.897 119.931 301.277 119.105 301.568 118.246C302.18 116.689 302.96 114.539 303.739 112.083C304.519 109.627 305.122 107.449 305.512 105.79C305.772 104.92 305.94 104.025 306.013 103.12Z" fill="#EB996E"/>
<path d="M308.045 126.912C308.328 126.953 308.615 126.953 308.898 126.912C309.254 126.852 309.619 126.868 309.968 126.961C310.317 127.054 310.642 127.221 310.921 127.45C311.082 127.62 311.197 127.829 311.254 128.056C311.311 128.284 311.308 128.522 311.246 128.748C311.096 129.317 310.875 129.865 310.587 130.379C310.215 131.024 310.093 131.782 310.244 132.511C310.37 132.897 310.586 133.248 310.873 133.536C311.159 133.824 311.51 134.041 311.895 134.17C312.276 134.29 312.677 134.332 313.075 134.292C313.472 134.252 313.857 134.132 314.206 133.938C314.855 133.606 315.389 133.086 315.737 132.446C316.239 131.389 316.583 130.265 316.757 129.109C316.893 128.333 316.893 127.54 316.757 126.764C316.728 126.473 316.615 126.196 316.433 125.967C316.386 125.967 316.507 126.264 316.553 126.792C316.593 127.548 316.527 128.306 316.358 129.044C316.138 130.14 315.777 131.202 315.282 132.205C314.98 132.769 314.499 133.218 313.915 133.481C313.331 133.744 312.677 133.807 312.053 133.66C311.747 133.561 311.469 133.392 311.24 133.167C311.011 132.942 310.839 132.666 310.736 132.362C310.614 131.757 310.717 131.128 311.023 130.592C311.312 130.031 311.53 129.436 311.673 128.822C311.735 128.527 311.721 128.222 311.631 127.935C311.542 127.648 311.381 127.388 311.162 127.181C310.84 126.926 310.462 126.75 310.06 126.666C309.657 126.583 309.24 126.594 308.843 126.699C308.567 126.727 308.297 126.799 308.045 126.912Z" fill="#EB996E"/>
<path d="M314.113 133.4C314.113 133.4 313.937 133.641 313.955 134.16C313.981 134.525 314.092 134.878 314.279 135.191C314.466 135.505 314.724 135.771 315.032 135.968C315.507 136.241 316.046 136.385 316.595 136.385C317.144 136.385 317.683 136.241 318.159 135.968C319.303 135.309 320.148 134.232 320.515 132.965C320.919 131.724 320.919 130.387 320.515 129.146C320.186 128.143 319.593 127.247 318.799 126.551C318.275 126.083 317.667 125.718 317.008 125.476C316.774 125.364 316.516 125.306 316.256 125.309C317.083 125.709 317.851 126.22 318.539 126.829C319.317 127.588 319.867 128.549 320.127 129.604C320.386 130.659 320.344 131.766 320.005 132.798C319.673 133.937 318.929 134.911 317.917 135.532C317.513 135.769 317.055 135.9 316.586 135.913C316.117 135.926 315.653 135.821 315.236 135.606C314.959 135.445 314.72 135.227 314.535 134.967C314.349 134.706 314.221 134.409 314.159 134.096C314.067 133.688 314.159 133.4 314.113 133.4Z" fill="#EB996E"/>
<path d="M302.403 139.221C302.036 138.973 301.603 138.841 301.16 138.841C300.028 138.731 298.891 139.002 297.931 139.61L298.33 139.879C298.455 139.267 298.542 138.648 298.59 138.025C298.914 134.448 297.773 131.686 297.662 131.76C298.019 133.812 298.153 135.898 298.061 137.979C298.016 138.573 297.938 139.164 297.829 139.749L297.718 140.352L298.228 140.009C299.097 139.442 300.113 139.139 301.151 139.138C301.921 139.156 302.385 139.286 302.403 139.221Z" fill="#EB996E"/>
<path d="M309.724 117.236C309.576 117.236 309.78 118.348 310.763 119.201C311.747 120.054 312.851 120.128 312.851 119.97C312.851 119.813 311.97 119.544 311.125 118.793C310.281 118.043 309.873 117.181 309.724 117.236Z" fill="#EB996E"/>
<path d="M199.938 250.878L236.728 251.239L230.558 224.574L232.627 229.607C234.534 234.253 237.782 238.228 241.958 241.026C246.133 243.823 251.047 245.317 256.075 245.317C267.71 245.317 275.755 236.669 280.673 226.14C292.178 201.523 303.266 161.882 303.266 161.882L280.84 142.196C264.602 172.875 249.347 199.512 249.347 199.512C249.347 199.512 244.94 186.138 241.535 174.2C238.129 162.262 238.157 155.997 232.933 150.046C224.889 140.889 213.448 138.618 202.796 135.875L202.397 185.405L199.938 250.878Z" fill="#DA2828"/>
<path d="M157.84 214.036L224.833 227.011L228.09 252.722H125.374C122.562 252.757 119.774 252.205 117.188 251.103C114.602 250.001 112.274 248.372 110.353 246.321C108.432 244.27 106.96 241.841 106.032 239.19C105.104 236.538 104.739 233.723 104.961 230.923C106.436 212.182 108.041 189.104 109.266 179.344C110.194 171.735 113.256 163.866 116.847 157.1C122.034 147.349 139.32 134.856 154.472 134.207L157.339 197.946" fill="#DA2828"/>
<g opacity="0.4">
<path opacity="0.4" d="M199.938 250.878L236.728 251.239L230.558 224.574L232.627 229.607C234.534 234.253 237.782 238.228 241.957 241.026C246.133 243.823 251.047 245.317 256.074 245.317C267.71 245.317 275.755 236.669 280.672 226.14C292.178 201.523 303.266 161.882 303.266 161.882L280.839 142.196C264.602 172.875 249.347 199.512 249.347 199.512C249.347 199.512 244.94 186.138 241.535 174.2C238.129 162.262 238.157 155.997 232.933 150.046C224.889 140.889 213.448 138.618 202.796 135.875L202.397 185.405L199.938 250.878Z" fill="black"/>
<path opacity="0.4" d="M157.84 214.036L218.264 225.102C219.495 225.33 220.631 225.917 221.528 226.79C222.424 227.663 223.042 228.782 223.302 230.005L228.09 252.778H125.374C122.562 252.812 119.774 252.261 117.188 251.159C114.602 250.057 112.274 248.428 110.353 246.377C108.432 244.325 106.96 241.896 106.032 239.245C105.104 236.594 104.739 233.778 104.961 230.978C106.436 212.238 108.041 189.159 109.266 179.4C110.194 171.79 113.256 163.921 116.847 157.155C122.034 147.405 139.32 134.911 154.472 134.262L157.339 198.001" fill="black"/>
</g>
<path d="M145.082 212.126C145.058 211.923 145.058 211.718 145.082 211.515C145.082 211.061 145.082 210.477 145.082 209.763C145.082 208.178 145.082 205.991 145.082 203.275C145.082 197.834 144.98 190.299 144.563 182.023C144.349 177.87 144.08 173.922 143.792 170.344C143.658 167.169 143.207 164.014 142.447 160.928C141.916 158.867 140.905 156.962 139.496 155.367C138.951 154.81 138.375 154.284 137.771 153.791C138.479 154.155 139.122 154.634 139.673 155.209C141.175 156.793 142.256 158.727 142.818 160.835C143.628 163.946 144.114 167.133 144.266 170.344C144.581 173.931 144.859 177.88 145.073 182.032C145.5 190.373 145.546 197.872 145.453 203.349C145.398 206.074 145.323 208.28 145.258 209.837L145.156 211.589C145.153 211.77 145.128 211.951 145.082 212.126Z" fill="#263238"/>
<path d="M223.534 228.865C222.827 228.085 222.004 227.419 221.094 226.891C220.011 226.302 218.862 225.844 217.67 225.528C216.287 225.13 214.664 224.824 212.873 224.463C205.71 222.998 195.828 220.968 184.879 218.902C173.93 216.835 163.965 215.194 156.755 214.045L148.209 212.682L145.89 212.293C145.616 212.26 145.346 212.204 145.082 212.126C145.356 212.128 145.629 212.152 145.899 212.2L148.237 212.497C150.26 212.766 153.192 213.174 156.801 213.711C164.029 214.786 174.004 216.381 184.962 218.429C195.92 220.477 205.802 222.553 212.938 224.092C214.728 224.481 216.352 224.815 217.744 225.241C218.949 225.582 220.106 226.074 221.186 226.706C221.881 227.097 222.507 227.598 223.042 228.189C223.185 228.335 223.315 228.493 223.432 228.661C223.497 228.772 223.543 228.865 223.534 228.865Z" fill="#263238"/>
<path d="M145.286 212.126C145.286 212.21 144.052 212.497 142.141 213.276C141.025 213.736 139.94 214.269 138.893 214.87C137.627 215.624 136.421 216.473 135.284 217.409C134.178 218.367 133.148 219.408 132.203 220.524C131.426 221.443 130.713 222.416 130.069 223.434C128.974 225.186 128.473 226.372 128.39 226.335C128.447 226.036 128.544 225.746 128.677 225.473C128.993 224.711 129.359 223.971 129.772 223.258C130.392 222.2 131.09 221.19 131.86 220.236C133.765 217.902 136.094 215.949 138.726 214.481C139.792 213.88 140.906 213.368 142.057 212.951C142.831 212.663 143.625 212.43 144.433 212.256C144.71 212.173 144.997 212.129 145.286 212.126Z" fill="#263238"/>
<path d="M231.792 228.142C231.728 227.933 231.681 227.719 231.653 227.503C231.579 227.039 231.476 226.428 231.356 225.649C231.096 224.046 230.753 221.728 230.363 218.855C229.584 213.118 228.637 205.166 227.839 196.361C227.041 187.556 226.568 179.566 226.308 173.774C226.178 170.882 226.104 168.537 226.067 166.915C226.067 166.143 226.067 165.525 226.067 165.061C226.047 164.846 226.047 164.628 226.067 164.413C226.117 164.625 226.142 164.843 226.141 165.061L226.262 166.915C226.364 168.583 226.494 170.91 226.661 173.755C227.004 179.539 227.542 187.519 228.331 196.314C229.12 205.11 230.02 213.062 230.716 218.809C231.059 221.645 231.347 223.953 231.551 225.621C231.634 226.39 231.708 227.002 231.764 227.475C231.802 227.695 231.811 227.92 231.792 228.142Z" fill="#263238"/>
<path d="M254.005 218.179C254.005 218.179 253.792 217.975 253.467 217.567C253.017 216.975 252.605 216.356 252.233 215.713C249.743 211.468 248.595 206.571 248.939 201.662C248.986 200.924 249.085 200.19 249.236 199.466C249.269 199.195 249.338 198.93 249.44 198.678C249.524 198.678 249.347 199.827 249.282 201.681C249.127 206.519 250.247 211.313 252.53 215.584C253.402 217.187 254.08 218.123 254.005 218.179Z" fill="#263238"/>
<path d="M144.813 177.685C144.813 177.685 144.692 177.731 144.47 177.759C144.135 177.813 143.797 177.847 143.458 177.861C142.214 177.913 140.967 177.814 139.747 177.564C137.934 177.2 136.165 176.647 134.467 175.915C132.547 175.118 130.505 174.061 128.371 173.032C126.373 172.03 124.305 171.175 122.182 170.474C120.46 169.896 118.669 169.544 116.856 169.427C115.177 169.372 113.498 169.563 111.874 169.992C111.973 169.926 112.083 169.876 112.198 169.844C112.499 169.712 112.809 169.604 113.126 169.519C114.336 169.196 115.586 169.052 116.838 169.093C118.69 169.151 120.526 169.463 122.294 170.02C124.444 170.711 126.535 171.573 128.547 172.597C130.691 173.653 132.714 174.691 134.606 175.498C136.273 176.237 138.007 176.814 139.784 177.221C141.438 177.559 143.125 177.715 144.813 177.685Z" fill="#FAFAFA"/>
<path d="M156.328 175.433C154.546 175.975 152.72 176.365 150.872 176.601C149.041 176.999 147.178 177.232 145.305 177.296C147.087 176.754 148.913 176.363 150.761 176.128C152.592 175.729 154.455 175.496 156.328 175.433Z" fill="#FAFAFA"/>
<path d="M144.396 195.323C143.969 195.563 143.518 195.759 143.05 195.907C142.169 196.25 140.879 196.713 139.274 197.232C135.076 198.577 130.792 199.636 126.45 200.402C123.908 200.847 121.468 201.171 119.241 201.394C117.266 201.648 115.27 201.701 113.284 201.551C111.937 201.442 110.625 201.067 109.424 200.448C109.098 200.279 108.787 200.08 108.496 199.855C108.389 199.782 108.292 199.694 108.208 199.596C108.208 199.596 108.654 199.883 109.498 200.281C110.701 200.824 111.994 201.138 113.312 201.208C115.273 201.31 117.24 201.223 119.185 200.949C121.403 200.698 123.825 200.365 126.358 199.92C130.679 199.154 134.954 198.149 139.162 196.908C140.777 196.426 142.076 195.981 142.976 195.731C143.438 195.56 143.913 195.423 144.396 195.323Z" fill="#FAFAFA"/>
<path d="M156.022 200.207C154.35 200.472 152.657 200.581 150.965 200.532C149.278 200.638 147.585 200.585 145.908 200.374C147.58 200.109 149.273 200 150.965 200.05C152.652 199.943 154.345 199.996 156.022 200.207Z" fill="#FAFAFA"/>
<path d="M108.273 242.434C108.284 242.263 108.319 242.095 108.376 241.934C108.468 241.563 108.598 241.109 108.747 240.543L109.025 239.542C109.146 239.181 109.303 238.801 109.452 238.384C109.785 237.437 110.17 236.509 110.602 235.603L111.354 234.018C111.623 233.462 111.966 232.925 112.282 232.35C112.982 231.135 113.744 229.956 114.564 228.819C118.355 223.584 123.298 219.288 129.011 216.26C130.254 215.604 131.53 215.013 132.834 214.49C133.456 214.258 134.031 213.989 134.616 213.804L136.295 213.276C137.257 212.969 138.236 212.719 139.227 212.525C139.663 212.432 140.062 212.33 140.434 212.265L141.473 212.126L142.902 211.95C143.068 211.926 143.237 211.926 143.403 211.95C143.244 212.011 143.079 212.051 142.911 212.071L141.501 212.34L140.48 212.516L139.283 212.812C138.429 213.044 137.427 213.239 136.397 213.628L134.746 214.184C134.17 214.379 133.595 214.647 132.992 214.888C131.707 215.421 130.45 216.018 129.225 216.677C126.435 218.219 123.808 220.038 121.384 222.108C118.991 224.218 116.815 226.563 114.889 229.106C114.054 230.311 113.228 231.442 112.597 232.582C112.273 233.147 111.929 233.675 111.669 234.222L110.89 235.779C110.361 236.762 110.036 237.707 109.684 238.56C109.526 238.968 109.359 239.348 109.229 239.7L108.904 240.682L108.45 242.045C108.405 242.181 108.346 242.311 108.273 242.434Z" fill="#FAFAFA"/>
<path d="M154.806 213.962C153.254 215.308 151.965 216.93 151.002 218.744C149.99 220.728 149.271 222.848 148.868 225.037C148.388 227.731 148.078 230.452 147.94 233.184C147.824 235.937 147.514 238.678 147.012 241.387C146.558 243.607 145.773 245.747 144.683 247.736C143.956 249.068 143.015 250.274 141.9 251.304C141.596 251.586 141.27 251.843 140.925 252.073C140.693 252.231 140.563 252.314 140.554 252.296C142.134 250.979 143.45 249.375 144.433 247.569C145.461 245.597 146.198 243.486 146.622 241.303C147.116 238.612 147.426 235.89 147.55 233.156C147.671 230.401 147.981 227.657 148.478 224.945C148.91 222.724 149.673 220.581 150.742 218.586C151.472 217.241 152.411 216.021 153.526 214.972C153.818 214.692 154.128 214.432 154.454 214.193C154.561 214.101 154.679 214.023 154.806 213.962Z" fill="#FAFAFA"/>
<path d="M170.645 252.88C170.515 252.88 170.645 244.89 170.988 235.047C171.332 225.204 171.684 217.224 171.814 217.224C171.944 217.224 171.814 225.213 171.471 235.066C171.128 244.918 170.775 252.889 170.645 252.88Z" fill="#FAFAFA"/>
<path d="M195.828 251.508C195.653 251.136 195.516 250.748 195.419 250.349C195.269 249.893 195.142 249.429 195.039 248.959C194.918 248.412 194.751 247.791 194.649 247.105C194.361 245.47 194.196 243.816 194.157 242.156C194.066 238.077 194.694 234.015 196.013 230.154C196.551 228.581 197.205 227.05 197.971 225.575C198.277 224.935 198.62 224.398 198.899 223.916C199.135 223.496 199.395 223.091 199.678 222.702C199.885 222.348 200.131 222.018 200.411 221.719C200.495 221.766 199.483 223.202 198.268 225.732C197.547 227.209 196.927 228.732 196.412 230.293C195.141 234.114 194.514 238.12 194.556 242.147C194.577 243.788 194.704 245.425 194.937 247.05C195.401 249.812 195.92 251.48 195.828 251.508Z" fill="#FAFAFA"/>
<path d="M153.062 149.073C153.062 149.147 151.596 148.508 149.183 147.729C142.9 145.703 136.24 145.114 129.698 146.005C127.193 146.348 125.662 146.738 125.643 146.654C125.976 146.494 126.329 146.379 126.692 146.311C127.663 146.043 128.648 145.83 129.642 145.672C136.234 144.578 142.997 145.174 149.295 147.405C150.241 147.738 151.17 148.119 152.078 148.545C152.427 148.68 152.757 148.857 153.062 149.073Z" fill="#FAFAFA"/>
<path d="M226.364 188.084C225.216 188.144 224.066 188.125 222.921 188.028C220.797 187.945 217.865 187.834 214.626 187.76C211.388 187.686 208.456 187.639 206.331 187.621C205.182 187.657 204.032 187.617 202.889 187.5C203.193 187.428 203.504 187.391 203.817 187.389C204.41 187.389 205.273 187.306 206.34 187.278C208.465 187.213 211.397 187.194 214.645 187.278C217.892 187.361 220.824 187.528 222.996 187.704C224.053 187.788 224.907 187.862 225.501 187.936C225.793 187.954 226.082 188.004 226.364 188.084Z" fill="#FAFAFA"/>
<path d="M244.68 184.571C244.68 184.655 243.52 185.053 241.711 185.943C236.978 188.269 232.968 191.838 230.113 196.268C229.018 197.964 228.489 199.095 228.415 199.049C228.466 198.756 228.567 198.474 228.711 198.214C229.037 197.478 229.408 196.763 229.825 196.073C231.186 193.782 232.895 191.715 234.891 189.947C236.882 188.174 239.131 186.714 241.562 185.619C242.296 185.289 243.049 185.004 243.817 184.766C244.095 184.664 244.385 184.598 244.68 184.571Z" fill="#FAFAFA"/>
<path d="M235.643 154.866C234.045 154.811 232.45 155.034 230.929 155.524C229.287 156.097 227.695 156.804 226.169 157.637C224.285 158.68 222.318 159.564 220.286 160.279C216.532 161.48 212.538 161.738 208.66 161.03C207.495 160.818 206.349 160.508 205.236 160.103C204.82 159.972 204.419 159.798 204.039 159.584C204.039 159.491 205.784 160.223 208.679 160.696C212.503 161.292 216.414 160.991 220.101 159.815C222.109 159.106 224.06 158.244 225.937 157.239C227.49 156.415 229.114 155.733 230.79 155.2C231.929 154.838 233.121 154.666 234.316 154.69C234.627 154.699 234.937 154.73 235.244 154.783C235.531 154.82 235.652 154.847 235.643 154.866Z" fill="#FAFAFA"/>
<path d="M231.013 216.983C230.676 217.197 230.315 217.368 229.936 217.493C229.584 217.641 229.148 217.817 228.628 217.984C228.108 218.151 227.524 218.373 226.865 218.54C225.311 218.973 223.731 219.301 222.133 219.523C220.177 219.776 218.204 219.878 216.232 219.828C214.26 219.755 212.297 219.535 210.358 219.17C208.785 218.853 207.235 218.429 205.719 217.901C205.06 217.697 204.494 217.446 203.993 217.243C203.492 217.039 203.065 216.844 202.713 216.677C202.343 216.524 201.992 216.331 201.664 216.103C201.664 216.019 203.232 216.761 205.83 217.576C207.352 218.054 208.901 218.438 210.47 218.726C214.307 219.435 218.231 219.554 222.105 219.078C223.687 218.883 225.254 218.592 226.8 218.206C229.417 217.539 230.985 216.9 231.013 216.983Z" fill="#FAFAFA"/>
<path d="M252.335 244.418C252.203 244.334 252.081 244.234 251.973 244.121C251.76 243.908 251.407 243.621 251.045 243.194C249.925 241.997 248.942 240.679 248.113 239.264C245.436 234.525 244.011 229.182 243.975 223.74C243.981 218.336 244.689 212.955 246.081 207.733C246.582 205.731 247.009 204.118 247.353 203.016C247.51 202.506 247.64 202.089 247.742 201.746C247.844 201.403 247.891 201.301 247.909 201.31C247.907 201.464 247.882 201.617 247.835 201.764C247.761 202.117 247.659 202.543 247.538 203.062C247.26 204.258 246.879 205.842 246.415 207.817C245.135 213.022 244.484 218.361 244.476 223.721C244.506 229.076 245.847 234.342 248.383 239.06C249.177 240.474 250.11 241.806 251.166 243.037C251.899 243.926 252.363 244.381 252.335 244.418Z" fill="#FAFAFA"/>
<path d="M286.1 212.942C284.618 211.767 282.962 210.829 281.192 210.161C279.256 209.492 277.27 208.975 275.254 208.614C272.749 208.192 270.27 207.625 267.831 206.918C263.425 205.487 259.405 203.071 256.074 199.855C255.07 198.885 254.139 197.841 253.291 196.732C252.985 196.342 252.781 196.018 252.632 195.805C252.484 195.591 252.419 195.471 252.437 195.462C252.796 195.823 253.131 196.207 253.439 196.611C254.33 197.669 255.287 198.669 256.306 199.605C259.651 202.705 263.631 205.042 267.97 206.454C270.384 207.158 272.834 207.733 275.309 208.178C277.343 208.568 279.341 209.123 281.285 209.837C282.598 210.333 283.829 211.02 284.941 211.876C285.244 212.104 285.53 212.355 285.794 212.627C286.026 212.831 286.119 212.933 286.1 212.942Z" fill="#FAFAFA"/>
<path d="M296.715 182.013C296.358 181.758 296.025 181.469 295.723 181.151C295.416 180.864 295.045 180.512 294.581 180.123C294.117 179.733 293.653 179.27 293.023 178.825C291.652 177.721 290.214 176.702 288.717 175.776C285.046 173.507 281.055 171.802 276.877 170.715C275.17 170.276 273.438 169.939 271.691 169.705C270.948 169.584 270.271 169.538 269.677 169.482C269.083 169.427 268.564 169.38 268.146 169.362C267.707 169.36 267.27 169.32 266.838 169.241C267.271 169.175 267.709 169.153 268.146 169.176C268.662 169.151 269.18 169.151 269.696 169.176C270.29 169.176 270.985 169.223 271.737 169.325C273.503 169.518 275.254 169.827 276.98 170.252C279.093 170.793 281.165 171.487 283.178 172.328C285.174 173.197 287.103 174.213 288.949 175.368C290.45 176.324 291.885 177.38 293.245 178.528C293.839 179.001 294.322 179.455 294.767 179.9C295.148 180.246 295.51 180.611 295.853 180.994C296.176 181.302 296.465 181.644 296.715 182.013Z" fill="#FAFAFA"/>
<path d="M215.526 139.471C214.982 139.834 214.388 140.118 213.763 140.315C212.3 140.888 210.795 141.353 209.263 141.705C207.737 142.064 206.186 142.312 204.624 142.446C203.978 142.544 203.321 142.544 202.675 142.446C202.675 142.298 205.617 142.057 209.17 141.214C212.724 140.37 215.471 139.332 215.526 139.471Z" fill="#FAFAFA"/>
<path d="M248.438 270.008C248.559 270.421 248.574 270.858 248.481 271.279C248.389 271.7 248.193 272.091 247.911 272.416C247.628 272.742 247.269 272.991 246.865 273.142C246.461 273.293 246.026 273.34 245.599 273.279C245.104 273.209 244.64 272.997 244.264 272.667C243.889 272.338 243.617 271.907 243.483 271.426L242.695 268.515H242.815C242.896 268.936 242.875 269.369 242.754 269.78C242.634 270.19 242.418 270.566 242.123 270.877C241.828 271.188 241.464 271.424 241.06 271.566C240.656 271.708 240.224 271.752 239.8 271.695C238.584 271.695 237.536 269.924 237.183 268.988C236.265 269.077 235.341 268.913 234.51 268.515C233.679 268.116 232.973 267.498 232.469 266.727L227.023 258.237L216.937 250.868L223.042 229.097L244.745 243.129C245.599 243.797 245.729 244.056 247.083 245.326L261.094 258.2C259.508 259.127 258.162 259.08 255.954 258.2C253.745 257.319 244.077 250.785 244.077 250.785L248.438 269.924" fill="#FFBE9D"/>
<path d="M229.871 252.101C229.871 252.101 230.122 252.212 230.512 252.481L231.235 252.982C231.579 253.197 231.892 253.459 232.163 253.76C232.485 254.129 232.736 254.553 232.906 255.011C233.073 255.503 233.249 256.003 233.434 256.531L234.622 260.016C235.448 262.5 236.172 264.743 236.673 266.384C236.99 267.254 237.229 268.15 237.387 269.062C236.966 268.235 236.618 267.373 236.348 266.486C235.763 264.873 234.984 262.649 234.158 260.174C233.759 258.941 233.369 257.764 233.008 256.68C232.841 256.142 232.683 255.632 232.525 255.15C232.386 254.726 232.176 254.328 231.903 253.973C231.669 253.684 231.401 253.423 231.105 253.195L230.437 252.629C230.038 252.314 229.853 252.129 229.871 252.101Z" fill="#EB996E"/>
<path d="M242.926 269.016C242.788 268.72 242.685 268.409 242.62 268.089L241.924 265.605C241.33 263.511 240.542 260.609 239.53 257.449C238.519 254.288 237.461 251.471 236.19 249.728C235.716 249.032 235.115 248.432 234.418 247.958C233.907 247.643 233.583 247.55 233.592 247.495C233.678 247.493 233.763 247.508 233.843 247.541C234.074 247.6 234.298 247.684 234.511 247.791C235.281 248.221 235.949 248.812 236.468 249.524C237.851 251.285 238.964 254.159 239.985 257.301C241.006 260.443 241.748 263.399 242.249 265.522C242.5 266.578 242.685 267.44 242.806 268.043C242.895 268.359 242.936 268.687 242.926 269.016Z" fill="#EB996E"/>
<path d="M248.531 270.332C248.363 270.025 248.236 269.698 248.15 269.359C247.918 268.617 247.631 267.718 247.288 266.653C246.582 264.363 245.645 261.193 244.634 257.69C243.622 254.187 242.778 251.109 242.082 248.7C241.842 247.806 241.322 247.014 240.598 246.438C240.304 246.249 239.993 246.088 239.67 245.956C239.761 245.934 239.857 245.934 239.948 245.956C240.208 246.015 240.456 246.118 240.681 246.262C241.491 246.818 242.09 247.631 242.379 248.57C243.14 250.859 244.04 254.029 245.07 257.532C246.1 261.036 246.972 264.233 247.594 266.541C247.872 267.616 248.113 268.534 248.299 269.322C248.411 269.65 248.489 269.988 248.531 270.332Z" fill="#EB996E"/>
<path d="M380.382 69.3463C380.382 69.9879 380.572 70.6151 380.929 71.1486C381.286 71.682 381.793 72.0978 382.387 72.3433C382.98 72.5888 383.633 72.6531 384.263 72.5279C384.893 72.4028 385.472 72.0938 385.926 71.6401C386.38 71.1864 386.689 70.6084 386.815 69.9792C386.94 69.3499 386.876 68.6977 386.63 68.1049C386.384 67.5121 385.968 67.0055 385.434 66.6491C384.9 66.2926 384.272 66.1024 383.629 66.1024C382.768 66.1024 381.942 66.4441 381.333 67.0525C380.724 67.6608 380.382 68.486 380.382 69.3463Z" fill="#455A64"/>
<path d="M370.63 72.5903C372.423 72.5903 373.877 71.1379 373.877 69.3463C373.877 67.5547 372.423 66.1024 370.63 66.1024C368.836 66.1024 367.382 67.5547 367.382 69.3463C367.382 71.1379 368.836 72.5903 370.63 72.5903Z" fill="#455A64"/>
<path d="M354.42 67.7243C354.098 68.2799 353.949 68.9182 353.991 69.5585C354.033 70.1988 354.264 70.8124 354.655 71.3216C355.046 71.8307 355.579 72.2127 356.187 72.4191C356.795 72.6255 357.451 72.647 358.072 72.4811C358.692 72.3151 359.25 71.969 359.673 71.4866C360.097 71.0042 360.368 70.4072 360.451 69.771C360.535 69.1348 360.428 68.4881 360.144 67.9126C359.86 67.3371 359.411 66.8588 358.855 66.538C358.486 66.3239 358.079 66.1847 357.656 66.1284C357.233 66.0722 356.803 66.1 356.391 66.2102C355.978 66.3205 355.592 66.511 355.254 66.7708C354.916 67.0307 354.632 67.3547 354.42 67.7243Z" fill="#455A64"/>
<path d="M370.426 31.4477C370.21 31.4314 369.992 31.4314 369.776 31.4477L367.846 31.5033C367.419 31.5033 366.918 31.5033 366.417 31.5681L364.719 31.8091L362.734 32.0964L360.507 32.6433C356.692 33.5892 353.059 35.1548 349.753 37.2775C344.863 40.3878 340.749 44.5734 337.725 49.5145C334.702 54.4556 332.849 60.0215 332.309 65.7872C332.163 67.5164 332.129 69.2532 332.207 70.9868C332.272 71.858 332.253 72.757 332.383 73.6375C332.513 74.518 332.652 75.4171 332.782 76.3161C333.462 79.9996 334.681 83.563 336.401 86.8914C338.232 90.3787 340.56 93.5819 343.313 96.4008C346.246 99.2817 349.608 101.692 353.279 103.547C357.077 105.488 361.189 106.743 365.425 107.254C366.497 107.414 367.579 107.504 368.663 107.523C369.753 107.605 370.846 107.627 371.938 107.588C374.141 107.497 376.332 107.221 378.489 106.763C383.144 105.755 387.571 103.892 391.544 101.267L391.154 101.313L404.451 106.642L405.24 106.958L405.017 106.142L401.101 91.9427L401.036 92.2856C404.646 87.5113 407.077 81.9545 408.135 76.0659C408.644 73.3164 408.818 70.5156 408.654 67.7243C408.623 66.3854 408.495 65.0504 408.274 63.7296C408.175 63.0746 408.073 62.4258 407.968 61.7832C407.856 61.1437 407.661 60.5227 407.504 59.9295C405.276 51.1975 400.014 43.5403 392.658 38.3248C389.943 36.3836 386.974 34.8242 383.834 33.6906L381.839 32.9769L379.983 32.495L378.257 32.0686C377.7 31.9667 377.162 31.9111 376.661 31.8277C375.659 31.7072 374.805 31.5311 373.998 31.494L372.05 31.4291H370.853C370.717 31.4191 370.58 31.4191 370.444 31.4291C370.576 31.4711 370.714 31.4899 370.853 31.4847L372.04 31.5867L373.98 31.7164C374.75 31.772 375.622 31.9667 376.624 32.115C383.842 33.3676 390.54 36.6863 395.907 41.6681C401.273 46.65 405.076 53.0807 406.854 60.1798C406.993 60.7915 407.188 61.4032 407.299 62.0335C407.411 62.6637 407.485 63.294 407.587 63.9428C407.799 65.2394 407.917 66.5496 407.94 67.8633C408.086 70.5907 407.905 73.3257 407.402 76.0103C406.324 81.7698 403.912 87.1975 400.359 91.8593L400.238 92.0168L400.294 92.2115C401.531 96.7962 402.824 101.532 404.173 106.42L404.739 105.919L391.442 100.572L391.238 100.488L391.043 100.609C385.34 104.383 378.709 106.518 371.873 106.781C370.806 106.819 369.737 106.8 368.672 106.726C367.613 106.707 366.556 106.617 365.508 106.457C361.366 105.956 357.346 104.73 353.631 102.833C350.04 101.018 346.748 98.6644 343.87 95.854C341.171 93.1073 338.883 89.9856 337.078 86.5855C335.403 83.3187 334.215 79.8246 333.552 76.2142C333.413 75.2873 333.274 74.4624 333.144 73.5912C333.014 72.72 333.032 71.8487 332.967 70.9868C332.88 69.2878 332.905 67.5849 333.042 65.8891C333.547 60.2139 335.34 54.7282 338.283 49.848C341.227 44.9677 345.244 40.821 350.031 37.7224C353.28 35.5755 356.855 33.9668 360.618 32.9584L362.808 32.3745L364.775 32.0501L366.464 31.772C366.983 31.7164 367.457 31.6979 367.874 31.6701L369.795 31.5311C370.007 31.5254 370.219 31.4975 370.426 31.4477Z" fill="#455A64"/>
</g>
<defs>
<clipPath id="clip0_1868_9281">
<rect width="644" height="337" fill="white"/>
</clipPath>
</defs>
</svg>
