<svg width="1280" height="357" viewBox="0 0 1280 357" fill="none" xmlns="http://www.w3.org/2000/svg">
<g opacity="0.2">
<mask id="mask0_1868_9231" style="mask-type:alpha" maskUnits="userSpaceOnUse" x="0" y="0" width="1280" height="357">
<rect width="1280" height="357" fill="#C4C4C4"/>
</mask>
<g mask="url(#mask0_1868_9231)">
<path d="M1071.76 100.605C1072.47 100.386 1073.22 100.309 1073.96 100.38C1074.67 100.35 1075.39 100.408 1076.09 100.553L1076.04 100.605C1076.04 100.561 1076.04 100.536 1076.09 100.536C1076.14 100.536 1076.09 100.536 1076.15 100.605C1075.45 100.754 1074.73 100.812 1074.02 100.778C1073.26 100.879 1072.49 100.82 1071.76 100.605Z" fill="#E0E0E0"/>
<path d="M1063.11 100.605C1064.53 100.305 1066.01 100.305 1067.43 100.605C1066.01 100.905 1064.53 100.905 1063.11 100.605Z" fill="#E0E0E0"/>
<path d="M1054.45 100.605C1055.88 100.305 1057.35 100.305 1058.78 100.605C1057.35 100.905 1055.88 100.905 1054.45 100.605Z" fill="#E0E0E0"/>
<path d="M1045.8 100.605C1047.22 100.305 1048.7 100.305 1050.13 100.605C1049.43 100.829 1048.69 100.906 1047.96 100.83C1047.23 100.906 1046.5 100.829 1045.8 100.605Z" fill="#E0E0E0"/>
<path d="M1037.14 100.605C1037.84 100.385 1038.58 100.309 1039.31 100.38C1040.04 100.309 1040.77 100.385 1041.47 100.605C1040.77 100.829 1040.04 100.906 1039.31 100.83C1038.58 100.906 1037.84 100.829 1037.14 100.605Z" fill="#E0E0E0"/>
<path d="M1028.49 100.605C1029.19 100.385 1029.92 100.309 1030.65 100.38C1031.38 100.309 1032.12 100.385 1032.82 100.605C1032.12 100.829 1031.38 100.906 1030.65 100.83C1029.92 100.906 1029.19 100.829 1028.49 100.605Z" fill="#E0E0E0"/>
<path d="M1022.56 97.8959C1022.78 98.5947 1022.86 99.3305 1022.79 100.06C1022.79 100.241 1022.79 100.423 1022.79 100.613L1022.57 100.397C1023.49 100.397 1024.17 100.51 1024.17 100.613C1024.17 100.717 1023.49 100.804 1022.57 100.83C1022.54 100.832 1022.51 100.829 1022.49 100.82C1022.46 100.811 1022.44 100.797 1022.42 100.778C1022.4 100.759 1022.38 100.736 1022.37 100.711C1022.36 100.686 1022.35 100.658 1022.35 100.631V100.077C1022.27 99.3433 1022.34 98.6004 1022.56 97.8959Z" fill="#E0E0E0"/>
<path d="M1022.56 89.2412C1022.78 89.94 1022.86 90.6759 1022.79 91.4049C1022.86 92.1339 1022.78 92.8697 1022.56 93.5685C1022.34 92.8707 1022.26 92.1339 1022.34 91.4049C1022.26 90.6758 1022.34 89.939 1022.56 89.2412Z" fill="#E0E0E0"/>
<path d="M1022.56 80.5867C1022.78 81.2855 1022.86 82.0213 1022.79 82.7503C1022.86 83.4793 1022.78 84.2151 1022.56 84.914C1022.34 84.2161 1022.26 83.4793 1022.34 82.7503C1022.26 82.0213 1022.34 81.2845 1022.56 80.5867Z" fill="#E0E0E0"/>
<path d="M1022.56 71.932C1022.78 72.6308 1022.86 73.3667 1022.79 74.0957C1022.86 74.8247 1022.78 75.5605 1022.56 76.2593C1022.34 75.5615 1022.26 74.8247 1022.34 74.0957C1022.26 73.3666 1022.34 72.6298 1022.56 71.932Z" fill="#E0E0E0"/>
<path d="M1022.56 63.2775C1022.78 63.9763 1022.86 64.7121 1022.79 65.4411C1022.86 66.1701 1022.78 66.9059 1022.56 67.6048C1022.34 66.9069 1022.26 66.1701 1022.34 65.4411C1022.26 64.7121 1022.34 63.9753 1022.56 63.2775Z" fill="#E0E0E0"/>
<path d="M1022.56 54.6228C1022.78 55.3216 1022.86 56.0574 1022.79 56.7865C1022.86 57.5155 1022.78 58.2513 1022.56 58.9501C1022.34 58.2523 1022.26 57.5155 1022.34 56.7865C1022.26 56.0574 1022.34 55.3206 1022.56 54.6228Z" fill="#E0E0E0"/>
<path d="M1031.18 54.5882C1030.48 54.8075 1029.75 54.884 1029.02 54.8132C1028.29 54.884 1027.55 54.8075 1026.85 54.5882C1027.55 54.3688 1028.29 54.2923 1029.02 54.3631C1029.75 54.2923 1030.48 54.3688 1031.18 54.5882Z" fill="#E0E0E0"/>
<path d="M1039.83 54.5882C1039.14 54.8075 1038.4 54.884 1037.67 54.8132C1036.94 54.884 1036.21 54.8075 1035.51 54.5882C1036.21 54.3688 1036.94 54.2923 1037.67 54.3631C1038.4 54.2923 1039.14 54.3688 1039.83 54.5882Z" fill="#E0E0E0"/>
<path d="M1048.49 54.5882C1047.06 54.8882 1045.59 54.8882 1044.16 54.5882C1045.59 54.2882 1047.06 54.2882 1048.49 54.5882Z" fill="#E0E0E0"/>
<path d="M1057.14 54.5882C1055.72 54.8882 1054.24 54.8882 1052.82 54.5882C1054.24 54.2882 1055.72 54.2882 1057.14 54.5882Z" fill="#E0E0E0"/>
<path d="M1065.8 54.5882C1064.37 54.8882 1062.9 54.8882 1061.47 54.5882C1062.9 54.2882 1064.37 54.2882 1065.8 54.5882Z" fill="#E0E0E0"/>
<path d="M1074.45 54.5882C1073.03 54.8882 1071.55 54.8882 1070.13 54.5882C1071.55 54.2882 1073.03 54.2882 1074.45 54.5882Z" fill="#E0E0E0"/>
<path d="M1076.09 61.5984C1075.87 60.8996 1075.79 60.1638 1075.86 59.4348C1075.79 58.7058 1075.87 57.9699 1076.09 57.2711C1076.31 57.9689 1076.39 58.7058 1076.31 59.4348C1076.39 60.1638 1076.31 60.9006 1076.09 61.5984Z" fill="#E0E0E0"/>
<path d="M1076.09 70.2531C1075.87 69.5543 1075.79 68.8184 1075.86 68.0894C1075.79 67.3604 1075.87 66.6246 1076.09 65.9258C1076.31 66.6236 1076.39 67.3604 1076.31 68.0894C1076.39 68.8184 1076.31 69.5553 1076.09 70.2531Z" fill="#E0E0E0"/>
<path d="M1076.09 78.9076C1075.87 78.2088 1075.79 77.473 1075.86 76.744C1075.79 76.015 1075.87 75.2792 1076.09 74.5803C1076.31 75.2782 1076.39 76.015 1076.31 76.744C1076.39 77.473 1076.31 78.2098 1076.09 78.9076Z" fill="#E0E0E0"/>
<path d="M1076.09 87.5623C1075.87 86.8635 1075.79 86.1277 1075.86 85.3986C1075.79 84.6696 1075.87 83.9338 1076.09 83.235C1076.31 83.9328 1076.39 84.6696 1076.31 85.3986C1076.39 86.1277 1076.31 86.8645 1076.09 87.5623Z" fill="#E0E0E0"/>
<path d="M1076.09 96.2168C1075.87 95.518 1075.79 94.7822 1075.86 94.0532C1075.79 93.3242 1075.87 92.5884 1076.09 91.8895C1076.31 92.5874 1076.39 93.3242 1076.31 94.0532C1076.39 94.7822 1076.31 95.519 1076.09 96.2168Z" fill="#E0E0E0"/>
<path d="M1078.8 57.3317H1073.39V51.8879H1078.8V57.3317ZM1074.25 56.4662H1077.93V52.7534H1074.25V56.4662Z" fill="#E0E0E0"/>
<path d="M1025.26 57.3317H1019.86V51.8879H1025.26V57.3317ZM1020.73 56.4662H1024.4V52.7534H1020.73V56.4662Z" fill="#E0E0E0"/>
<path d="M1025.26 103.72H1019.86V98.3199H1025.26V103.72ZM1020.73 102.855H1024.4V99.1854H1020.73V102.855Z" fill="#E0E0E0"/>
<path d="M1078.73 103.72H1073.33V98.3199H1078.73V103.72ZM1074.19 102.855H1077.86V99.1854H1074.19V102.855Z" fill="#E0E0E0"/>
<path d="M1276.53 191.98C1277.96 191.68 1279.43 191.68 1280.86 191.98C1279.43 192.28 1277.96 192.28 1276.53 191.98Z" fill="#E6E6E6"/>
<path d="M1267.88 191.98C1269.3 191.68 1270.78 191.68 1272.2 191.98C1270.78 192.28 1269.3 192.28 1267.88 191.98Z" fill="#E6E6E6"/>
<path d="M1263.23 187.956C1263.45 188.654 1263.53 189.39 1263.45 190.119C1263.46 190.742 1263.43 191.364 1263.34 191.98L1263.23 191.868C1263.43 191.868 1263.53 191.946 1263.53 191.98C1263.53 192.015 1263.43 192.067 1263.23 192.093C1263.22 192.095 1263.2 192.095 1263.19 192.093C1263.18 192.091 1263.17 192.087 1263.16 192.08C1263.15 192.074 1263.14 192.065 1263.14 192.056C1263.13 192.046 1263.13 192.035 1263.12 192.023C1263.04 191.407 1263 190.785 1263.01 190.163C1262.93 189.42 1263.01 188.669 1263.23 187.956Z" fill="#E6E6E6"/>
<path d="M1263.23 179.301C1263.53 180.728 1263.53 182.202 1263.23 183.628C1262.93 182.202 1262.93 180.728 1263.23 179.301Z" fill="#E6E6E6"/>
<path d="M1263.23 170.646C1263.53 172.073 1263.53 173.547 1263.23 174.974C1262.93 173.547 1262.93 172.073 1263.23 170.646Z" fill="#E6E6E6"/>
<path d="M1263.23 161.992C1263.53 163.419 1263.53 164.892 1263.23 166.319C1262.93 164.892 1262.93 163.419 1263.23 161.992Z" fill="#E6E6E6"/>
<path d="M1263.23 153.337C1263.53 154.764 1263.53 156.238 1263.23 157.665C1262.93 156.238 1262.93 154.764 1263.23 153.337Z" fill="#E6E6E6"/>
<path d="M1265.63 147.08C1264.94 147.304 1264.2 147.381 1263.47 147.305H1263.23L1263.45 147.08C1263.52 147.732 1263.44 148.391 1263.23 149.01C1263.02 148.389 1262.94 147.732 1263 147.08C1263 147.02 1263.03 146.963 1263.07 146.921C1263.11 146.879 1263.17 146.855 1263.23 146.855H1263.47C1264.2 146.784 1264.93 146.861 1265.63 147.08Z" fill="#E6E6E6"/>
<path d="M1274.29 147.08C1272.86 147.38 1271.39 147.38 1269.96 147.08C1271.39 146.78 1272.86 146.78 1274.29 147.08Z" fill="#E6E6E6"/>
<path d="M1282.94 147.08C1281.52 147.38 1280.04 147.38 1278.62 147.08C1280.04 146.78 1281.52 146.78 1282.94 147.08Z" fill="#E6E6E6"/>
<path d="M1265.88 149.728H1260.59V144.44H1265.88V149.728ZM1261.45 148.863H1265.01V145.306H1261.45V148.863Z" fill="#E6E6E6"/>
<path d="M1265.88 195.027H1260.59V189.747H1265.88V195.027ZM1261.45 194.161H1265.01V190.613H1261.45V194.161Z" fill="#E6E6E6"/>
<path d="M973.212 152.645H1038.12C1038.12 152.645 1031.73 145.444 1023.3 145.444C1018 145.444 1014.09 148.646 1009.99 145.868C1007.81 144.388 1001.88 137.067 990.469 138.391C979.062 139.715 973.212 152.645 973.212 152.645Z" fill="#EBEBEB"/>
<path d="M1256.86 114.651H1297.79C1297.79 114.651 1293.75 110.125 1288.44 110.125C1285.1 110.125 1282.63 112.141 1280.04 110.393C1278.67 109.458 1274.92 104.837 1267.73 105.676C1260.54 106.516 1256.86 114.651 1256.86 114.651Z" fill="#E0E0E0"/>
<path d="M1110.36 77.7999H1154.08C1154.08 77.7999 1149.74 72.91 1144.06 72.91C1140.49 72.91 1137.85 75.0737 1135.09 73.1956C1133.62 72.209 1129.62 67.2672 1121.93 68.1587C1114.25 69.0501 1110.36 77.7999 1110.36 77.7999Z" fill="#E6E6E6"/>
<path d="M1277.4 166.302C1277.4 166.302 1271.58 163.896 1267.68 177.432C1263.79 190.968 1262.79 198.532 1262.79 198.532C1262.79 198.532 1261.63 201.431 1259.52 200.09C1257.42 198.748 1254.07 194.429 1251.22 195.875C1248.38 197.32 1247.92 201.068 1249.49 206.07C1251.07 211.072 1254.16 222.185 1254.43 223.189C1254.69 224.193 1254.43 225.785 1252.83 225.075C1251.24 224.366 1241.52 217.018 1238.3 221.847C1235.08 226.677 1241.76 239.909 1242.51 241.372C1243.25 242.835 1243.04 243.544 1242.38 244.072C1241.72 244.6 1238.68 241.805 1235.83 239.823C1232.97 237.841 1229.32 236.041 1227.69 238.957C1226.06 241.874 1227.42 252.537 1240.73 267.673L1247.36 274.286L1256.47 271.992C1275.68 265.891 1282.33 257.478 1282.43 254.12C1282.54 250.762 1278.49 250.416 1275.03 250.658C1271.57 250.901 1267.52 251.706 1267.24 250.918C1266.97 250.131 1267.17 249.429 1268.53 248.538C1269.89 247.647 1282.48 239.788 1282.21 233.99C1281.94 228.191 1269.8 229.481 1268.09 229.256C1266.39 229.031 1266.96 227.525 1267.7 226.815C1268.45 226.105 1276.82 218.16 1280.77 214.699C1284.72 211.237 1286.31 207.887 1284.55 205.075C1282.8 202.262 1277.76 204.339 1275.27 204.408C1272.79 204.477 1273.28 201.388 1273.28 201.388C1273.28 201.388 1276.33 194.386 1279.97 180.79C1283.62 167.193 1277.25 166.259 1277.25 166.259" fill="#DA2828"/>
<path d="M1273.86 178.418C1273.86 178.518 1273.84 178.617 1273.81 178.713L1273.6 179.578C1273.41 180.348 1273.14 181.43 1272.78 182.806C1272.06 185.61 1270.98 189.652 1269.63 194.646C1266.92 204.625 1263.06 218.385 1258.74 233.592C1254.41 248.798 1250.57 262.446 1247.72 272.416L1244.42 284.212C1244.04 285.589 1243.74 286.662 1243.56 287.423C1243.45 287.769 1243.37 288.038 1243.3 288.289C1243.28 288.385 1243.25 288.478 1243.21 288.566C1243.22 288.466 1243.23 288.367 1243.26 288.271L1243.47 287.406C1243.66 286.636 1243.94 285.554 1244.29 284.178C1245.01 281.374 1246.09 277.332 1247.44 272.338C1250.15 262.36 1254.01 248.599 1258.34 233.393C1262.67 218.186 1266.53 204.486 1269.36 194.516L1272.65 182.72C1273.03 181.344 1273.34 180.271 1273.52 179.509C1273.62 179.163 1273.7 178.894 1273.77 178.643C1273.79 178.565 1273.82 178.49 1273.86 178.418Z" fill="#263238"/>
<path d="M1255.66 202.097C1256.15 202.783 1256.57 203.516 1256.92 204.287C1257.63 205.672 1258.55 207.61 1259.51 209.765L1261.96 215.322C1262.34 216.075 1262.66 216.853 1262.93 217.65C1262.44 216.966 1262.02 216.232 1261.68 215.46C1260.98 214.067 1260.08 212.119 1259.08 209.956L1256.62 204.46C1256.24 203.698 1255.92 202.908 1255.66 202.097Z" fill="#263238"/>
<path d="M1263.82 217.65C1263.76 217.537 1267.67 215.434 1272.54 212.95C1277.41 210.466 1281.41 208.545 1281.47 208.623C1281.53 208.701 1277.62 210.839 1272.75 213.322C1267.88 215.806 1263.88 217.754 1263.82 217.65Z" fill="#263238"/>
<path d="M1256.13 240.654C1256.95 240.401 1257.79 240.213 1258.64 240.091C1260.19 239.771 1262.34 239.347 1264.7 238.793C1267.06 238.239 1269.16 237.694 1270.7 237.278C1271.51 237.016 1272.35 236.817 1273.2 236.681C1272.42 237.049 1271.61 237.339 1270.78 237.547C1269.28 238.031 1267.17 238.646 1264.8 239.191C1262.44 239.736 1260.27 240.126 1258.7 240.359C1257.86 240.541 1257 240.64 1256.13 240.654Z" fill="#263238"/>
<path d="M1245.65 228.217C1246.26 228.743 1246.82 229.322 1247.32 229.948C1248.32 231.03 1249.66 232.544 1251.12 234.232C1252.58 235.92 1253.89 237.469 1254.82 238.611C1255.35 239.194 1255.83 239.829 1256.24 240.507C1255.64 239.997 1255.08 239.432 1254.57 238.819C1253.59 237.737 1252.24 236.223 1250.77 234.492C1249.3 232.761 1248.01 231.255 1247.08 230.121C1246.54 229.534 1246.06 228.896 1245.65 228.217Z" fill="#263238"/>
<path d="M1236.28 247.673C1237.04 248.341 1237.75 249.068 1238.41 249.845C1239.68 251.23 1241.42 253.16 1243.31 255.306C1245.21 257.452 1246.9 259.426 1248.12 260.862C1248.81 261.607 1249.44 262.403 1250.01 263.242C1249.24 262.575 1248.53 261.849 1247.87 261.07C1246.6 259.685 1244.87 257.755 1242.98 255.609C1241.08 253.463 1239.38 251.489 1238.17 250.053C1237.49 249.305 1236.85 248.51 1236.28 247.673Z" fill="#263238"/>
<path d="M1249.79 262.775C1250.82 262.443 1251.88 262.174 1252.95 261.97C1254.9 261.503 1257.6 260.871 1260.57 260.092C1263.54 259.313 1266.2 258.551 1268.13 257.989L1270.43 257.34C1270.71 257.243 1271 257.179 1271.29 257.149C1271.04 257.306 1270.77 257.426 1270.49 257.504C1269.97 257.703 1269.2 257.98 1268.24 258.292C1266.33 258.932 1263.67 259.746 1260.69 260.525C1257.71 261.304 1255 261.892 1253.02 262.256C1252.03 262.446 1251.22 262.585 1250.67 262.671C1250.38 262.747 1250.08 262.782 1249.79 262.775Z" fill="#263238"/>
<path d="M1053.42 357.223C1054.85 356.923 1056.32 356.923 1057.75 357.223C1056.32 357.523 1054.85 357.523 1053.42 357.223Z" fill="#263238"/>
<path d="M1044.77 357.223C1045.47 356.999 1046.2 356.922 1046.93 356.998C1047.66 356.922 1048.4 356.999 1049.1 357.223C1047.67 357.523 1046.19 357.523 1044.77 357.223Z" fill="#263238"/>
<path d="M1036.11 357.223C1036.81 356.999 1037.55 356.922 1038.28 356.998C1039.01 356.922 1039.74 356.999 1040.44 357.223C1039.74 357.442 1039.01 357.519 1038.28 357.448C1037.55 357.519 1036.81 357.442 1036.11 357.223Z" fill="#263238"/>
<path d="M1057.75 278.241C1057.45 276.814 1057.45 275.34 1057.75 273.913C1058.05 275.34 1058.05 276.814 1057.75 278.241Z" fill="#263238"/>
<path d="M1057.75 286.895C1057.45 285.469 1057.45 283.995 1057.75 282.568C1058.05 283.995 1058.05 285.469 1057.75 286.895Z" fill="#263238"/>
<path d="M1057.75 295.55C1057.45 294.123 1057.45 292.649 1057.75 291.223C1058.05 292.649 1058.05 294.123 1057.75 295.55Z" fill="#263238"/>
<path d="M1057.75 304.205C1057.45 302.778 1057.45 301.304 1057.75 299.877C1058.05 301.304 1058.05 302.778 1057.75 304.205Z" fill="#263238"/>
<path d="M1057.75 312.859C1057.45 311.432 1057.45 309.959 1057.75 308.532C1058.05 309.959 1058.05 311.432 1057.75 312.859Z" fill="#263238"/>
<path d="M1057.75 321.514C1057.45 320.087 1057.45 318.613 1057.75 317.187C1058.05 318.613 1058.05 320.087 1057.75 321.514Z" fill="#263238"/>
<path d="M1057.75 330.168C1057.45 328.742 1057.45 327.268 1057.75 325.841C1058.05 327.268 1058.05 328.742 1057.75 330.168Z" fill="#263238"/>
<path d="M1057.75 338.823C1057.45 337.396 1057.45 335.923 1057.75 334.496C1058.05 335.923 1058.05 337.396 1057.75 338.823Z" fill="#263238"/>
<path d="M1057.75 347.478C1057.45 346.051 1057.45 344.577 1057.75 343.15C1058.05 344.577 1058.05 346.051 1057.75 347.478Z" fill="#263238"/>
<path d="M1057.75 356.132C1057.45 354.705 1057.45 353.232 1057.75 351.805C1058.05 353.232 1058.05 354.705 1057.75 356.132Z" fill="#263238"/>
<path d="M1219.61 164.173C1219.31 162.746 1219.31 161.273 1219.61 159.846C1219.91 161.273 1219.91 162.746 1219.61 164.173Z" fill="#263238"/>
<path d="M1219.61 172.828C1219.31 171.401 1219.31 169.927 1219.61 168.5C1219.91 169.927 1219.91 171.401 1219.61 172.828Z" fill="#263238"/>
<path d="M1219.61 181.482C1219.31 180.055 1219.31 178.582 1219.61 177.155C1219.91 178.582 1219.91 180.055 1219.61 181.482Z" fill="#263238"/>
<path d="M1219.61 190.137C1219.31 188.71 1219.31 187.236 1219.61 185.809C1219.91 187.236 1219.91 188.71 1219.61 190.137Z" fill="#263238"/>
<path d="M1219.61 198.791C1219.31 197.365 1219.31 195.891 1219.61 194.464C1219.91 195.891 1219.91 197.365 1219.61 198.791Z" fill="#263238"/>
<path d="M1219.61 207.446C1219.31 206.019 1219.31 204.545 1219.61 203.119C1219.91 204.545 1219.91 206.019 1219.61 207.446Z" fill="#263238"/>
<path d="M1219.61 216.101C1219.31 214.674 1219.31 213.2 1219.61 211.773C1219.91 213.2 1219.91 214.674 1219.61 216.101Z" fill="#263238"/>
<path d="M1219.61 224.755C1219.31 223.328 1219.31 221.855 1219.61 220.428C1219.91 221.855 1219.91 223.328 1219.61 224.755Z" fill="#263238"/>
<path d="M1219.61 233.41C1219.31 231.983 1219.31 230.509 1219.61 229.083C1219.91 230.509 1219.91 231.983 1219.61 233.41Z" fill="#263238"/>
<path d="M1219.61 242.064C1219.31 240.638 1219.31 239.164 1219.61 237.737C1219.91 239.164 1219.91 240.638 1219.61 242.064Z" fill="#263238"/>
<path d="M1219.61 250.719C1219.31 249.292 1219.31 247.819 1219.61 246.392C1219.91 247.819 1219.91 249.292 1219.61 250.719Z" fill="#263238"/>
<path d="M1219.61 259.374C1219.31 257.947 1219.31 256.473 1219.61 255.046C1219.91 256.473 1219.91 257.947 1219.61 259.374Z" fill="#263238"/>
<path d="M1219.61 268.028C1219.31 266.602 1219.31 265.128 1219.61 263.701C1219.91 265.128 1219.91 266.602 1219.61 268.028Z" fill="#263238"/>
<path d="M1219.61 276.683C1219.31 275.256 1219.31 273.783 1219.61 272.356C1219.91 273.783 1219.91 275.256 1219.61 276.683Z" fill="#263238"/>
<path d="M1219.61 285.338C1219.31 283.911 1219.31 282.437 1219.61 281.01C1219.91 282.437 1219.91 283.911 1219.61 285.338Z" fill="#263238"/>
<path d="M1219.61 293.992C1219.31 292.565 1219.31 291.092 1219.61 289.665C1219.91 291.092 1219.91 292.565 1219.61 293.992Z" fill="#263238"/>
<path d="M1219.61 302.647C1219.31 301.22 1219.31 299.746 1219.61 298.319C1219.91 299.746 1219.91 301.22 1219.61 302.647Z" fill="#263238"/>
<path d="M1219.61 311.301C1219.31 309.875 1219.31 308.401 1219.61 306.974C1219.91 308.401 1219.91 309.875 1219.61 311.301Z" fill="#263238"/>
<path d="M1219.61 319.956C1219.31 318.529 1219.31 317.055 1219.61 315.629C1219.91 317.055 1219.91 318.529 1219.61 319.956Z" fill="#263238"/>
<path d="M1219.61 328.611C1219.31 327.184 1219.31 325.71 1219.61 324.283C1219.91 325.71 1219.91 327.184 1219.61 328.611Z" fill="#263238"/>
<path d="M1219.61 337.265C1219.31 335.838 1219.31 334.365 1219.61 332.938C1219.91 334.365 1219.91 335.838 1219.61 337.265Z" fill="#263238"/>
<path d="M1219.61 345.92C1219.31 344.493 1219.31 343.019 1219.61 341.593C1219.91 343.019 1219.91 344.493 1219.61 345.92Z" fill="#263238"/>
<path d="M1219.61 354.574C1219.31 353.148 1219.31 351.674 1219.61 350.247C1219.91 351.674 1219.91 353.148 1219.61 354.574Z" fill="#263238"/>
<path d="M1212.49 356.106C1213.91 355.806 1215.39 355.806 1216.81 356.106C1215.39 356.406 1213.91 356.406 1212.49 356.106Z" fill="#263238"/>
<path d="M1203.83 356.106C1205.26 355.806 1206.73 355.806 1208.16 356.106C1206.73 356.406 1205.26 356.406 1203.83 356.106Z" fill="#263238"/>
<path d="M1200.37 350.879C1200.67 352.306 1200.67 353.779 1200.37 355.206C1200.07 353.779 1200.07 352.306 1200.37 350.879Z" fill="#263238"/>
<path d="M1200.37 342.224C1200.67 343.651 1200.67 345.125 1200.37 346.552C1200.07 345.125 1200.07 343.651 1200.37 342.224Z" fill="#263238"/>
<path d="M1200.37 333.57C1200.67 334.997 1200.67 336.47 1200.37 337.897C1200.07 336.47 1200.07 334.997 1200.37 333.57Z" fill="#263238"/>
<path d="M1200.37 324.915C1200.67 326.342 1200.67 327.816 1200.37 329.242C1200.07 327.816 1200.07 326.342 1200.37 324.915Z" fill="#263238"/>
<path d="M1200.37 316.26C1200.67 317.687 1200.67 319.161 1200.37 320.588C1200.07 319.161 1200.07 317.687 1200.37 316.26Z" fill="#263238"/>
<path d="M1200.37 307.606C1200.67 309.033 1200.67 310.506 1200.37 311.933C1200.07 310.506 1200.07 309.033 1200.37 307.606Z" fill="#263238"/>
<path d="M1200.37 298.951C1200.67 300.378 1200.67 301.852 1200.37 303.279C1200.07 301.852 1200.07 300.378 1200.37 298.951Z" fill="#263238"/>
<path d="M1200.37 290.297C1200.67 291.723 1200.67 293.197 1200.37 294.624C1200.07 293.197 1200.07 291.723 1200.37 290.297Z" fill="#263238"/>
<path d="M1200.37 281.642C1200.67 283.069 1200.67 284.543 1200.37 285.969C1200.07 284.543 1200.07 283.069 1200.37 281.642Z" fill="#263238"/>
<path d="M1200.37 272.987C1200.67 274.414 1200.67 275.888 1200.37 277.315C1200.07 275.888 1200.07 274.414 1200.37 272.987Z" fill="#263238"/>
<path d="M1200.37 264.333C1200.67 265.76 1200.67 267.233 1200.37 268.66C1200.07 267.233 1200.07 265.76 1200.37 264.333Z" fill="#263238"/>
<path d="M1200.37 255.678C1200.67 257.105 1200.67 258.579 1200.37 260.006C1200.07 258.579 1200.07 257.105 1200.37 255.678Z" fill="#263238"/>
<path d="M1200.37 247.024C1200.67 248.45 1200.67 249.924 1200.37 251.351C1200.07 249.924 1200.07 248.45 1200.37 247.024Z" fill="#263238"/>
<path d="M1200.37 238.369C1200.67 239.796 1200.67 241.269 1200.37 242.696C1200.07 241.269 1200.07 239.796 1200.37 238.369Z" fill="#263238"/>
<path d="M1200.37 229.714C1200.67 231.141 1200.67 232.615 1200.37 234.042C1200.07 232.615 1200.07 231.141 1200.37 229.714Z" fill="#263238"/>
<path d="M1200.37 221.06C1200.67 222.487 1200.67 223.96 1200.37 225.387C1200.07 223.96 1200.07 222.487 1200.37 221.06Z" fill="#263238"/>
<path d="M1200.37 212.405C1200.67 213.832 1200.67 215.306 1200.37 216.732C1200.07 215.306 1200.07 213.832 1200.37 212.405Z" fill="#263238"/>
<path d="M1200.37 203.75C1200.67 205.177 1200.67 206.651 1200.37 208.078C1200.07 206.651 1200.07 205.177 1200.37 203.75Z" fill="#263238"/>
<path d="M1200.37 195.096C1200.67 196.523 1200.67 197.996 1200.37 199.423C1200.07 197.996 1200.07 196.523 1200.37 195.096Z" fill="#263238"/>
<path d="M1200.37 186.441C1200.67 187.868 1200.67 189.342 1200.37 190.769C1200.07 189.342 1200.07 187.868 1200.37 186.441Z" fill="#263238"/>
<path d="M1200.37 177.787C1200.67 179.213 1200.67 180.687 1200.37 182.114C1200.07 180.687 1200.07 179.213 1200.37 177.787Z" fill="#263238"/>
<path d="M1200.37 169.132C1200.67 170.559 1200.67 172.033 1200.37 173.459C1200.07 172.033 1200.07 170.559 1200.37 169.132Z" fill="#263238"/>
<path d="M1200.37 160.477C1200.67 161.904 1200.67 163.378 1200.37 164.805C1200.07 163.378 1200.07 161.904 1200.37 160.477Z" fill="#263238"/>
<path d="M1200.37 151.823C1200.67 153.25 1200.67 154.723 1200.37 156.15C1200.07 154.723 1200.07 153.25 1200.37 151.823Z" fill="#263238"/>
<path d="M1200.37 143.168C1200.67 144.595 1200.67 146.069 1200.37 147.496C1200.07 146.069 1200.07 144.595 1200.37 143.168Z" fill="#263238"/>
<path d="M1139.99 353.943C1140.21 354.64 1140.29 355.377 1140.21 356.106L1139.99 355.881H1140.43H1140.83H1141.52C1141.91 355.925 1142.15 355.985 1142.15 356.046C1142.15 356.106 1141.91 356.167 1141.52 356.201C1141.32 356.201 1141.09 356.245 1140.83 356.253H1139.97L1139.74 356.028C1139.69 355.324 1139.77 354.616 1139.99 353.943Z" fill="#263238"/>
<path d="M1139.99 345.314C1140.29 346.741 1140.29 348.215 1139.99 349.641C1139.68 348.215 1139.68 346.741 1139.99 345.314Z" fill="#263238"/>
<path d="M1139.99 336.685C1140.29 338.112 1140.29 339.586 1139.99 341.013C1139.68 339.586 1139.68 338.112 1139.99 336.685Z" fill="#263238"/>
<path d="M1139.99 328.057C1140.29 329.483 1140.29 330.957 1139.99 332.384C1139.68 330.957 1139.68 329.483 1139.99 328.057Z" fill="#263238"/>
<path d="M1139.99 319.428C1140.29 320.855 1140.29 322.329 1139.99 323.755C1139.68 322.329 1139.68 320.855 1139.99 319.428Z" fill="#263238"/>
<path d="M1139.99 310.808C1140.29 312.235 1140.29 313.709 1139.99 315.135C1139.68 313.709 1139.68 312.235 1139.99 310.808Z" fill="#263238"/>
<path d="M1139.99 302.179C1140.29 303.606 1140.29 305.08 1139.99 306.507C1139.68 305.08 1139.68 303.606 1139.99 302.179Z" fill="#263238"/>
<path d="M1139.99 293.551C1140.29 294.977 1140.29 296.452 1139.99 297.878C1139.68 296.452 1139.68 294.977 1139.99 293.551Z" fill="#263238"/>
<path d="M1139.99 284.948C1140.29 286.375 1140.29 287.849 1139.99 289.275C1139.68 287.849 1139.68 286.375 1139.99 284.948Z" fill="#263238"/>
<path d="M1139.99 276.293C1140.29 277.72 1140.29 279.194 1139.99 280.621C1139.68 279.194 1139.68 277.72 1139.99 276.293Z" fill="#263238"/>
<path d="M1139.99 267.639C1140.29 269.066 1140.29 270.54 1139.99 271.966C1139.68 270.54 1139.68 269.066 1139.99 267.639Z" fill="#263238"/>
<path d="M1139.99 259.036C1140.29 260.463 1140.29 261.937 1139.99 263.363C1139.68 261.937 1139.68 260.463 1139.99 259.036Z" fill="#263238"/>
<path d="M1139.99 250.408C1140.29 251.834 1140.29 253.308 1139.99 254.735C1139.68 253.308 1139.68 251.834 1139.99 250.408Z" fill="#263238"/>
<path d="M1139.99 241.788C1140.29 243.214 1140.29 244.688 1139.99 246.115C1139.68 244.688 1139.68 243.214 1139.99 241.788Z" fill="#263238"/>
<path d="M1139.99 233.159C1140.29 234.586 1140.29 236.06 1139.99 237.486C1139.68 236.06 1139.68 234.586 1139.99 233.159Z" fill="#263238"/>
<path d="M1139.99 224.53C1140.29 225.957 1140.29 227.431 1139.99 228.858C1139.68 227.431 1139.68 225.957 1139.99 224.53Z" fill="#263238"/>
<path d="M1139.99 215.902C1140.29 217.328 1140.29 218.802 1139.99 220.229C1139.68 218.802 1139.68 217.328 1139.99 215.902Z" fill="#263238"/>
<path d="M1139.99 207.273C1140.29 208.7 1140.29 210.174 1139.99 211.6C1139.68 210.174 1139.68 208.7 1139.99 207.273Z" fill="#263238"/>
<path d="M1139.99 198.644C1140.29 200.071 1140.29 201.545 1139.99 202.972C1139.68 201.545 1139.68 200.071 1139.99 198.644Z" fill="#263238"/>
<path d="M1139.99 190.016C1140.29 191.442 1140.29 192.916 1139.99 194.343C1139.68 192.916 1139.68 191.442 1139.99 190.016Z" fill="#263238"/>
<path d="M1139.99 181.396C1140.29 182.822 1140.29 184.296 1139.99 185.723C1139.68 184.296 1139.68 182.822 1139.99 181.396Z" fill="#263238"/>
<path d="M1139.99 172.767C1140.29 174.194 1140.29 175.668 1139.99 177.094C1139.68 175.668 1139.68 174.194 1139.99 172.767Z" fill="#263238"/>
<path d="M1139.99 164.138C1140.29 165.565 1140.29 167.039 1139.99 168.466C1139.68 167.039 1139.68 165.565 1139.99 164.138Z" fill="#263238"/>
<path d="M1139.99 155.51C1140.29 156.936 1140.29 158.41 1139.99 159.837C1139.68 158.41 1139.68 156.936 1139.99 155.51Z" fill="#263238"/>
<path d="M1139.99 146.881C1140.29 148.308 1140.29 149.782 1139.99 151.208C1139.68 149.782 1139.68 148.308 1139.99 146.881Z" fill="#263238"/>
<path d="M1139.99 138.252C1140.29 139.679 1140.29 141.153 1139.99 142.58C1139.68 141.153 1139.68 139.679 1139.99 138.252Z" fill="#263238"/>
<path d="M1200.37 143.644C1200.07 142.218 1200.07 140.743 1200.37 139.317C1200.67 140.743 1200.67 142.218 1200.37 143.644Z" fill="#263238"/>
<path d="M1200.37 152.23C1200.07 150.803 1200.07 149.329 1200.37 147.902C1200.67 149.329 1200.67 150.803 1200.37 152.23Z" fill="#263238"/>
<path d="M1200.37 160.815C1200.07 159.389 1200.07 157.914 1200.37 156.488C1200.67 157.914 1200.67 159.389 1200.37 160.815Z" fill="#263238"/>
<path d="M1200.37 169.4C1200.07 167.974 1200.07 166.5 1200.37 165.073C1200.67 166.5 1200.67 167.974 1200.37 169.4Z" fill="#263238"/>
<path d="M1200.37 177.977C1200.07 176.551 1200.07 175.076 1200.37 173.65C1200.67 175.076 1200.67 176.551 1200.37 177.977Z" fill="#263238"/>
<path d="M1200.37 186.562C1200.07 185.136 1200.07 183.662 1200.37 182.235C1200.67 183.662 1200.67 185.136 1200.37 186.562Z" fill="#263238"/>
<path d="M1200.37 195.148C1200.07 193.721 1200.07 192.247 1200.37 190.821C1200.67 192.247 1200.67 193.721 1200.37 195.148Z" fill="#263238"/>
<path d="M1200.37 203.733C1200.07 202.307 1200.07 200.832 1200.37 199.406C1200.67 200.832 1200.67 202.307 1200.37 203.733Z" fill="#263238"/>
<path d="M1200.37 212.31C1200.07 210.898 1200.07 209.438 1200.37 208.026C1200.67 209.438 1200.67 210.898 1200.37 212.31Z" fill="#263238"/>
<path d="M1200.37 220.904C1200.07 219.478 1200.07 218.003 1200.37 216.577C1200.67 218.003 1200.67 219.478 1200.37 220.904Z" fill="#263238"/>
<path d="M1200.37 229.481C1200.07 228.054 1200.07 226.58 1200.37 225.153C1200.67 226.58 1200.67 228.054 1200.37 229.481Z" fill="#263238"/>
<path d="M1200.37 238.066C1200.07 236.64 1200.07 235.165 1200.37 233.739C1200.67 235.165 1200.67 236.64 1200.37 238.066Z" fill="#263238"/>
<path d="M1200.37 246.651C1200.07 245.225 1200.07 243.751 1200.37 242.324C1200.67 243.751 1200.67 245.225 1200.37 246.651Z" fill="#263238"/>
<path d="M1200.37 255.228C1200.07 253.802 1200.07 252.327 1200.37 250.901C1200.67 252.327 1200.67 253.802 1200.37 255.228Z" fill="#263238"/>
<path d="M1200.37 263.814C1200.07 262.387 1200.07 260.913 1200.37 259.486C1200.67 260.913 1200.67 262.387 1200.37 263.814Z" fill="#263238"/>
<path d="M1200.37 272.399C1200.07 270.973 1200.07 269.498 1200.37 268.072C1200.67 269.498 1200.67 270.973 1200.37 272.399Z" fill="#263238"/>
<path d="M1200.37 280.984C1200.07 279.558 1200.07 278.083 1200.37 276.657C1200.67 278.083 1200.67 279.558 1200.37 280.984Z" fill="#263238"/>
<path d="M1200.37 289.561C1200.07 288.149 1200.07 286.689 1200.37 285.277C1200.67 286.689 1200.67 288.149 1200.37 289.561Z" fill="#263238"/>
<path d="M1200.37 298.146C1200.07 296.72 1200.07 295.246 1200.37 293.819C1200.67 295.246 1200.67 296.72 1200.37 298.146Z" fill="#263238"/>
<path d="M1200.37 306.732C1200.07 305.305 1200.07 303.831 1200.37 302.405C1200.67 303.831 1200.67 305.305 1200.37 306.732Z" fill="#263238"/>
<path d="M1200.37 315.317C1200.07 313.891 1200.07 312.416 1200.37 310.99C1200.67 312.416 1200.67 313.891 1200.37 315.317Z" fill="#263238"/>
<path d="M1200.37 323.894C1200.07 322.467 1200.07 320.993 1200.37 319.567C1200.67 320.993 1200.67 322.467 1200.37 323.894Z" fill="#263238"/>
<path d="M1200.37 332.479C1200.07 331.053 1200.07 329.578 1200.37 328.152C1200.67 329.578 1200.67 331.053 1200.37 332.479Z" fill="#263238"/>
<path d="M1200.37 341.065C1200.07 339.638 1200.07 338.164 1200.37 336.737C1200.67 338.164 1200.67 339.638 1200.37 341.065Z" fill="#263238"/>
<path d="M1200.37 349.65C1200.07 348.224 1200.07 346.749 1200.37 345.323C1200.67 346.749 1200.67 348.224 1200.37 349.65Z" fill="#263238"/>
<path d="M1198.23 356.106C1198.92 355.897 1199.65 355.833 1200.37 355.916L1200.14 356.141V355.327C1200.14 355.068 1200.14 354.834 1200.2 354.635C1200.2 354.246 1200.29 354.003 1200.35 354.003C1200.41 354.003 1200.47 354.246 1200.52 354.635C1200.52 354.834 1200.52 355.068 1200.52 355.327C1200.52 355.587 1200.52 355.604 1200.52 355.726V356.141L1200.29 356.366C1199.59 356.412 1198.9 356.324 1198.23 356.106Z" fill="#263238"/>
<path d="M1189.6 356.106C1191.03 355.805 1192.5 355.805 1193.93 356.106C1192.5 356.408 1191.03 356.408 1189.6 356.106Z" fill="#263238"/>
<path d="M1180.98 356.106C1182.41 355.804 1183.88 355.804 1185.31 356.106C1183.88 356.409 1182.41 356.409 1180.98 356.106Z" fill="#263238"/>
<path d="M1172.35 356.106C1173.78 355.804 1175.25 355.804 1176.68 356.106C1175.25 356.409 1173.78 356.409 1172.35 356.106Z" fill="#263238"/>
<path d="M1163.73 356.106C1165.15 355.804 1166.63 355.804 1168.05 356.106C1166.63 356.409 1165.15 356.409 1163.73 356.106Z" fill="#263238"/>
<path d="M1155.1 356.106C1156.52 355.804 1158 355.804 1159.42 356.106C1158 356.409 1156.52 356.409 1155.1 356.106Z" fill="#263238"/>
<path d="M1146.47 356.106C1147.9 355.804 1149.37 355.804 1150.8 356.106C1149.37 356.409 1147.9 356.409 1146.47 356.106Z" fill="#263238"/>
<path d="M1190.87 138.694H1184.48V152.16H1190.87V138.694Z" fill="#FF725E"/>
<path d="M1190.87 164.874H1184.48V178.341H1190.87V164.874Z" fill="#FF725E"/>
<path d="M1190.87 191.046H1184.48V204.512H1190.87V191.046Z" fill="#FF725E"/>
<path d="M1190.87 217.226H1184.48V230.692H1190.87V217.226Z" fill="#FF725E"/>
<path d="M1155.7 243.397H1149.32V256.864H1155.7V243.397Z" fill="#FF725E"/>
<path d="M1173.29 243.397H1166.9V256.864H1173.29V243.397Z" fill="#FF725E"/>
<path d="M1190.87 243.397H1184.48V256.864H1190.87V243.397Z" fill="#FF725E"/>
<path d="M1155.7 269.578H1149.32V283.044H1155.7V269.578Z" fill="#FF725E"/>
<path d="M1173.29 269.578H1166.9V283.044H1173.29V269.578Z" fill="#FF725E"/>
<path d="M1190.87 269.578H1184.48V283.044H1190.87V269.578Z" fill="#FF725E"/>
<path d="M1155.7 295.749H1149.32V309.216H1155.7V295.749Z" fill="#FF725E"/>
<path d="M1173.29 295.749H1166.9V309.216H1173.29V295.749Z" fill="#FF725E"/>
<path d="M1190.87 295.749H1184.48V309.216H1190.87V295.749Z" fill="#FF725E"/>
<path d="M1155.7 321.921H1149.32V335.379H1155.7V321.921Z" fill="#FF725E"/>
<path d="M1173.29 321.921H1166.9V335.379H1173.29V321.921Z" fill="#FF725E"/>
<path d="M1190.87 321.921H1184.48V335.379H1190.87V321.921Z" fill="#FF725E"/>
<path d="M1213.81 151.52H1207.42V164.978H1213.81V151.52Z" fill="#263238"/>
<path d="M1213.81 180.504H1207.42V193.962H1213.81V180.504Z" fill="#263238"/>
<path d="M1213.81 209.489H1207.42V222.955H1213.81V209.489Z" fill="#263238"/>
<path d="M1213.81 238.473H1207.42V251.931H1213.81V238.473Z" fill="#263238"/>
<path d="M1213.81 267.466H1207.42V280.932H1213.81V267.466Z" fill="#263238"/>
<path d="M1213.81 296.45H1207.42V309.908H1213.81V296.45Z" fill="#263238"/>
<path d="M1213.81 325.434H1207.42V338.892H1213.81V325.434Z" fill="#263238"/>
<path d="M1144.17 134.436H1060.16V357.569H1144.17V134.436Z" fill="#C4C4C4"/>
<path opacity="0.8" d="M1144.16 134.436H1111.93V357.569H1144.16V134.436Z" fill="#898989"/>
<path d="M1078.5 151.494H1072.12V164.952H1078.5V151.494Z" fill="#263238"/>
<path d="M1095.49 151.494H1089.11V164.952H1095.49V151.494Z" fill="#263238"/>
<path d="M1078.5 177.138H1072.12V190.604H1078.5V177.138Z" fill="#263238"/>
<path d="M1095.49 177.138H1089.11V190.604H1095.49V177.138Z" fill="#263238"/>
<path d="M1078.5 202.781H1072.12V216.239H1078.5V202.781Z" fill="#263238"/>
<path d="M1095.49 202.781H1089.11V216.239H1095.49V202.781Z" fill="#263238"/>
<path d="M1078.5 228.425H1072.12V241.883H1078.5V228.425Z" fill="#263238"/>
<path d="M1095.49 228.425H1089.11V241.883H1095.49V228.425Z" fill="#263238"/>
<path d="M1078.5 254.068H1072.12V267.535H1078.5V254.068Z" fill="#263238"/>
<path d="M1095.49 254.068H1089.11V267.535H1095.49V254.068Z" fill="#263238"/>
<path d="M1078.5 279.703H1072.12V293.17H1078.5V279.703Z" fill="#263238"/>
<path d="M1095.49 279.703H1089.11V293.17H1095.49V279.703Z" fill="#263238"/>
<path d="M1078.5 305.347H1072.12V318.805H1078.5V305.347Z" fill="#263238"/>
<path d="M1095.49 305.347H1089.11V318.805H1095.49V305.347Z" fill="#263238"/>
<path d="M1078.5 330.991H1072.12V344.457H1078.5V330.991Z" fill="#263238"/>
<path d="M1095.49 330.991H1089.11V344.457H1095.49V330.991Z" fill="#263238"/>
<path d="M1131.25 152.048H1124.86V165.506H1131.25V152.048Z" fill="#455A64"/>
<path d="M1131.25 175.666H1124.86V189.133H1131.25V175.666Z" fill="#455A64"/>
<path d="M1131.25 202.106H1124.86V215.573H1131.25V202.106Z" fill="#455A64"/>
<path d="M1131.25 227.386H1124.86V240.853H1131.25V227.386Z" fill="#455A64"/>
<path d="M1131.25 252.658H1124.86V266.124H1131.25V252.658Z" fill="#455A64"/>
<path d="M1131.25 277.929H1124.86V291.396H1131.25V277.929Z" fill="#455A64"/>
<path d="M1131.25 303.209H1124.86V316.667H1131.25V303.209Z" fill="#455A64"/>
<path d="M1131.25 330.991H1124.86V344.457H1131.25V330.991Z" fill="#455A64"/>
<path d="M1148.35 133.034H1052.84V135.639H1148.35V133.034Z" fill="#263238"/>
<path d="M1128.04 117.334H1094.05V134.341H1128.04V117.334Z" fill="#263238"/>
<path d="M1111.93 117.334H1094.05V133.034H1111.93V117.334Z" fill="#ECECEC"/>
<path d="M1111.93 170.24C1111.93 170.361 1100.34 170.465 1086.05 170.465C1071.76 170.465 1060.16 170.361 1060.16 170.24C1060.16 170.119 1071.75 170.015 1086.05 170.015C1100.35 170.015 1111.93 170.119 1111.93 170.24Z" fill="#263238"/>
<path d="M1111.93 195.97C1111.93 196.1 1100.34 196.204 1086.05 196.204C1071.76 196.204 1060.16 196.1 1060.16 195.97C1060.16 195.84 1071.75 195.745 1086.05 195.745C1100.35 195.745 1111.93 195.849 1111.93 195.97Z" fill="#263238"/>
<path d="M1111.93 222.02C1111.93 222.142 1100.34 222.245 1086.05 222.245C1071.76 222.245 1060.16 222.142 1060.16 222.02C1060.16 221.899 1071.75 221.795 1086.05 221.795C1100.35 221.795 1111.93 221.891 1111.93 222.02Z" fill="#263238"/>
<path d="M1111.93 247.872C1111.93 248.002 1100.34 248.097 1086.05 248.097C1071.76 248.097 1060.16 248.002 1060.16 247.872C1060.16 247.742 1071.75 247.647 1086.05 247.647C1100.35 247.647 1111.93 247.733 1111.93 247.872Z" fill="#263238"/>
<path d="M1111.93 273.36C1111.93 273.481 1100.34 273.585 1086.05 273.585C1071.76 273.585 1060.16 273.481 1060.16 273.36C1060.16 273.238 1071.75 273.135 1086.05 273.135C1100.35 273.135 1111.93 273.238 1111.93 273.36Z" fill="#263238"/>
<path d="M1111.93 298.155C1111.93 298.276 1100.34 298.38 1086.05 298.38C1071.76 298.38 1060.16 298.276 1060.16 298.155C1060.16 298.034 1071.75 297.93 1086.05 297.93C1100.35 297.93 1111.93 298.025 1111.93 298.155Z" fill="#263238"/>
<path d="M1111.93 325.625C1111.93 325.746 1100.34 325.85 1086.05 325.85C1071.76 325.85 1060.16 325.755 1060.16 325.625C1060.16 325.495 1071.75 325.4 1086.05 325.4C1100.35 325.4 1111.93 325.504 1111.93 325.625Z" fill="#263238"/>
<path d="M1143.79 136.677C1143.79 136.807 1136.87 136.902 1128.38 136.902C1119.89 136.902 1112.97 136.807 1112.97 136.677C1112.97 136.547 1119.89 136.452 1128.38 136.452C1136.87 136.452 1143.79 136.556 1143.79 136.677Z" fill="#455A64"/>
<path d="M1143.79 170.24C1143.79 170.361 1136.87 170.465 1128.38 170.465C1119.89 170.465 1112.96 170.361 1112.96 170.24C1112.96 170.119 1119.88 170.015 1128.37 170.015C1136.86 170.015 1143.79 170.119 1143.79 170.24Z" fill="#455A64"/>
<path d="M1143.79 195.97C1143.79 196.1 1136.87 196.204 1128.38 196.204C1119.89 196.204 1112.97 196.1 1112.97 195.97C1112.97 195.84 1119.89 195.745 1128.38 195.745C1136.87 195.745 1143.79 195.849 1143.79 195.97Z" fill="#455A64"/>
<path d="M1143.79 221.709C1143.79 221.83 1136.87 221.934 1128.38 221.934C1119.89 221.934 1112.97 221.83 1112.97 221.709C1112.97 221.588 1119.89 221.484 1128.38 221.484C1136.87 221.484 1143.79 221.579 1143.79 221.709Z" fill="#455A64"/>
<path d="M1143.46 247.872C1143.46 248.002 1136.53 248.097 1128.05 248.097C1119.57 248.097 1112.64 248.002 1112.64 247.872C1112.64 247.742 1119.56 247.647 1128.05 247.647C1136.54 247.647 1143.46 247.733 1143.46 247.872Z" fill="#455A64"/>
<path d="M1143.46 273.36C1143.46 273.481 1136.53 273.585 1128.05 273.585C1119.57 273.585 1112.64 273.481 1112.64 273.36C1112.64 273.238 1119.56 273.135 1128.05 273.135C1136.54 273.135 1143.46 273.238 1143.46 273.36Z" fill="#455A64"/>
<path d="M1143.46 298.847C1143.46 298.969 1136.53 299.072 1128.05 299.072C1119.57 299.072 1112.64 298.969 1112.64 298.847C1112.64 298.726 1119.56 298.622 1128.05 298.622C1136.54 298.622 1143.46 298.718 1143.46 298.847Z" fill="#455A64"/>
<path d="M1143.46 325.625C1143.46 325.746 1136.53 325.85 1128.05 325.85C1119.57 325.85 1112.64 325.746 1112.64 325.625C1112.64 325.504 1119.56 325.4 1128.05 325.4C1136.54 325.4 1143.46 325.504 1143.46 325.625Z" fill="#455A64"/>
<path d="M1098.52 275.653H1036.27V357.768H1098.52V275.653Z" fill="#ECECEC"/>
<path opacity="0.1" d="M1098.52 275.653H1036.27V357.768H1098.52V275.653Z" fill="black"/>
<path d="M1098.53 275.653H1069.34V357.768H1098.53V275.653Z" fill="#ECECEC"/>
<path opacity="0.3" d="M1098.53 275.653H1069.34V357.768H1098.53V275.653Z" fill="black"/>
<path d="M1054.93 286.774H1049.33V300.371H1054.93V286.774Z" fill="#898989"/>
<path d="M1054.93 340H1049.33V353.596H1054.93V340Z" fill="#898989"/>
<path d="M1069.34 305.719C1069.34 305.84 1061.93 305.944 1052.81 305.944C1043.69 305.944 1036.27 305.84 1036.27 305.719C1036.27 305.598 1043.67 305.494 1052.81 305.494C1061.95 305.494 1069.34 305.581 1069.34 305.719Z" fill="#898989"/>
<path d="M1054.93 313.586H1049.33V327.183H1054.93V313.586Z" fill="#898989"/>
<path d="M1069.34 332.549C1069.34 332.67 1061.93 332.774 1052.81 332.774C1043.69 332.774 1036.27 332.67 1036.27 332.549C1036.27 332.427 1043.67 332.323 1052.81 332.323C1061.95 332.323 1069.34 332.401 1069.34 332.549Z" fill="#898989"/>
<g opacity="0.3">
<path opacity="0.3" d="M1054.93 286.774H1049.33V300.371H1054.93V286.774Z" fill="black"/>
<path opacity="0.3" d="M1054.93 340H1049.33V353.596H1054.93V340Z" fill="black"/>
<path opacity="0.3" d="M1069.34 305.719C1069.34 305.84 1061.93 305.944 1052.81 305.944C1043.69 305.944 1036.27 305.84 1036.27 305.719C1036.27 305.598 1043.67 305.494 1052.81 305.494C1061.95 305.494 1069.34 305.581 1069.34 305.719Z" fill="black"/>
<path opacity="0.3" d="M1054.93 313.586H1049.33V327.183H1054.93V313.586Z" fill="black"/>
<path opacity="0.3" d="M1069.34 332.548C1069.34 332.67 1061.93 332.773 1052.81 332.773C1043.69 332.773 1036.27 332.67 1036.27 332.548C1036.27 332.427 1043.67 332.323 1052.81 332.323C1061.95 332.323 1069.34 332.401 1069.34 332.548Z" fill="black"/>
</g>
<path d="M1081.13 286.774H1075.54V300.371H1081.13V286.774Z" fill="#F5F5F5"/>
<path d="M1093.28 286.774H1087.68V300.371H1093.28V286.774Z" fill="#F5F5F5"/>
<path d="M1081.13 312.574H1075.54V326.17H1081.13V312.574Z" fill="#F5F5F5"/>
<path d="M1093.28 312.574H1087.68V326.17H1093.28V312.574Z" fill="#F5F5F5"/>
<path d="M1081.13 338.382H1075.54V351.978H1081.13V338.382Z" fill="#F5F5F5"/>
<path d="M1093.28 338.382H1087.68V351.978H1093.28V338.382Z" fill="#F5F5F5"/>
<g opacity="0.7">
<path opacity="0.7" d="M1081.13 286.774H1075.54V300.371H1081.13V286.774Z" fill="black"/>
<path opacity="0.7" d="M1093.28 286.774H1087.68V300.371H1093.28V286.774Z" fill="black"/>
<path opacity="0.7" d="M1081.13 312.573H1075.54V326.17H1081.13V312.573Z" fill="black"/>
<path opacity="0.7" d="M1093.28 312.573H1087.68V326.17H1093.28V312.573Z" fill="black"/>
<path opacity="0.7" d="M1081.13 338.382H1075.54V351.978H1081.13V338.382Z" fill="black"/>
<path opacity="0.7" d="M1093.28 338.382H1087.68V351.978H1093.28V338.382Z" fill="black"/>
</g>
<path d="M1103.21 272.797H1031.6V275.757H1103.21V272.797Z" fill="#ECECEC"/>
<path opacity="0.3" d="M1103.21 272.797H1031.6V275.757H1103.21V272.797Z" fill="black"/>
<path d="M1098.96 276.034C1098.96 276.164 1085.05 276.259 1067.88 276.259C1050.72 276.259 1036.8 276.164 1036.8 276.034C1036.8 275.904 1050.71 275.809 1067.88 275.809C1085.04 275.809 1098.96 275.913 1098.96 276.034Z" fill="#FF725E"/>
<path d="M1098.96 276.034C1098.96 276.164 1085.05 276.259 1067.88 276.259C1050.72 276.259 1036.8 276.164 1036.8 276.034C1036.8 275.904 1050.71 275.809 1067.88 275.809C1085.04 275.809 1098.96 275.913 1098.96 276.034Z" fill="black"/>
<path d="M1197.89 238.378H1132.4V357.223H1197.89V238.378Z" fill="#ECECEC"/>
<path opacity="0.7" d="M1197.89 238.378H1132.4V357.223H1197.89V238.378Z" fill="black"/>
<path d="M1197.89 238.378H1179.39V357.223H1197.89V238.378Z" fill="#FF725E"/>
<path opacity="0.8" d="M1197.89 238.378H1179.39V357.223H1197.89V238.378Z" fill="black"/>
<path d="M1151.31 253.714H1144.93V267.172H1151.31V253.714Z" fill="#ECECEC"/>
<path d="M1169.07 253.714H1162.68V267.172H1169.07V253.714Z" fill="#ECECEC"/>
<path d="M1151.31 278.578H1144.93V292.045H1151.31V278.578Z" fill="#ECECEC"/>
<path d="M1169.07 278.578H1162.68V292.045H1169.07V278.578Z" fill="#ECECEC"/>
<path d="M1151.31 303.443H1144.93V316.91H1151.31V303.443Z" fill="#ECECEC"/>
<path d="M1169.07 303.443H1162.68V316.91H1169.07V303.443Z" fill="#ECECEC"/>
<path d="M1151.31 330.644H1144.93V344.102H1151.31V330.644Z" fill="#ECECEC"/>
<path d="M1169.07 331.302H1162.68V344.76H1169.07V331.302Z" fill="#ECECEC"/>
<g opacity="0.4">
<path opacity="0.4" d="M1151.31 253.714H1144.93V267.172H1151.31V253.714Z" fill="black"/>
<path opacity="0.4" d="M1169.07 253.714H1162.68V267.172H1169.07V253.714Z" fill="black"/>
<path opacity="0.4" d="M1151.31 278.578H1144.93V292.045H1151.31V278.578Z" fill="black"/>
<path opacity="0.4" d="M1169.07 278.578H1162.68V292.045H1169.07V278.578Z" fill="black"/>
<path opacity="0.4" d="M1151.31 303.443H1144.93V316.91H1151.31V303.443Z" fill="black"/>
<path opacity="0.4" d="M1169.07 303.443H1162.68V316.91H1169.07V303.443Z" fill="black"/>
<path opacity="0.4" d="M1151.31 330.644H1144.93V344.102H1151.31V330.644Z" fill="black"/>
<path opacity="0.4" d="M1169.07 331.302H1162.68V344.76H1169.07V331.302Z" fill="black"/>
</g>
<path d="M1179.45 325.209C1179.45 325.331 1169.07 325.434 1156.25 325.434C1143.43 325.434 1133.05 325.331 1133.05 325.209C1133.05 325.088 1143.43 324.984 1156.25 324.984C1169.07 324.984 1179.45 325.08 1179.45 325.209Z" fill="#898989"/>
<path d="M1179.45 298.493C1179.45 298.622 1169.07 298.718 1156.25 298.718C1143.43 298.718 1133.05 298.622 1133.05 298.493C1133.05 298.363 1143.43 298.268 1156.25 298.268C1169.07 298.268 1179.45 298.371 1179.45 298.493Z" fill="#898989"/>
<path d="M1179.45 272.832C1179.45 272.953 1169.07 273.057 1156.25 273.057C1143.43 273.057 1133.05 272.953 1133.05 272.832C1133.05 272.711 1143.43 272.607 1156.25 272.607C1169.07 272.607 1179.45 272.667 1179.45 272.832Z" fill="#898989"/>
<g opacity="0.8">
<path opacity="0.8" d="M1179.45 325.209C1179.45 325.331 1169.07 325.434 1156.25 325.434C1143.43 325.434 1133.05 325.331 1133.05 325.209C1133.05 325.088 1143.43 324.984 1156.25 324.984C1169.07 324.984 1179.45 325.08 1179.45 325.209Z" fill="black"/>
<path opacity="0.8" d="M1179.45 298.493C1179.45 298.622 1169.07 298.718 1156.25 298.718C1143.43 298.718 1133.05 298.622 1133.05 298.493C1133.05 298.363 1143.43 298.268 1156.25 298.268C1169.07 298.268 1179.45 298.371 1179.45 298.493Z" fill="black"/>
<path opacity="0.8" d="M1179.45 272.832C1179.45 272.953 1169.07 273.057 1156.25 273.057C1143.43 273.057 1133.05 272.953 1133.05 272.832C1133.05 272.711 1143.43 272.607 1156.25 272.607C1169.07 272.607 1179.45 272.667 1179.45 272.832Z" fill="black"/>
</g>
<path d="M1192.15 254.086H1185.76V267.552H1192.15V254.086Z" fill="#263238"/>
<path d="M1192.15 279.695H1185.76V293.153H1192.15V279.695Z" fill="#263238"/>
<path d="M1192.15 305.312H1185.76V318.779H1192.15V305.312Z" fill="#263238"/>
<path d="M1192.15 330.93H1185.76V344.397H1192.15V330.93Z" fill="#263238"/>
<path d="M1246.61 159.491H1171.19V356.92H1246.61V159.491Z" fill="#C4C4C4"/>
<path opacity="0.8" d="M1247.49 160.374H1209.78V357.803H1247.49V160.374Z" fill="#898989"/>
<path d="M1206.44 136.028H1179.8V159.5H1206.44V136.028Z" fill="#ECECEC"/>
<path d="M1206.43 136.028H1200.08V159.5H1206.43V136.028Z" fill="#263238"/>
<path d="M1230.5 169.729H1224.12V183.196H1230.5V169.729Z" fill="#455A64"/>
<path d="M1246.94 188.475C1246.94 188.596 1238.49 188.7 1228.08 188.7C1217.67 188.7 1209.22 188.596 1209.22 188.475C1209.22 188.354 1217.67 188.25 1228.08 188.25C1238.49 188.25 1246.94 188.354 1246.94 188.475Z" fill="#455A64"/>
<path d="M1230.5 196.455H1224.12V209.913H1230.5V196.455Z" fill="#455A64"/>
<path d="M1246.94 215.201C1246.94 215.33 1238.49 215.426 1228.08 215.426C1217.67 215.426 1209.22 215.33 1209.22 215.201C1209.22 215.071 1217.67 214.976 1228.08 214.976C1238.49 214.976 1246.94 215.079 1246.94 215.201Z" fill="#455A64"/>
<path d="M1230.5 223.994H1224.12V237.46H1230.5V223.994Z" fill="#455A64"/>
<path d="M1246.94 242.74C1246.94 242.861 1238.49 242.965 1228.08 242.965C1217.67 242.965 1209.22 242.861 1209.22 242.74C1209.22 242.618 1217.68 242.541 1228.06 242.541C1238.45 242.541 1246.94 242.61 1246.94 242.74Z" fill="#455A64"/>
<path d="M1230.5 251.524H1224.12V264.991H1230.5V251.524Z" fill="#455A64"/>
<path d="M1246.94 270.235C1246.94 270.365 1238.49 270.46 1228.08 270.46C1217.67 270.46 1209.22 270.365 1209.22 270.235C1209.22 270.105 1217.67 270.01 1228.08 270.01C1238.49 270.01 1246.94 270.149 1246.94 270.235Z" fill="#455A64"/>
<path d="M1230.5 278.275H1224.12V291.733H1230.5V278.275Z" fill="#455A64"/>
<path d="M1246.94 297.065C1246.94 297.186 1238.49 297.29 1228.08 297.29C1217.67 297.29 1209.22 297.186 1209.22 297.065C1209.22 296.943 1217.67 296.84 1228.08 296.84C1238.49 296.84 1246.94 296.892 1246.94 297.065Z" fill="#455A64"/>
<path d="M1230.5 305.131H1224.12V318.589H1230.5V305.131Z" fill="#455A64"/>
<path d="M1230.5 332.332H1224.12V345.799H1230.5V332.332Z" fill="#455A64"/>
<path d="M1246.94 323.894C1246.94 324.015 1238.49 324.119 1228.08 324.119C1217.67 324.119 1209.22 324.015 1209.22 323.894C1209.22 323.773 1217.67 323.669 1228.08 323.669C1238.49 323.669 1246.94 323.747 1246.94 323.894Z" fill="#455A64"/>
<path d="M1248.83 158.123H1164.9V159.491H1248.83V158.123Z" fill="#263238"/>
<path d="M1192.46 169.729H1186.07V183.196H1192.46V169.729Z" fill="#E6E6E6"/>
<path d="M1208.9 188.475C1208.9 188.596 1200.46 188.7 1190.04 188.7C1179.63 188.7 1171.19 188.596 1171.19 188.475C1171.19 188.354 1179.62 188.25 1190.04 188.25C1200.46 188.25 1208.9 188.354 1208.9 188.475Z" fill="#E6E6E6"/>
<path d="M1192.46 196.861H1186.07V210.319H1192.46V196.861Z" fill="#E6E6E6"/>
<path d="M1208.9 215.607C1208.9 215.737 1200.46 215.832 1190.04 215.832C1179.63 215.832 1171.19 215.737 1171.19 215.607C1171.19 215.478 1179.62 215.382 1190.04 215.382C1200.46 215.382 1208.9 215.486 1208.9 215.607Z" fill="#E6E6E6"/>
<path d="M1192.46 224.002H1186.07V237.46H1192.46V224.002Z" fill="#E6E6E6"/>
<path d="M1208.9 242.748C1208.9 242.869 1200.46 242.973 1190.04 242.973C1179.63 242.973 1171.19 242.869 1171.19 242.748C1171.19 242.627 1179.6 242.541 1190.04 242.541C1200.49 242.541 1208.9 242.618 1208.9 242.748Z" fill="#E6E6E6"/>
<path d="M1192.46 251.135H1186.07V264.601H1192.46V251.135Z" fill="#E6E6E6"/>
<path d="M1208.9 269.88C1208.9 270.01 1200.46 270.105 1190.04 270.105C1179.63 270.105 1171.19 270.01 1171.19 269.88C1171.19 269.751 1179.62 269.655 1190.04 269.655C1200.46 269.655 1208.9 269.759 1208.9 269.88Z" fill="#E6E6E6"/>
<path d="M1192.46 278.275H1186.07V291.733H1192.46V278.275Z" fill="#E6E6E6"/>
<path d="M1208.9 297.065C1208.9 297.186 1200.46 297.29 1190.04 297.29C1179.63 297.29 1171.19 297.186 1171.19 297.065C1171.19 296.943 1179.62 296.84 1190.04 296.84C1200.46 296.84 1208.9 296.892 1208.9 297.065Z" fill="#E6E6E6"/>
<path d="M1192.46 305.408H1186.07V318.874H1192.46V305.408Z" fill="#E6E6E6"/>
<path d="M1208.9 324.154C1208.9 324.283 1200.46 324.379 1190.04 324.379C1179.63 324.379 1171.19 324.283 1171.19 324.154C1171.19 324.024 1179.6 323.894 1190.04 323.894C1200.49 323.894 1208.9 324.032 1208.9 324.154Z" fill="#E6E6E6"/>
<path d="M1192.46 332.548H1186.07V346.015H1192.46V332.548Z" fill="#E6E6E6"/>
<path d="M1298.68 276.293H1237.05V357.578H1298.68V276.293Z" fill="#898989"/>
<path d="M1298.68 276.293H1269.78V357.578H1298.68V276.293Z" fill="#ECECEC"/>
<path d="M1255.51 287.293H1249.97V300.76H1255.51V287.293Z" fill="#ECECEC"/>
<path d="M1255.51 339.983H1249.97V353.449H1255.51V339.983Z" fill="#ECECEC"/>
<path d="M1269.78 306.039C1269.78 306.169 1262.45 306.264 1253.41 306.264C1244.38 306.264 1237.05 306.169 1237.05 306.039C1237.05 305.91 1244.37 305.814 1253.41 305.814C1262.46 305.814 1269.78 305.918 1269.78 306.039Z" fill="#455A64"/>
<path d="M1255.51 313.837H1249.97V327.295H1255.51V313.837Z" fill="#ECECEC"/>
<path d="M1269.78 332.549C1269.78 332.678 1262.45 332.774 1253.41 332.774C1244.38 332.774 1237.05 332.678 1237.05 332.549C1237.05 332.419 1244.37 332.323 1253.41 332.323C1262.46 332.323 1269.78 332.462 1269.78 332.549Z" fill="#455A64"/>
<path d="M1281.45 287.293H1275.92V300.76H1281.45V287.293Z" fill="#263238"/>
<path d="M1281.45 312.842H1275.92V326.309H1281.45V312.842Z" fill="#263238"/>
<path d="M1281.45 338.382H1275.92V351.84H1281.45V338.382Z" fill="#263238"/>
<path d="M1303.3 273.463H1232.41V276.397H1303.3V273.463Z" fill="#898989"/>
<path d="M1299.1 276.666C1299.1 276.795 1285.32 276.891 1268.34 276.891C1251.36 276.891 1237.58 276.795 1237.58 276.666C1237.58 276.536 1251.34 276.441 1268.34 276.441C1285.34 276.441 1299.1 276.545 1299.1 276.666Z" fill="#E0E0E0"/>
<path d="M1.99194 94.92C2.71465 94.6972 3.47429 94.6194 4.22715 94.6912C4.95323 94.6611 5.68025 94.7203 6.39195 94.8672L6.33915 94.92C6.33915 94.876 6.33915 94.8496 6.39195 94.8496C6.44475 94.8496 6.39195 94.8496 6.45355 94.92C5.74254 95.0717 5.01491 95.1308 4.28875 95.096C3.51927 95.1988 2.73678 95.1388 1.99194 94.92Z" fill="#E0E0E0"/>
<path d="M4.72874 48.1304C3.27794 48.4354 1.77954 48.4354 0.328735 48.1304C1.77954 47.8253 3.27794 47.8253 4.72874 48.1304Z" fill="#E0E0E0"/>
<path d="M6.39192 55.2584C6.16889 54.5478 6.09109 53.7997 6.16312 53.0584C6.09109 52.3171 6.16889 51.569 6.39192 50.8584C6.61983 51.568 6.69775 52.3171 6.62073 53.0584C6.69775 53.7997 6.61983 54.5488 6.39192 55.2584Z" fill="#E0E0E0"/>
<path d="M6.39192 64.0583C6.16889 63.3478 6.09109 62.5996 6.16312 61.8583C6.09109 61.1171 6.16889 60.3689 6.39192 59.6583C6.61983 60.3679 6.69775 61.1171 6.62073 61.8583C6.69775 62.5996 6.61983 63.3488 6.39192 64.0583Z" fill="#E0E0E0"/>
<path d="M6.39192 72.8584C6.16889 72.1478 6.09109 71.3996 6.16312 70.6584C6.09109 69.9171 6.16889 69.1689 6.39192 68.4584C6.61983 69.1679 6.69775 69.9171 6.62073 70.6584C6.69775 71.3996 6.61983 72.1488 6.39192 72.8584Z" fill="#E0E0E0"/>
<path d="M6.39192 81.6584C6.16889 80.9479 6.09109 80.1997 6.16312 79.4584C6.09109 78.7172 6.16889 77.969 6.39192 77.2584C6.61983 77.968 6.69775 78.7172 6.62073 79.4584C6.69775 80.1997 6.61983 80.9489 6.39192 81.6584Z" fill="#E0E0E0"/>
<path d="M6.39192 90.4583C6.16889 89.7478 6.09109 88.9996 6.16312 88.2583C6.09109 87.5171 6.16889 86.7689 6.39192 86.0583C6.61983 86.7679 6.69775 87.5171 6.62073 88.2583C6.69775 88.9996 6.61983 89.7488 6.39192 90.4583Z" fill="#E0E0E0"/>
<path d="M9.14636 50.92H3.64636V45.3848H9.14636V50.92ZM4.52636 50.04H8.26636V46.2648H4.52636V50.04Z" fill="#E0E0E0"/>
<path d="M9.07591 98.088H3.58472V92.5968H9.07591V98.088ZM4.46472 97.208H8.19591V93.4768H4.46472V97.208Z" fill="#E0E0E0"/>
<path d="M245.4 187.83C246.772 187.605 248.165 187.528 249.554 187.602H249.8L249.571 187.83C249.501 186.521 249.578 185.207 249.8 183.914C250.022 185.207 250.099 186.521 250.029 187.83C250.029 187.891 250.005 187.949 249.962 187.992C249.919 188.035 249.861 188.059 249.8 188.059H249.554C248.165 188.138 246.772 188.062 245.4 187.83Z" fill="#E6E6E6"/>
<path d="M236.6 187.83C238.051 187.525 239.549 187.525 241 187.83C239.549 188.135 238.051 188.135 236.6 187.83Z" fill="#E6E6E6"/>
<path d="M227.8 187.83C229.251 187.525 230.749 187.525 232.2 187.83C230.749 188.135 229.251 188.135 227.8 187.83Z" fill="#E6E6E6"/>
<path d="M219 187.83C220.451 187.525 221.949 187.525 223.4 187.83C221.949 188.135 220.451 188.135 219 187.83Z" fill="#E6E6E6"/>
<path d="M210.2 187.83C211.651 187.525 213.149 187.525 214.6 187.83C213.149 188.135 211.651 188.135 210.2 187.83Z" fill="#E6E6E6"/>
<path d="M201.4 187.83C202.851 187.525 204.349 187.525 205.8 187.83C204.349 188.135 202.851 188.135 201.4 187.83Z" fill="#E6E6E6"/>
<path d="M196.674 183.738C196.902 184.448 196.98 185.197 196.903 185.938C196.915 186.571 196.877 187.204 196.789 187.83L196.674 187.716C196.877 187.716 196.982 187.795 196.982 187.83C196.982 187.866 196.877 187.918 196.674 187.945C196.663 187.947 196.651 187.948 196.639 187.945C196.628 187.943 196.616 187.939 196.607 187.932C196.597 187.926 196.588 187.917 196.582 187.907C196.575 187.897 196.571 187.886 196.569 187.874C196.481 187.248 196.443 186.615 196.454 185.982C196.374 185.227 196.448 184.463 196.674 183.738Z" fill="#E6E6E6"/>
<path d="M196.674 174.938C196.979 176.389 196.979 177.888 196.674 179.338C196.369 177.888 196.369 176.389 196.674 174.938Z" fill="#E6E6E6"/>
<path d="M196.674 166.138C196.979 167.589 196.979 169.087 196.674 170.538C196.369 169.087 196.369 167.589 196.674 166.138Z" fill="#E6E6E6"/>
<path d="M196.674 157.338C196.979 158.789 196.979 160.288 196.674 161.738C196.369 160.288 196.369 158.789 196.674 157.338Z" fill="#E6E6E6"/>
<path d="M196.674 148.538C196.979 149.989 196.979 151.488 196.674 152.938C196.369 151.488 196.369 149.989 196.674 148.538Z" fill="#E6E6E6"/>
<path d="M199.121 142.176C198.411 142.404 197.662 142.482 196.921 142.405H196.674L196.903 142.176C196.973 142.839 196.894 143.509 196.674 144.138C196.465 143.507 196.387 142.839 196.446 142.176C196.446 142.115 196.47 142.057 196.513 142.014C196.556 141.971 196.614 141.947 196.674 141.947H196.921C197.662 141.875 198.41 141.953 199.121 142.176Z" fill="#E6E6E6"/>
<path d="M207.921 142.176C206.47 142.481 204.972 142.481 203.521 142.176C204.972 141.871 206.47 141.871 207.921 142.176Z" fill="#E6E6E6"/>
<path d="M216.721 142.176C215.27 142.481 213.772 142.481 212.321 142.176C213.772 141.871 215.27 141.871 216.721 142.176Z" fill="#E6E6E6"/>
<path d="M225.521 142.176C224.07 142.481 222.572 142.481 221.121 142.176C222.572 141.871 224.07 141.871 225.521 142.176Z" fill="#E6E6E6"/>
<path d="M234.321 142.176C232.87 142.481 231.372 142.481 229.921 142.176C231.372 141.871 232.87 141.871 234.321 142.176Z" fill="#E6E6E6"/>
<path d="M243.121 142.176C241.67 142.481 240.172 142.481 238.721 142.176C240.172 141.871 241.67 141.871 243.121 142.176Z" fill="#E6E6E6"/>
<path d="M249.8 144.314C249.576 143.625 249.498 142.897 249.571 142.176L249.8 142.405H249.738C248.997 142.482 248.248 142.404 247.538 142.176C248.249 141.953 248.997 141.875 249.738 141.947H249.8C249.861 141.947 249.919 141.971 249.962 142.014C250.005 142.057 250.029 142.115 250.029 142.176C250.096 142.897 250.018 143.624 249.8 144.314Z" fill="#E6E6E6"/>
<path d="M249.8 153.114C249.495 151.664 249.495 150.165 249.8 148.714C250.105 150.165 250.105 151.664 249.8 153.114Z" fill="#E6E6E6"/>
<path d="M249.8 161.914C249.495 160.464 249.495 158.965 249.8 157.514C250.105 158.965 250.105 160.464 249.8 161.914Z" fill="#E6E6E6"/>
<path d="M249.8 170.714C249.495 169.264 249.495 167.765 249.8 166.314C250.105 167.765 250.105 169.264 249.8 170.714Z" fill="#E6E6E6"/>
<path d="M249.8 179.514C249.495 178.064 249.495 176.565 249.8 175.114C250.105 176.565 250.105 178.064 249.8 179.514Z" fill="#E6E6E6"/>
<path d="M252.44 144.869H247.063V139.492H252.44V144.869ZM247.943 143.989H251.56V140.372H247.943V143.989Z" fill="#E6E6E6"/>
<path d="M199.367 144.869H193.99V139.492H199.367V144.869ZM194.87 143.989H198.487V140.372H194.87V143.989Z" fill="#E6E6E6"/>
<path d="M199.367 190.928H193.99V185.56H199.367V190.928ZM194.87 190.048H198.487V186.44H194.87V190.048Z" fill="#E6E6E6"/>
<path d="M252.44 190.928H247.063V185.56H252.44V190.928ZM247.943 190.048H251.56V186.44H247.943V190.048Z" fill="#E6E6E6"/>
<path d="M190.198 109.202H231.813C231.813 109.202 227.712 104.6 222.309 104.6C218.912 104.6 216.404 106.65 213.773 104.873C212.374 103.922 208.563 99.2231 201.25 100.077C193.938 100.93 190.198 109.202 190.198 109.202Z" fill="#E0E0E0"/>
<path d="M41.24 71.732H85.6976C85.6976 71.732 81.28 66.76 75.5072 66.76C71.8728 66.76 69.1888 68.96 66.3816 67.0504C64.8856 66.0472 60.82 61.0224 53.0056 61.9288C45.1912 62.8352 41.24 71.732 41.24 71.732Z" fill="#E6E6E6"/>
<path d="M211.08 161.721C211.08 161.721 205.166 159.274 201.206 173.038C197.246 186.801 196.226 194.492 196.226 194.492C196.226 194.492 195.046 197.44 192.908 196.076C190.77 194.712 187.364 190.321 184.469 191.79C181.574 193.26 181.107 197.07 182.709 202.157C184.31 207.243 187.452 218.542 187.725 219.563C187.998 220.584 187.725 222.203 186.106 221.482C184.486 220.76 174.604 213.289 171.33 218.199C168.057 223.11 174.85 236.565 175.607 238.052C176.364 239.539 176.144 240.261 175.475 240.798C174.806 241.334 171.718 238.492 168.814 236.477C165.91 234.462 162.196 232.631 160.542 235.597C158.887 238.562 160.269 249.404 173.803 264.795L180.535 271.518L189.802 269.186C209.338 262.982 216.096 254.429 216.202 251.014C216.307 247.6 212.198 247.248 208.678 247.494C205.158 247.741 201.039 248.559 200.758 247.758C200.476 246.958 200.687 246.245 202.069 245.338C203.45 244.432 216.246 236.442 215.973 230.546C215.7 224.65 203.354 225.961 201.62 225.732C199.886 225.503 200.467 223.972 201.224 223.25C201.981 222.529 210.499 214.45 214.512 210.93C218.525 207.41 220.144 204.005 218.358 201.145C216.571 198.285 211.45 200.397 208.924 200.467C206.398 200.538 206.9 197.396 206.9 197.396C206.9 197.396 209.998 190.277 213.702 176.452C217.407 162.627 210.93 161.677 210.93 161.677" fill="#DA2828"/>
<path d="M207.49 174.041C207.484 174.142 207.466 174.243 207.437 174.34L207.226 175.22C207.032 176.003 206.75 177.103 206.39 178.502C205.659 181.354 204.559 185.463 203.186 190.541C200.432 200.687 196.507 214.679 192.107 230.141C187.707 245.602 183.8 259.48 180.905 269.618L177.552 281.612C177.165 283.011 176.857 284.102 176.672 284.877C176.566 285.229 176.487 285.502 176.417 285.757C176.396 285.854 176.364 285.949 176.32 286.038C176.326 285.937 176.343 285.836 176.373 285.739L176.584 284.859C176.778 284.076 177.059 282.976 177.42 281.577C178.15 278.726 179.25 274.616 180.623 269.538C183.378 259.392 187.302 245.4 191.702 229.938C196.102 214.477 200.036 200.546 202.905 190.409L206.258 178.414C206.645 177.015 206.953 175.924 207.138 175.15C207.243 174.798 207.322 174.525 207.393 174.27C207.417 174.19 207.45 174.114 207.49 174.041Z" fill="#263238"/>
<path d="M188.974 198.118C189.477 198.814 189.908 199.56 190.259 200.344C190.981 201.752 191.922 203.723 192.899 205.914L195.39 211.564C195.772 212.33 196.101 213.121 196.375 213.931C195.874 213.235 195.446 212.489 195.099 211.705C194.386 210.288 193.471 208.308 192.459 206.108L189.96 200.52C189.572 199.745 189.242 198.942 188.974 198.118Z" fill="#263238"/>
<path d="M197.282 213.931C197.22 213.817 201.189 211.678 206.143 209.153C211.098 206.627 215.163 204.674 215.225 204.753C215.286 204.832 211.309 207.006 206.354 209.531C201.4 212.057 197.334 214.037 197.282 213.931Z" fill="#263238"/>
<path d="M189.458 237.322C190.293 237.064 191.146 236.873 192.01 236.75C193.586 236.424 195.768 235.993 198.17 235.43C200.573 234.866 202.711 234.312 204.269 233.89C205.1 233.623 205.95 233.42 206.812 233.282C206.025 233.656 205.202 233.951 204.357 234.162C202.826 234.655 200.678 235.28 198.276 235.834C195.874 236.389 193.665 236.785 192.072 237.022C191.213 237.207 190.337 237.307 189.458 237.322Z" fill="#263238"/>
<path d="M178.802 224.676C179.419 225.211 179.988 225.8 180.5 226.436C181.512 227.536 182.876 229.076 184.363 230.792C185.85 232.508 187.179 234.083 188.121 235.245C188.668 235.837 189.154 236.483 189.573 237.172C188.955 236.654 188.387 236.079 187.874 235.456C186.871 234.356 185.507 232.816 184.011 231.056C182.515 229.296 181.204 227.765 180.254 226.612C179.708 226.015 179.222 225.367 178.802 224.676Z" fill="#263238"/>
<path d="M169.271 244.458C170.048 245.138 170.772 245.877 171.436 246.667C172.73 248.075 174.498 250.038 176.426 252.22C178.353 254.402 180.078 256.409 181.31 257.87C182.011 258.627 182.655 259.436 183.237 260.29C182.455 259.611 181.729 258.873 181.063 258.081C179.77 256.673 178.01 254.71 176.082 252.528C174.155 250.346 172.43 248.339 171.198 246.878C170.499 246.118 169.855 245.31 169.271 244.458Z" fill="#263238"/>
<path d="M183.008 259.814C184.061 259.477 185.134 259.203 186.22 258.996C188.209 258.521 190.954 257.878 193.973 257.086C196.991 256.294 199.702 255.52 201.664 254.948L203.996 254.288C204.281 254.189 204.576 254.124 204.876 254.094C204.622 254.254 204.346 254.375 204.058 254.455C203.53 254.658 202.746 254.939 201.77 255.256C199.825 255.907 197.123 256.734 194.096 257.526C191.069 258.318 188.306 258.917 186.29 259.286C185.287 259.48 184.469 259.621 183.906 259.709C183.613 259.786 183.311 259.822 183.008 259.814Z" fill="#263238"/>
<path d="M152.322 159.556C152.017 158.105 152.017 156.607 152.322 155.156C152.627 156.607 152.627 158.105 152.322 159.556Z" fill="#263238"/>
<path d="M152.322 168.356C152.017 166.905 152.017 165.407 152.322 163.956C152.627 165.407 152.627 166.905 152.322 168.356Z" fill="#263238"/>
<path d="M152.322 177.156C152.017 175.705 152.017 174.207 152.322 172.756C152.627 174.207 152.627 175.705 152.322 177.156Z" fill="#263238"/>
<path d="M152.322 185.956C152.017 184.505 152.017 183.007 152.322 181.556C152.627 183.007 152.627 184.505 152.322 185.956Z" fill="#263238"/>
<path d="M152.322 194.756C152.017 193.305 152.017 191.807 152.322 190.356C152.627 191.807 152.627 193.305 152.322 194.756Z" fill="#263238"/>
<path d="M152.322 203.556C152.017 202.105 152.017 200.607 152.322 199.156C152.627 200.607 152.627 202.105 152.322 203.556Z" fill="#263238"/>
<path d="M152.322 212.356C152.017 210.905 152.017 209.407 152.322 207.956C152.627 209.407 152.627 210.905 152.322 212.356Z" fill="#263238"/>
<path d="M152.322 221.156C152.017 219.705 152.017 218.207 152.322 216.756C152.627 218.207 152.627 219.705 152.322 221.156Z" fill="#263238"/>
<path d="M152.322 229.956C152.017 228.505 152.017 227.007 152.322 225.556C152.627 227.007 152.627 228.505 152.322 229.956Z" fill="#263238"/>
<path d="M152.322 238.756C152.017 237.305 152.017 235.807 152.322 234.356C152.627 235.807 152.627 237.305 152.322 238.756Z" fill="#263238"/>
<path d="M152.322 247.556C152.017 246.105 152.017 244.607 152.322 243.156C152.627 244.607 152.627 246.105 152.322 247.556Z" fill="#263238"/>
<path d="M152.322 256.356C152.017 254.905 152.017 253.407 152.322 251.956C152.627 253.407 152.627 254.905 152.322 256.356Z" fill="#263238"/>
<path d="M152.322 265.156C152.017 263.705 152.017 262.207 152.322 260.756C152.627 262.207 152.627 263.705 152.322 265.156Z" fill="#263238"/>
<path d="M152.322 273.956C152.017 272.505 152.017 271.007 152.322 269.556C152.627 271.007 152.627 272.505 152.322 273.956Z" fill="#263238"/>
<path d="M152.322 282.756C152.017 281.305 152.017 279.807 152.322 278.356C152.627 279.807 152.627 281.305 152.322 282.756Z" fill="#263238"/>
<path d="M152.322 291.556C152.017 290.105 152.017 288.607 152.322 287.156C152.627 288.607 152.627 290.105 152.322 291.556Z" fill="#263238"/>
<path d="M152.322 300.356C152.017 298.905 152.017 297.407 152.322 295.956C152.627 297.407 152.627 298.905 152.322 300.356Z" fill="#263238"/>
<path d="M152.322 309.156C152.017 307.705 152.017 306.207 152.322 304.756C152.627 306.207 152.627 307.705 152.322 309.156Z" fill="#263238"/>
<path d="M152.322 317.956C152.017 316.505 152.017 315.007 152.322 313.556C152.627 315.007 152.627 316.505 152.322 317.956Z" fill="#263238"/>
<path d="M152.322 326.756C152.017 325.305 152.017 323.807 152.322 322.356C152.627 323.807 152.627 325.305 152.322 326.756Z" fill="#263238"/>
<path d="M152.322 335.556C152.017 334.105 152.017 332.607 152.322 331.156C152.627 332.607 152.627 334.105 152.322 335.556Z" fill="#263238"/>
<path d="M152.322 344.356C152.017 342.905 152.017 341.407 152.322 339.956C152.627 341.407 152.627 342.905 152.322 344.356Z" fill="#263238"/>
<path d="M152.322 353.156C152.017 351.705 152.017 350.207 152.322 348.756C152.627 350.207 152.627 351.705 152.322 353.156Z" fill="#263238"/>
<path d="M145.08 354.714C146.531 354.409 148.029 354.409 149.48 354.714C148.029 355.019 146.531 355.019 145.08 354.714Z" fill="#263238"/>
<path d="M136.28 354.714C137.731 354.409 139.229 354.409 140.68 354.714C139.229 355.019 137.731 355.019 136.28 354.714Z" fill="#263238"/>
<path d="M132.76 349.398C133.065 350.849 133.065 352.348 132.76 353.798C132.455 352.348 132.455 350.849 132.76 349.398Z" fill="#263238"/>
<path d="M132.76 340.598C133.065 342.049 133.065 343.548 132.76 344.998C132.455 343.548 132.455 342.049 132.76 340.598Z" fill="#263238"/>
<path d="M132.76 331.798C133.065 333.249 133.065 334.748 132.76 336.198C132.455 334.748 132.455 333.249 132.76 331.798Z" fill="#263238"/>
<path d="M132.76 322.998C133.065 324.449 133.065 325.948 132.76 327.398C132.455 325.948 132.455 324.449 132.76 322.998Z" fill="#263238"/>
<path d="M132.76 314.198C133.065 315.649 133.065 317.148 132.76 318.598C132.455 317.148 132.455 315.649 132.76 314.198Z" fill="#263238"/>
<path d="M132.76 305.398C133.065 306.849 133.065 308.348 132.76 309.798C132.455 308.348 132.455 306.849 132.76 305.398Z" fill="#263238"/>
<path d="M132.76 296.598C133.065 298.049 133.065 299.548 132.76 300.998C132.455 299.548 132.455 298.049 132.76 296.598Z" fill="#263238"/>
<path d="M132.76 287.798C133.065 289.249 133.065 290.748 132.76 292.198C132.455 290.748 132.455 289.249 132.76 287.798Z" fill="#263238"/>
<path d="M132.76 278.998C133.065 280.449 133.065 281.948 132.76 283.398C132.455 281.948 132.455 280.449 132.76 278.998Z" fill="#263238"/>
<path d="M132.76 270.198C133.065 271.649 133.065 273.148 132.76 274.598C132.455 273.148 132.455 271.649 132.76 270.198Z" fill="#263238"/>
<path d="M132.76 261.398C133.065 262.849 133.065 264.348 132.76 265.798C132.455 264.348 132.455 262.849 132.76 261.398Z" fill="#263238"/>
<path d="M132.76 252.598C133.065 254.049 133.065 255.548 132.76 256.998C132.455 255.548 132.455 254.049 132.76 252.598Z" fill="#263238"/>
<path d="M132.76 243.798C133.065 245.249 133.065 246.748 132.76 248.198C132.455 246.748 132.455 245.249 132.76 243.798Z" fill="#263238"/>
<path d="M132.76 234.998C133.065 236.449 133.065 237.948 132.76 239.398C132.455 237.948 132.455 236.449 132.76 234.998Z" fill="#263238"/>
<path d="M132.76 226.198C133.065 227.649 133.065 229.148 132.76 230.598C132.455 229.148 132.455 227.649 132.76 226.198Z" fill="#263238"/>
<path d="M132.76 217.398C133.065 218.849 133.065 220.348 132.76 221.798C132.455 220.348 132.455 218.849 132.76 217.398Z" fill="#263238"/>
<path d="M132.76 208.598C133.065 210.049 133.065 211.548 132.76 212.998C132.455 211.548 132.455 210.049 132.76 208.598Z" fill="#263238"/>
<path d="M132.76 199.798C133.065 201.249 133.065 202.748 132.76 204.198C132.455 202.748 132.455 201.249 132.76 199.798Z" fill="#263238"/>
<path d="M132.76 190.998C133.065 192.449 133.065 193.948 132.76 195.398C132.455 193.948 132.455 192.449 132.76 190.998Z" fill="#263238"/>
<path d="M132.76 182.198C133.065 183.649 133.065 185.148 132.76 186.598C132.455 185.148 132.455 183.649 132.76 182.198Z" fill="#263238"/>
<path d="M132.76 173.398C133.065 174.849 133.065 176.348 132.76 177.798C132.455 176.348 132.455 174.849 132.76 173.398Z" fill="#263238"/>
<path d="M132.76 164.598C133.065 166.049 133.065 167.548 132.76 168.998C132.455 167.548 132.455 166.049 132.76 164.598Z" fill="#263238"/>
<path d="M132.76 155.798C133.065 157.249 133.065 158.748 132.76 160.198C132.455 158.748 132.455 157.249 132.76 155.798Z" fill="#263238"/>
<path d="M132.76 146.998C133.065 148.449 133.065 149.948 132.76 151.398C132.455 149.948 132.455 148.449 132.76 146.998Z" fill="#263238"/>
<path d="M132.76 138.198C133.065 139.649 133.065 141.148 132.76 142.598C132.455 141.148 132.455 139.649 132.76 138.198Z" fill="#263238"/>
<path d="M71.3623 352.514C71.5902 353.223 71.6681 353.972 71.5911 354.714L71.3623 354.485H71.8111H72.2247H72.9199C73.3159 354.529 73.5623 354.59 73.5623 354.652C73.5623 354.714 73.3159 354.775 72.9199 354.81C72.7175 354.81 72.4887 354.854 72.2247 354.863H71.3447L71.1159 354.634C71.0601 353.918 71.1438 353.198 71.3623 352.514Z" fill="#263238"/>
<path d="M71.3623 343.74C71.6699 345.191 71.6699 346.689 71.3623 348.14C71.0547 346.689 71.0547 345.191 71.3623 343.74Z" fill="#263238"/>
<path d="M71.3623 334.966C71.6687 336.417 71.6687 337.916 71.3623 339.366C71.056 337.916 71.056 336.417 71.3623 334.966Z" fill="#263238"/>
<path d="M71.3623 326.193C71.6687 327.644 71.6687 329.142 71.3623 330.593C71.056 329.142 71.056 327.644 71.3623 326.193Z" fill="#263238"/>
<path d="M71.3623 317.419C71.6687 318.87 71.6687 320.369 71.3623 321.819C71.056 320.369 71.056 318.87 71.3623 317.419Z" fill="#263238"/>
<path d="M71.3623 308.654C71.6699 310.105 71.6699 311.604 71.3623 313.054C71.0547 311.604 71.0547 310.105 71.3623 308.654Z" fill="#263238"/>
<path d="M71.3623 299.881C71.6699 301.331 71.6699 302.83 71.3623 304.281C71.0547 302.83 71.0547 301.331 71.3623 299.881Z" fill="#263238"/>
<path d="M71.3623 291.107C71.6699 292.558 71.6699 294.057 71.3623 295.507C71.0547 294.057 71.0547 292.558 71.3623 291.107Z" fill="#263238"/>
<path d="M71.3623 282.36C71.6699 283.811 71.6699 285.309 71.3623 286.76C71.0547 285.309 71.0547 283.811 71.3623 282.36Z" fill="#263238"/>
<path d="M71.3623 273.56C71.6699 275.011 71.6699 276.51 71.3623 277.96C71.0547 276.51 71.0547 275.011 71.3623 273.56Z" fill="#263238"/>
<path d="M71.3623 264.76C71.6687 266.211 71.6687 267.709 71.3623 269.16C71.056 267.709 71.056 266.211 71.3623 264.76Z" fill="#263238"/>
<path d="M71.3623 256.013C71.6687 257.463 71.6687 258.962 71.3623 260.413C71.056 258.962 71.056 257.463 71.3623 256.013Z" fill="#263238"/>
<path d="M71.3623 247.239C71.6687 248.69 71.6687 250.189 71.3623 251.639C71.056 250.189 71.056 248.69 71.3623 247.239Z" fill="#263238"/>
<path d="M71.3623 238.474C71.6699 239.925 71.6699 241.424 71.3623 242.874C71.0547 241.424 71.0547 239.925 71.3623 238.474Z" fill="#263238"/>
<path d="M71.3623 229.701C71.6699 231.151 71.6699 232.65 71.3623 234.101C71.0547 232.65 71.0547 231.151 71.3623 229.701Z" fill="#263238"/>
<path d="M71.3623 220.927C71.6699 222.378 71.6699 223.877 71.3623 225.327C71.0547 223.877 71.0547 222.378 71.3623 220.927Z" fill="#263238"/>
<path d="M71.3623 212.154C71.6699 213.604 71.6699 215.103 71.3623 216.554C71.0547 215.103 71.0547 213.604 71.3623 212.154Z" fill="#263238"/>
<path d="M71.3623 203.38C71.6687 204.831 71.6687 206.329 71.3623 207.78C71.056 206.329 71.056 204.831 71.3623 203.38Z" fill="#263238"/>
<path d="M71.3623 194.606C71.6687 196.057 71.6687 197.556 71.3623 199.006C71.056 197.556 71.056 196.057 71.3623 194.606Z" fill="#263238"/>
<path d="M71.3623 185.833C71.6687 187.283 71.6687 188.782 71.3623 190.233C71.056 188.782 71.056 187.283 71.3623 185.833Z" fill="#263238"/>
<path d="M71.3623 177.068C71.6699 178.519 71.6699 180.017 71.3623 181.468C71.0547 180.017 71.0547 178.519 71.3623 177.068Z" fill="#263238"/>
<path d="M71.3623 168.294C71.6699 169.745 71.6699 171.244 71.3623 172.694C71.0547 171.244 71.0547 169.745 71.3623 168.294Z" fill="#263238"/>
<path d="M71.3623 159.521C71.6699 160.971 71.6699 162.47 71.3623 163.921C71.0547 162.47 71.0547 160.971 71.3623 159.521Z" fill="#263238"/>
<path d="M71.3623 150.747C71.6699 152.198 71.6699 153.697 71.3623 155.147C71.0547 153.697 71.0547 152.198 71.3623 150.747Z" fill="#263238"/>
<path d="M71.3623 141.974C71.6687 143.424 71.6687 144.923 71.3623 146.374C71.056 144.923 71.056 143.424 71.3623 141.974Z" fill="#263238"/>
<path d="M71.3623 133.2C71.6687 134.651 71.6687 136.149 71.3623 137.6C71.056 136.149 71.056 134.651 71.3623 133.2Z" fill="#263238"/>
<path d="M132.76 138.682C132.451 137.232 132.451 135.733 132.76 134.282C133.069 135.733 133.069 137.232 132.76 138.682Z" fill="#263238"/>
<path d="M132.76 147.412C132.451 145.962 132.451 144.462 132.76 143.012C133.069 144.462 133.069 145.962 132.76 147.412Z" fill="#263238"/>
<path d="M132.76 156.142C132.451 154.691 132.451 153.192 132.76 151.742C133.069 153.192 133.069 154.691 132.76 156.142Z" fill="#263238"/>
<path d="M132.76 164.871C132.451 163.421 132.451 161.922 132.76 160.471C133.069 161.922 133.069 163.421 132.76 164.871Z" fill="#263238"/>
<path d="M132.76 173.592C132.451 172.142 132.451 170.642 132.76 169.192C133.069 170.642 133.069 172.142 132.76 173.592Z" fill="#263238"/>
<path d="M132.76 182.322C132.451 180.871 132.451 179.372 132.76 177.922C133.069 179.372 133.069 180.871 132.76 182.322Z" fill="#263238"/>
<path d="M132.76 191.051C132.451 189.601 132.451 188.102 132.76 186.651C133.069 188.102 133.069 189.601 132.76 191.051Z" fill="#263238"/>
<path d="M132.76 199.781C132.451 198.33 132.451 196.831 132.76 195.381C133.069 196.831 133.069 198.33 132.76 199.781Z" fill="#263238"/>
<path d="M132.76 208.502C132.455 207.066 132.455 205.582 132.76 204.146C133.065 205.582 133.065 207.066 132.76 208.502Z" fill="#263238"/>
<path d="M132.76 217.24C132.451 215.79 132.451 214.29 132.76 212.84C133.069 214.29 133.069 215.79 132.76 217.24Z" fill="#263238"/>
<path d="M132.76 225.961C132.451 224.51 132.451 223.011 132.76 221.561C133.069 223.011 133.069 224.51 132.76 225.961Z" fill="#263238"/>
<path d="M132.76 234.69C132.451 233.24 132.451 231.741 132.76 230.29C133.069 231.741 133.069 233.24 132.76 234.69Z" fill="#263238"/>
<path d="M132.76 243.42C132.451 241.97 132.451 240.47 132.76 239.02C133.069 240.47 133.069 241.97 132.76 243.42Z" fill="#263238"/>
<path d="M132.76 252.141C132.451 250.69 132.451 249.191 132.76 247.741C133.069 249.191 133.069 250.69 132.76 252.141Z" fill="#263238"/>
<path d="M132.76 260.87C132.451 259.42 132.451 257.921 132.76 256.47C133.069 257.921 133.069 259.42 132.76 260.87Z" fill="#263238"/>
<path d="M132.76 269.6C132.451 268.15 132.451 266.65 132.76 265.2C133.069 266.65 133.069 268.15 132.76 269.6Z" fill="#263238"/>
<path d="M132.76 278.33C132.451 276.879 132.451 275.38 132.76 273.93C133.069 275.38 133.069 276.879 132.76 278.33Z" fill="#263238"/>
<path d="M132.76 287.05C132.455 285.614 132.455 284.13 132.76 282.694C133.065 284.13 133.065 285.614 132.76 287.05Z" fill="#263238"/>
<path d="M132.76 295.78C132.451 294.33 132.451 292.83 132.76 291.38C133.069 292.83 133.069 294.33 132.76 295.78Z" fill="#263238"/>
<path d="M132.76 304.51C132.451 303.059 132.451 301.56 132.76 300.11C133.069 301.56 133.069 303.059 132.76 304.51Z" fill="#263238"/>
<path d="M132.76 313.239C132.451 311.789 132.451 310.29 132.76 308.839C133.069 310.29 133.069 311.789 132.76 313.239Z" fill="#263238"/>
<path d="M132.76 321.96C132.451 320.51 132.451 319.01 132.76 317.56C133.069 319.01 133.069 320.51 132.76 321.96Z" fill="#263238"/>
<path d="M132.76 330.69C132.451 329.239 132.451 327.74 132.76 326.29C133.069 327.74 133.069 329.239 132.76 330.69Z" fill="#263238"/>
<path d="M132.76 339.419C132.451 337.969 132.451 336.47 132.76 335.019C133.069 336.47 133.069 337.969 132.76 339.419Z" fill="#263238"/>
<path d="M132.76 348.149C132.451 346.698 132.451 345.199 132.76 343.749C133.069 345.199 133.069 346.698 132.76 348.149Z" fill="#263238"/>
<path d="M130.586 354.714C131.29 354.501 132.03 354.435 132.76 354.52L132.531 354.749V353.922C132.531 353.658 132.531 353.42 132.584 353.218C132.584 352.822 132.681 352.575 132.742 352.575C132.804 352.575 132.866 352.822 132.91 353.218C132.91 353.42 132.91 353.658 132.91 353.922C132.91 354.186 132.91 354.203 132.91 354.326V354.749L132.681 354.978C131.972 355.024 131.261 354.935 130.586 354.714Z" fill="#263238"/>
<path d="M121.813 354.714C123.263 354.407 124.762 354.407 126.213 354.714C124.762 355.02 123.263 355.02 121.813 354.714Z" fill="#263238"/>
<path d="M113.048 354.714C114.499 354.406 115.997 354.406 117.448 354.714C115.997 355.021 114.499 355.021 113.048 354.714Z" fill="#263238"/>
<path d="M104.274 354.714C105.725 354.406 107.224 354.406 108.674 354.714C107.224 355.021 105.725 355.021 104.274 354.714Z" fill="#263238"/>
<path d="M95.5007 354.714C96.9513 354.406 98.4502 354.406 99.9007 354.714C98.4502 355.021 96.9513 355.021 95.5007 354.714Z" fill="#263238"/>
<path d="M86.7271 354.714C88.1776 354.406 89.6765 354.406 91.127 354.714C89.6765 355.021 88.1776 355.021 86.7271 354.714Z" fill="#263238"/>
<path d="M77.9535 354.714C79.404 354.406 80.903 354.406 82.3535 354.714C80.903 355.021 79.404 355.021 77.9535 354.714Z" fill="#263238"/>
<path d="M123.098 133.649H116.603V147.342H123.098V133.649Z" fill="#FF725E"/>
<path d="M123.098 160.269H116.603V173.962H123.098V160.269Z" fill="#FF725E"/>
<path d="M123.098 186.88H116.603V200.573H123.098V186.88Z" fill="#FF725E"/>
<path d="M123.098 213.5H116.603V227.193H123.098V213.5Z" fill="#FF725E"/>
<path d="M87.3432 240.111H80.8488V253.804H87.3432V240.111Z" fill="#FF725E"/>
<path d="M105.225 240.111H98.7303V253.804H105.225V240.111Z" fill="#FF725E"/>
<path d="M123.098 240.111H116.603V253.804H123.098V240.111Z" fill="#FF725E"/>
<path d="M87.3432 266.731H80.8488V280.424H87.3432V266.731Z" fill="#FF725E"/>
<path d="M105.225 266.731H98.7303V280.424H105.225V266.731Z" fill="#FF725E"/>
<path d="M123.098 266.731H116.603V280.424H123.098V266.731Z" fill="#FF725E"/>
<path d="M87.3432 293.342H80.8488V307.035H87.3432V293.342Z" fill="#FF725E"/>
<path d="M105.225 293.342H98.7303V307.035H105.225V293.342Z" fill="#FF725E"/>
<path d="M123.098 293.342H116.603V307.035H123.098V293.342Z" fill="#FF725E"/>
<path d="M87.3432 319.954H80.8488V333.638H87.3432V319.954Z" fill="#FF725E"/>
<path d="M105.225 319.954H98.7303V333.638H105.225V319.954Z" fill="#FF725E"/>
<path d="M123.098 319.954H116.603V333.638H123.098V319.954Z" fill="#FF725E"/>
<path d="M146.426 146.69H139.932V160.374H146.426V146.69Z" fill="#263238"/>
<path d="M146.426 176.162H139.932V189.846H146.426V176.162Z" fill="#263238"/>
<path d="M146.426 205.633H139.932V219.326H146.426V205.633Z" fill="#263238"/>
<path d="M146.426 235.104H139.932V248.788H146.426V235.104Z" fill="#263238"/>
<path d="M146.426 264.584H139.932V278.277H146.426V264.584Z" fill="#263238"/>
<path d="M146.426 294.055H139.932V307.739H146.426V294.055Z" fill="#263238"/>
<path d="M146.426 323.526H139.932V337.21H146.426V323.526Z" fill="#263238"/>
<path d="M75.6127 129.319H-9.80005V356.201H75.6127V129.319Z" fill="#C4C4C4"/>
<path opacity="0.8" d="M75.604 129.319H42.8328V356.201H75.604V129.319Z" fill="#898989"/>
<path d="M8.8472 146.664H2.35278V160.348H8.8472V146.664Z" fill="#263238"/>
<path d="M26.1215 146.664H19.6271V160.348H26.1215V146.664Z" fill="#263238"/>
<path d="M8.8472 172.738H2.35278V186.431H8.8472V172.738Z" fill="#263238"/>
<path d="M26.1215 172.738H19.6271V186.431H26.1215V172.738Z" fill="#263238"/>
<path d="M8.8472 198.813H2.35278V212.497H8.8472V198.813Z" fill="#263238"/>
<path d="M26.1215 198.813H19.6271V212.497H26.1215V198.813Z" fill="#263238"/>
<path d="M8.8472 224.887H2.35278V238.571H8.8472V224.887Z" fill="#263238"/>
<path d="M26.1215 224.887H19.6271V238.571H26.1215V224.887Z" fill="#263238"/>
<path d="M8.8472 250.962H2.35278V264.654H8.8472V250.962Z" fill="#263238"/>
<path d="M26.1215 250.962H19.6271V264.654H26.1215V250.962Z" fill="#263238"/>
<path d="M8.8472 277.027H2.35278V290.72H8.8472V277.027Z" fill="#263238"/>
<path d="M26.1215 277.027H19.6271V290.72H26.1215V277.027Z" fill="#263238"/>
<path d="M8.8472 303.102H2.35278V316.786H8.8472V303.102Z" fill="#263238"/>
<path d="M26.1215 303.102H19.6271V316.786H26.1215V303.102Z" fill="#263238"/>
<path d="M8.8472 329.176H2.35278V342.869H8.8472V329.176Z" fill="#263238"/>
<path d="M26.1215 329.176H19.6271V342.869H26.1215V329.176Z" fill="#263238"/>
<path d="M62.4744 147.227H55.98V160.911H62.4744V147.227Z" fill="#455A64"/>
<path d="M62.4744 171.242H55.98V184.935H62.4744V171.242Z" fill="#455A64"/>
<path d="M62.4744 198.126H55.98V211.819H62.4744V198.126Z" fill="#455A64"/>
<path d="M62.4744 223.831H55.98V237.524H62.4744V223.831Z" fill="#455A64"/>
<path d="M62.4744 249.527H55.98V263.22H62.4744V249.527Z" fill="#455A64"/>
<path d="M62.4744 275.223H55.98V288.916H62.4744V275.223Z" fill="#455A64"/>
<path d="M62.4744 300.928H55.98V314.612H62.4744V300.928Z" fill="#455A64"/>
<path d="M62.4744 329.176H55.98V342.869H62.4744V329.176Z" fill="#455A64"/>
<path d="M79.8631 127.894H-17.2449V130.542H79.8631V127.894Z" fill="#263238"/>
<path d="M59.2182 111.93H24.6519V129.222H59.2182V111.93Z" fill="#263238"/>
<path d="M42.8327 111.93H24.6519V127.894H42.8327V111.93Z" fill="#ECECEC"/>
<path d="M42.8327 165.725C42.8327 165.848 31.0496 165.954 16.5208 165.954C1.99195 165.954 -9.80005 165.848 -9.80005 165.725C-9.80005 165.602 1.98315 165.496 16.5208 165.496C31.0584 165.496 42.8327 165.602 42.8327 165.725Z" fill="#263238"/>
<path d="M42.8327 191.887C42.8327 192.019 31.0496 192.125 16.5208 192.125C1.99195 192.125 -9.80005 192.019 -9.80005 191.887C-9.80005 191.755 1.98315 191.658 16.5208 191.658C31.0584 191.658 42.8327 191.764 42.8327 191.887Z" fill="#263238"/>
<path d="M42.8327 218.375C42.8327 218.498 31.0496 218.604 16.5208 218.604C1.99195 218.604 -9.80005 218.498 -9.80005 218.375C-9.80005 218.252 1.98315 218.146 16.5208 218.146C31.0584 218.146 42.8327 218.243 42.8327 218.375Z" fill="#263238"/>
<path d="M42.8327 244.661C42.8327 244.793 31.0496 244.89 16.5208 244.89C1.99195 244.89 -9.80005 244.793 -9.80005 244.661C-9.80005 244.529 1.98315 244.432 16.5208 244.432C31.0584 244.432 42.8327 244.52 42.8327 244.661Z" fill="#263238"/>
<path d="M42.8327 270.577C42.8327 270.7 31.0496 270.806 16.5208 270.806C1.99195 270.806 -9.80005 270.7 -9.80005 270.577C-9.80005 270.454 1.98315 270.348 16.5208 270.348C31.0584 270.348 42.8327 270.454 42.8327 270.577Z" fill="#263238"/>
<path d="M42.8327 295.789C42.8327 295.912 31.0496 296.018 16.5208 296.018C1.99195 296.018 -9.80005 295.912 -9.80005 295.789C-9.80005 295.666 1.98315 295.56 16.5208 295.56C31.0584 295.56 42.8327 295.657 42.8327 295.789Z" fill="#263238"/>
<path d="M42.8327 323.72C42.8327 323.843 31.0496 323.949 16.5208 323.949C1.99195 323.949 -9.80005 323.852 -9.80005 323.72C-9.80005 323.588 1.98315 323.491 16.5208 323.491C31.0584 323.491 42.8327 323.597 42.8327 323.72Z" fill="#263238"/>
<path d="M75.2343 131.598C75.2343 131.73 68.1943 131.827 59.5615 131.827C50.9287 131.827 43.8887 131.73 43.8887 131.598C43.8887 131.466 50.9287 131.37 59.5615 131.37C68.1943 131.37 75.2343 131.475 75.2343 131.598Z" fill="#455A64"/>
<path d="M75.2344 165.725C75.2344 165.848 68.1944 165.954 59.5616 165.954C50.9288 165.954 43.88 165.848 43.88 165.725C43.88 165.602 50.92 165.496 59.5528 165.496C68.1856 165.496 75.2344 165.602 75.2344 165.725Z" fill="#455A64"/>
<path d="M75.2343 191.887C75.2343 192.019 68.1943 192.125 59.5615 192.125C50.9287 192.125 43.8887 192.019 43.8887 191.887C43.8887 191.755 50.9287 191.658 59.5615 191.658C68.1943 191.658 75.2343 191.764 75.2343 191.887Z" fill="#455A64"/>
<path d="M75.2343 218.058C75.2343 218.182 68.1943 218.287 59.5615 218.287C50.9287 218.287 43.8887 218.182 43.8887 218.058C43.8887 217.935 50.9287 217.83 59.5615 217.83C68.1943 217.83 75.2343 217.926 75.2343 218.058Z" fill="#455A64"/>
<path d="M74.8911 244.661C74.8911 244.793 67.8511 244.89 59.2271 244.89C50.6031 244.89 43.5543 244.793 43.5543 244.661C43.5543 244.529 50.5943 244.432 59.2271 244.432C67.8599 244.432 74.8911 244.52 74.8911 244.661Z" fill="#455A64"/>
<path d="M74.8911 270.577C74.8911 270.7 67.8511 270.806 59.2271 270.806C50.6031 270.806 43.5543 270.7 43.5543 270.577C43.5543 270.454 50.5943 270.348 59.2271 270.348C67.8599 270.348 74.8911 270.454 74.8911 270.577Z" fill="#455A64"/>
<path d="M74.8911 296.493C74.8911 296.616 67.8511 296.722 59.2271 296.722C50.6031 296.722 43.5543 296.616 43.5543 296.493C43.5543 296.37 50.5943 296.264 59.2271 296.264C67.8599 296.264 74.8911 296.361 74.8911 296.493Z" fill="#455A64"/>
<path d="M74.8911 323.72C74.8911 323.843 67.8511 323.949 59.2271 323.949C50.6031 323.949 43.5543 323.843 43.5543 323.72C43.5543 323.597 50.5943 323.491 59.2271 323.491C67.8599 323.491 74.8911 323.597 74.8911 323.72Z" fill="#455A64"/>
<path d="M29.2015 272.909H-34.0969V356.403H29.2015V272.909Z" fill="#ECECEC"/>
<path opacity="0.1" d="M29.2015 272.909H-34.0969V356.403H29.2015V272.909Z" fill="black"/>
<path d="M29.2104 272.909H-0.472046V356.403H29.2104V272.909Z" fill="#ECECEC"/>
<path opacity="0.3" d="M29.2104 272.909H-0.472046V356.403H29.2104V272.909Z" fill="black"/>
<path d="M11.5223 284.217H5.82874V298.042H11.5223V284.217Z" fill="#F5F5F5"/>
<path d="M23.8688 284.217H18.1752V298.042H23.8688V284.217Z" fill="#F5F5F5"/>
<path d="M11.5223 310.45H5.82874V324.274H11.5223V310.45Z" fill="#F5F5F5"/>
<path d="M23.8688 310.45H18.1752V324.274H23.8688V310.45Z" fill="#F5F5F5"/>
<path d="M11.5223 336.691H5.82874V350.516H11.5223V336.691Z" fill="#F5F5F5"/>
<path d="M23.8688 336.691H18.1752V350.516H23.8688V336.691Z" fill="#F5F5F5"/>
<g opacity="0.7">
<path opacity="0.7" d="M11.5223 284.217H5.82874V298.042H11.5223V284.217Z" fill="black"/>
<path opacity="0.7" d="M23.8688 284.217H18.1752V298.042H23.8688V284.217Z" fill="black"/>
<path opacity="0.7" d="M11.5223 310.45H5.82874V324.274H11.5223V310.45Z" fill="black"/>
<path opacity="0.7" d="M23.8688 310.45H18.1752V324.274H23.8688V310.45Z" fill="black"/>
<path opacity="0.7" d="M11.5223 336.691H5.82874V350.516H11.5223V336.691Z" fill="black"/>
<path opacity="0.7" d="M23.8688 336.691H18.1752V350.516H23.8688V336.691Z" fill="black"/>
</g>
<path d="M33.9711 270.005H-38.8489V273.014H33.9711V270.005Z" fill="#ECECEC"/>
<path opacity="0.3" d="M33.9711 270.005H-38.8489V273.014H33.9711V270.005Z" fill="black"/>
<path d="M29.6503 273.296C29.6503 273.428 15.4999 273.525 -1.95046 273.525C-19.4009 273.525 -33.5601 273.428 -33.5601 273.296C-33.5601 273.164 -19.4097 273.067 -1.95926 273.067C15.4911 273.067 29.6503 273.173 29.6503 273.296Z" fill="#FF725E"/>
<path d="M29.6503 273.296C29.6503 273.428 15.4999 273.525 -1.95046 273.525C-19.4009 273.525 -33.5601 273.428 -33.5601 273.296C-33.5601 273.164 -19.4097 273.067 -1.95926 273.067C15.4911 273.067 29.6503 273.173 29.6503 273.296Z" fill="black"/>
<path d="M130.234 235.007H63.6536V355.849H130.234V235.007Z" fill="#ECECEC"/>
<path opacity="0.7" d="M130.234 235.007H63.6536V355.849H130.234V235.007Z" fill="black"/>
<path d="M130.234 235.007H111.429V355.849H130.234V235.007Z" fill="#FF725E"/>
<path opacity="0.8" d="M130.234 235.007H111.429V355.849H130.234V235.007Z" fill="black"/>
<path d="M82.8815 250.601H76.3871V264.285H82.8815V250.601Z" fill="#ECECEC"/>
<path d="M100.93 250.601H94.4359V264.285H100.93V250.601Z" fill="#ECECEC"/>
<path d="M82.8815 275.883H76.3871V289.576H82.8815V275.883Z" fill="#ECECEC"/>
<path d="M100.93 275.883H94.4359V289.576H100.93V275.883Z" fill="#ECECEC"/>
<path d="M82.8815 301.166H76.3871V314.858H82.8815V301.166Z" fill="#ECECEC"/>
<path d="M100.93 301.166H94.4359V314.858H100.93V301.166Z" fill="#ECECEC"/>
<path d="M82.8815 328.824H76.3871V342.508H82.8815V328.824Z" fill="#ECECEC"/>
<path d="M100.93 329.493H94.4359V343.177H100.93V329.493Z" fill="#ECECEC"/>
<g opacity="0.4">
<path opacity="0.4" d="M82.8815 250.601H76.3871V264.285H82.8815V250.601Z" fill="black"/>
<path opacity="0.4" d="M100.93 250.601H94.4359V264.285H100.93V250.601Z" fill="black"/>
<path opacity="0.4" d="M82.8815 275.883H76.3871V289.576H82.8815V275.883Z" fill="black"/>
<path opacity="0.4" d="M100.93 275.883H94.4359V289.576H100.93V275.883Z" fill="black"/>
<path opacity="0.4" d="M82.8815 301.166H76.3871V314.858H82.8815V301.166Z" fill="black"/>
<path opacity="0.4" d="M100.93 301.166H94.4359V314.858H100.93V301.166Z" fill="black"/>
<path opacity="0.4" d="M82.8815 328.824H76.3871V342.508H82.8815V328.824Z" fill="black"/>
<path opacity="0.4" d="M100.93 329.493H94.4359V343.177H100.93V329.493Z" fill="black"/>
</g>
<path d="M111.49 323.298C111.49 323.421 100.93 323.526 87.8975 323.526C74.8647 323.526 64.3047 323.421 64.3047 323.298C64.3047 323.174 74.8647 323.069 87.8975 323.069C100.93 323.069 111.49 323.166 111.49 323.298Z" fill="#898989"/>
<path d="M111.49 296.132C111.49 296.264 100.93 296.361 87.8975 296.361C74.8647 296.361 64.3047 296.264 64.3047 296.132C64.3047 296 74.8647 295.903 87.8975 295.903C100.93 295.903 111.49 296.009 111.49 296.132Z" fill="#898989"/>
<path d="M111.49 270.04C111.49 270.163 100.93 270.269 87.8975 270.269C74.8647 270.269 64.3047 270.163 64.3047 270.04C64.3047 269.917 74.8647 269.811 87.8975 269.811C100.93 269.811 111.49 269.873 111.49 270.04Z" fill="#898989"/>
<g opacity="0.8">
<path opacity="0.8" d="M111.49 323.298C111.49 323.421 100.93 323.526 87.8975 323.526C74.8647 323.526 64.3047 323.421 64.3047 323.298C64.3047 323.174 74.8647 323.069 87.8975 323.069C100.93 323.069 111.49 323.166 111.49 323.298Z" fill="black"/>
<path opacity="0.8" d="M111.49 296.132C111.49 296.264 100.93 296.361 87.8975 296.361C74.8647 296.361 64.3047 296.264 64.3047 296.132C64.3047 296 74.8647 295.903 87.8975 295.903C100.93 295.903 111.49 296.009 111.49 296.132Z" fill="black"/>
<path opacity="0.8" d="M111.49 270.04C111.49 270.163 100.93 270.269 87.8975 270.269C74.8647 270.269 64.3047 270.163 64.3047 270.04C64.3047 269.917 74.8647 269.811 87.8975 269.811C100.93 269.811 111.49 269.873 111.49 270.04Z" fill="black"/>
</g>
<path d="M124.4 250.979H117.906V264.672H124.4V250.979Z" fill="#263238"/>
<path d="M124.4 277.018H117.906V290.702H124.4V277.018Z" fill="#263238"/>
<path d="M124.4 303.066H117.906V316.759H124.4V303.066Z" fill="#263238"/>
<path d="M124.4 329.114H117.906V342.807H124.4V329.114Z" fill="#263238"/>
<path d="M179.778 154.795H103.086V355.541H179.778V154.795Z" fill="#C4C4C4"/>
<path opacity="0.8" d="M180.676 155.693H142.326V356.438H180.676V155.693Z" fill="#898989"/>
<path d="M138.929 130.938H111.842V154.804H138.929V130.938Z" fill="#ECECEC"/>
<path d="M138.92 130.938H132.469V154.804H138.92V130.938Z" fill="#263238"/>
<path d="M163.402 165.206H156.907V178.898H163.402V165.206Z" fill="#455A64"/>
<path d="M180.113 184.266C180.113 184.39 171.524 184.495 160.938 184.495C150.351 184.495 141.762 184.39 141.762 184.266C141.762 184.143 150.351 184.038 160.938 184.038C171.524 184.038 180.113 184.143 180.113 184.266Z" fill="#455A64"/>
<path d="M163.402 192.38H156.907V206.064H163.402V192.38Z" fill="#455A64"/>
<path d="M180.113 211.441C180.113 211.573 171.524 211.67 160.938 211.67C150.351 211.67 141.762 211.573 141.762 211.441C141.762 211.309 150.351 211.212 160.938 211.212C171.524 211.212 180.113 211.318 180.113 211.441Z" fill="#455A64"/>
<path d="M163.402 220.382H156.907V234.074H163.402V220.382Z" fill="#455A64"/>
<path d="M180.113 239.442C180.113 239.566 171.524 239.671 160.938 239.671C150.351 239.671 141.762 239.566 141.762 239.442C141.762 239.319 150.36 239.24 160.92 239.24C171.48 239.24 180.113 239.31 180.113 239.442Z" fill="#455A64"/>
<path d="M163.402 248.374H156.907V262.067H163.402V248.374Z" fill="#455A64"/>
<path d="M180.113 267.4C180.113 267.532 171.524 267.629 160.938 267.629C150.351 267.629 141.762 267.532 141.762 267.4C141.762 267.268 150.351 267.171 160.938 267.171C171.524 267.171 180.113 267.312 180.113 267.4Z" fill="#455A64"/>
<path d="M163.402 275.575H156.907V289.259H163.402V275.575Z" fill="#455A64"/>
<path d="M180.113 294.68C180.113 294.803 171.524 294.909 160.938 294.909C150.351 294.909 141.762 294.803 141.762 294.68C141.762 294.557 150.351 294.451 160.938 294.451C171.524 294.451 180.113 294.504 180.113 294.68Z" fill="#455A64"/>
<path d="M163.402 302.882H156.907V316.566H163.402V302.882Z" fill="#455A64"/>
<path d="M163.402 330.54H156.907V344.233H163.402V330.54Z" fill="#455A64"/>
<path d="M180.113 321.96C180.113 322.083 171.524 322.189 160.938 322.189C150.351 322.189 141.762 322.083 141.762 321.96C141.762 321.837 150.351 321.731 160.938 321.731C171.524 321.731 180.113 321.81 180.113 321.96Z" fill="#455A64"/>
<path d="M182.031 153.405H96.6975V154.795H182.031V153.405Z" fill="#263238"/>
<path d="M124.717 165.206H118.222V178.898H124.717V165.206Z" fill="#E6E6E6"/>
<path d="M141.437 184.266C141.437 184.39 132.848 184.495 122.262 184.495C111.675 184.495 103.086 184.39 103.086 184.266C103.086 184.143 111.666 184.038 122.262 184.038C132.857 184.038 141.437 184.143 141.437 184.266Z" fill="#E6E6E6"/>
<path d="M124.717 192.794H118.222V206.478H124.717V192.794Z" fill="#E6E6E6"/>
<path d="M141.437 211.854C141.437 211.986 132.848 212.083 122.262 212.083C111.675 212.083 103.086 211.986 103.086 211.854C103.086 211.722 111.666 211.626 122.262 211.626C132.857 211.626 141.437 211.731 141.437 211.854Z" fill="#E6E6E6"/>
<path d="M124.717 220.39H118.222V234.074H124.717V220.39Z" fill="#E6E6E6"/>
<path d="M141.437 239.451C141.437 239.574 132.848 239.68 122.262 239.68C111.675 239.68 103.086 239.574 103.086 239.451C103.086 239.328 111.64 239.24 122.262 239.24C132.883 239.24 141.437 239.319 141.437 239.451Z" fill="#E6E6E6"/>
<path d="M124.717 247.978H118.222V261.671H124.717V247.978Z" fill="#E6E6E6"/>
<path d="M141.437 267.039C141.437 267.171 132.848 267.268 122.262 267.268C111.675 267.268 103.086 267.171 103.086 267.039C103.086 266.907 111.666 266.81 122.262 266.81C132.857 266.81 141.437 266.916 141.437 267.039Z" fill="#E6E6E6"/>
<path d="M124.717 275.575H118.222V289.259H124.717V275.575Z" fill="#E6E6E6"/>
<path d="M141.437 294.68C141.437 294.803 132.848 294.909 122.262 294.909C111.675 294.909 103.086 294.803 103.086 294.68C103.086 294.557 111.666 294.451 122.262 294.451C132.857 294.451 141.437 294.504 141.437 294.68Z" fill="#E6E6E6"/>
<path d="M124.717 303.163H118.222V316.856H124.717V303.163Z" fill="#E6E6E6"/>
<path d="M141.437 322.224C141.437 322.356 132.848 322.453 122.262 322.453C111.675 322.453 103.086 322.356 103.086 322.224C103.086 322.092 111.64 321.96 122.262 321.96C132.883 321.96 141.437 322.101 141.437 322.224Z" fill="#E6E6E6"/>
<path d="M124.717 330.76H118.222V344.453H124.717V330.76Z" fill="#E6E6E6"/>
<path d="M232.719 273.56H170.054V356.21H232.719V273.56Z" fill="#898989"/>
<path d="M232.719 273.56H203.336V356.21H232.719V273.56Z" fill="#ECECEC"/>
<path d="M188.825 284.745H183.193V298.438H188.825V284.745Z" fill="#ECECEC"/>
<path d="M188.825 338.319H183.193V352.012H188.825V338.319Z" fill="#ECECEC"/>
<path d="M203.336 303.806C203.336 303.938 195.882 304.034 186.695 304.034C177.508 304.034 170.054 303.938 170.054 303.806C170.054 303.674 177.499 303.577 186.695 303.577C195.891 303.577 203.336 303.682 203.336 303.806Z" fill="#455A64"/>
<path d="M188.825 311.734H183.193V325.418H188.825V311.734Z" fill="#ECECEC"/>
<path d="M203.336 330.76C203.336 330.892 195.882 330.989 186.695 330.989C177.508 330.989 170.054 330.892 170.054 330.76C170.054 330.628 177.499 330.531 186.695 330.531C195.891 330.531 203.336 330.672 203.336 330.76Z" fill="#455A64"/>
<path d="M215.207 284.745H209.575V298.438H215.207V284.745Z" fill="#263238"/>
<path d="M227.43 284.745H221.798V298.438H227.43V284.745Z" fill="#263238"/>
<path d="M215.207 310.722H209.575V324.415H215.207V310.722Z" fill="#263238"/>
<path d="M227.43 310.722H221.798V324.415H227.43V310.722Z" fill="#263238"/>
<path d="M215.207 336.691H209.575V350.375H215.207V336.691Z" fill="#263238"/>
<path d="M227.43 336.691H221.798V350.375H227.43V336.691Z" fill="#263238"/>
<path d="M237.418 270.682H165.338V273.666H237.418V270.682Z" fill="#898989"/>
<path d="M233.15 273.938C233.15 274.07 219.141 274.167 201.875 274.167C184.609 274.167 170.591 274.07 170.591 273.938C170.591 273.806 184.592 273.71 201.875 273.71C219.158 273.71 233.15 273.815 233.15 273.938Z" fill="#E0E0E0"/>
<path d="M264.364 356.201C264.364 356.333 188.816 356.438 95.6592 356.438C2.50237 356.438 -73.072 356.333 -73.072 356.201C-73.072 356.069 2.45837 355.972 95.6592 355.972C188.86 355.972 264.364 356.078 264.364 356.201Z" fill="#263238"/>
</g>
</g>
</svg>
